<?xml version="1.0" encoding="utf-8"?>
<!-- Generator: Adobe Illustrator 27.2.0, SVG Export Plug-In . SVG Version: 6.00 Build 0)  -->
<svg version="1.1" id="Layer_1" xmlns="http://www.w3.org/2000/svg" xmlns:xlink="http://www.w3.org/1999/xlink" x="0px" y="0px"
	 viewBox="0 0 500 500" style="enable-background:new 0 0 500 500;" xml:space="preserve">
<style type="text/css">
	.st0{fill:none;stroke:#000000;stroke-width:6;stroke-miterlimit:10;}
</style>
<g>
	<path class="st0" d="M238.7,34.9c7.7,0,15.5,0,23.2,0c0.6,0.6,1.3,0.6,2,0.6c13.8,0.3,27.3,2.6,40.6,6.3
		c18.3,5.2,34.9,13.7,48.6,27.1c8.4,8.2,15,17.8,20.2,28.4c2.7,5.4,4.3,11.3,6.9,16.7c-0.9,0.7-0.5,1.7-0.5,2.6
		c0,3.9,0.3,7.9,0.5,11.8c0.3,8.4,0.3,16.8-1,25.1c-2,13.1-8.5,23.4-18.5,31.6c-6.2,5.1-13.4,8.7-20.8,11.8
		c-14.1,5.9-28.9,9-43.8,11.7c-6.5,1.2-13,1.9-19.5,2.6c-9.2,1.1-18.4,2.1-27.7,2.4c-7.9,0.2-15.7-0.5-23.6-1.1
		c-8.7-0.7-17.4-1.6-26-3.4c-15-3.1-29.6-7.4-43-15.4c-14.6-8.7-25.3-20.5-31.1-36.7c-2.2-6-3.4-12.2-4.1-18.5
		c-0.6-4.7-1.4-9.5-0.7-14.3c0.4-3.3,0.7-6.6,0.4-9.9c0.4-2.9,1.6-5.6,2.7-8.3c7.9-20.3,20.4-37,38.6-49c19.9-13.1,42.1-19,65.6-21
		C231.3,35.7,235.1,36.2,238.7,34.9z"/>
	<path class="st0" d="M97.7,229.9c0.2-0.4,0.5-0.7,0.6-1.1c1.6-10.5,12.3-11.5,19.5-7.3c0.6,0.3,0.9,1.6,2,0.7
		c0.7,0.6,1,1.5,1.2,2.4c2.2,10,5,19.8,8,29.5c4.4,14.1,9.4,28.1,14.7,41.8c1.7,4.4,2.9,9.2,6.6,12.8c5.6,5.3,11.4,10.4,17.6,15.2
		c-1.1,1.2-0.7,2.6-0.6,3.9c1.2,11.2,1.4,22.5-0.2,33.7c-0.6,4.5-0.7,9.1-3,13.2c-10.9-19.3-22.1-38.6-28.4-60.1
		c-0.6-2-1.1-3-3.6-2.2c-3.2,1-6.8-1.1-8.9-4.4c-2.3-3.7-3-7.9-2.9-12c0.1-7.5-2.4-13.9-6.3-19.9c-2.4-3.8-5.1-7.4-7.5-11.1
		c-4.4-6.9-7.4-14.4-8.3-22.7c0-0.4-0.3-0.7-0.5-1.1C97.7,237.4,97.7,233.7,97.7,229.9z"/>
	<path class="st0" d="M167.9,323.9c-6.1-4.7-11.9-9.8-17.6-15.2c-3.8-3.6-4.9-8.3-6.6-12.8c-5.3-13.8-10.3-27.7-14.7-41.8
		c-3-9.7-5.8-19.6-8-29.5c-0.2-0.9-0.4-1.8-1.2-2.4c-1.1-7-2.3-13.9-3.4-20.9c-0.6-3.4-1.3-6.8-1.6-10.3c-0.6-5.8-0.8-11.7-1.2-17.6
		c1.2-5,0.2-10.1,0.5-15.1c-0.7-3.6-0.2-7.3,0.2-10.9c0.7-6.3,1.5-12.7,2.9-19c1-4.8,2-9.5,3.7-14.1c0.3,3.3,0,6.6-0.4,9.9
		c-0.6,4.8,0.2,9.6,0.7,14.3c0.7,6.2,2,12.5,4.1,18.5c5.8,16.1,16.5,27.9,31.1,36.7c13.3,8,28,12.3,43,15.4c8.5,1.7,17.2,2.7,26,3.4
		c7.9,0.6,15.7,1.3,23.6,1.1c9.3-0.2,18.5-1.3,27.7-2.4c6.5-0.8,13-1.5,19.5-2.6c14.9-2.7,29.7-5.8,43.8-11.7
		c7.4-3.1,14.6-6.7,20.8-11.8c10-8.2,16.5-18.5,18.5-31.6c1.3-8.4,1.3-16.8,1-25.1c-0.1-3.9-0.5-7.9-0.5-11.8c0-0.9-0.4-1.9,0.5-2.6
		c2.1,7.1,4.3,14.1,5.4,21.4c0.6,3.9,1.3,7.9,1.6,11.9c0.7,8.6,1.3,17.2,0.6,25.9c-0.9,11.1-1.6,22.3-3.5,33.3
		c-0.9,4.9-1.9,9.8-2.5,14.7c-2.6,12.4-5.7,24.7-9.4,36.8c-4.6,15-10.4,29.6-16.7,44c-2.2,5.1-5.6,9.2-10,12.8
		c-4.8,3.9-10.1,7.1-14.9,11c-6.6,3.8-13.1,7.7-19.8,11.3c-7.9,4.1-16.1,7.8-24.5,10.7c-15.5,5.4-31.2,9.7-47.9,7.6
		c-10-1.2-19.6-3.7-28.9-7.5C194.6,341.7,180.9,333.5,167.9,323.9z"/>
	<path class="st0" d="M167.9,323.9c13,9.6,26.7,17.7,41.7,23.9c9.3,3.8,18.9,6.3,28.9,7.5c16.8,2.1,32.4-2.3,47.9-7.6
		c8.5-2.9,16.6-6.6,24.5-10.7c6.7-3.5,13.2-7.5,19.8-11.3c0.5,0.4,0.8,1,0.7,1.6c-0.9,3.4-0.2,6.9-0.7,10.2
		c-1.4,10.3-0.2,20.5,0.9,30.7c0.3,2.8,0.3,5.8,2.2,8.3c0.2,5.6,2.6,10.5,4.7,15.5c4.6,10.9,11,20.8,18.1,30.2
		c1.7,2.3,2.1,3.7-0.7,5.7c-23.1,16.5-48,28.9-76.1,34.3c-11.3,2.2-22.7,3.4-34.2,2.7c-23.1-1.3-45.1-7-66.2-16.6
		c-12.7-5.8-24.6-12.8-36.3-20.3c-3.6-2.3-3.5-2.3-1.1-6.1c8.6-13.5,16.6-27.3,21.3-42.7c0.5-1.5,0.9-3,0.8-4.6
		c2.3-4.1,2.4-8.8,3-13.2c1.6-11.2,1.4-22.5,0.2-33.7C167.2,326.5,166.8,325.1,167.9,323.9z"/>
	<path class="st0" d="M333.9,376.6c-1.9-2.4-1.9-5.5-2.2-8.3c-1.1-10.2-2.4-20.4-0.9-30.7c0.5-3.4-0.2-6.8,0.7-10.2
		c0.2-0.6-0.2-1.2-0.7-1.6c4.8-3.9,10.1-7.1,14.9-11c4.4-3.6,7.8-7.6,10-12.8c6.3-14.4,12.1-29,16.7-44c3.7-12.1,6.9-24.4,9.4-36.8
		c1.1,0.2,2-0.4,3-0.7c10.2-3.5,17.1,1.3,17.5,12.2c0.6,14.1-4,26.4-12.2,37.6c-5,6.7-9.3,13.8-10.6,22.4c-0.4,2.6-0.1,5.2-0.3,7.8
		c-0.3,6.1-3.3,11.5-8.2,11.9c-4.8,0.4-5.3,3.3-6.3,6.7c-3.6,13.1-9.7,25.1-17.1,36.4C342.9,362.3,338.4,369.4,333.9,376.6z"/>
</g>
</svg>
