<?xml version="1.0" encoding="utf-8"?>
<!-- Generator: Adobe Illustrator 27.2.0, SVG Export Plug-In . SVG Version: 6.00 Build 0)  -->
<svg version="1.1" id="Layer_1" xmlns="http://www.w3.org/2000/svg" xmlns:xlink="http://www.w3.org/1999/xlink" x="0px" y="0px"
	 viewBox="0 0 500 500" style="enable-background:new 0 0 500 500;" xml:space="preserve">
<g>
	<path d="M58.4,98.8c0.2-0.4,0.5-0.8,0.7-1.3c3.4-12.6,12.5-19.8,25.6-19.9c18.2-0.1,36.4-0.1,54.7,0c2.4,0,4.2-0.3,5.8-2.4
		c2.5-3.1,6.1-4.4,10-4.1c5.6,0.4,9.9-1,14.4-4.8c14.2-11.7,35.5-10.4,49,2.3c2,1.9,4,2.4,6.6,2.6c4.3,0.3,9.7-0.1,12.4,2.3
		c4.7,4.3,9.7,4,15,4c15.6,0,31.2,0,46.8,0c16.9,0,27.3,10.5,27.3,27.3c0,35.7,0,71.4,0,107c0,2.8,0.8,4.8,2.4,7.1
		c5.2,7.3,10,14.9,14.8,22.5c30.5,47.6,60.9,95.1,91.3,142.7c10.5,16.4,7.9,36.2-5.9,48.6c-5.3,4.7-11.6,7-18.3,8.8
		c-73.1,0-146.3,0-219.4,0c-0.7-0.2-1.4-0.6-2.1-0.7c-12-2.6-20.7-9.6-25.6-20.8c-1.4-3.3-2.3-6.8-3.4-10.5c-1.4,0-2.9,0-4.4,0
		c-23.8,0-47.6,0.1-71.5,0c-13-0.1-22.1-7.2-25.6-19.8c-0.1-0.5-0.4-0.9-0.7-1.3C58.4,291.9,58.4,195.4,58.4,98.8z M96.9,115.9
		c0,85.4,0,170.3,0,255.4c25.7,0,51.2,0,76.6,0c0.8,0,2-0.5,2.5-1.2c3.8-5.7,7.4-11.4,11.4-17.7c-1.8-0.1-3-0.2-4.2-0.2
		c-6.4,0-12.7,0-19.1,0c-0.9,0-1.7,0-2.6,0c-4.5-0.2-7.3-2.6-7.3-6.3c0-3.8,2.7-6.3,7.2-6.4c7.4-0.1,14.8-0.7,22.1,0.1
		c9.3,1.1,15.4-1.8,19-10.5c1.2-3,3.4-5.5,5.5-8.8c-6.9,0-12.9,0-18.9,0c-9.2,0-18.5,0-27.7,0c-3,0-5.8-1.1-6.4-4
		c-0.5-2-0.1-4.9,1.1-6.4c1.1-1.4,3.9-2.2,5.9-2.2c17-0.2,33.9-0.1,50.9-0.1c1.3,0,3.2-0.1,3.7-0.9c4-5.8,7.7-11.8,11.9-18.4
		c-5.5,0-10.2,0-14.9,0c-17.5,0-34.9,0-52.4,0c-4.2,0-6.9-2.5-7-6.2c-0.1-3.6,2.7-6.3,6.8-6.5c1-0.1,2,0,3,0c23.1,0,46.2,0,69.3,0
		c1.3,0,3.2,0,3.8-0.8c4-5.8,7.7-11.8,11.9-18.3c-2.3,0-3.8,0-5.3,0c-26.6,0-53.2,0-79.7,0c-1.6,0-3.3,0-4.8-0.3
		c-3-0.7-4.7-2.9-4.8-5.9c-0.1-3.2,1.6-5.5,4.8-6.2c1.6-0.3,3.2-0.3,4.8-0.3c29.8,0,59.6,0,89.5,0c2.7,0,4.3-0.7,5.7-3.1
		c3.9-6.4,8-12.6,12.1-18.9c3.5-5.5,8.2-9.8,14.1-12.5c2.5-1.1,3.1-2.5,3.1-5.1c-0.1-28.1,0-56.1-0.1-84.2c0-1.2-0.1-2.4-0.2-3.7
		c-0.7-0.1-1.2-0.2-1.6-0.2c-14.1,0-28.2-0.1-42.3,0.1c-1.2,0-2.8,0.9-3.7,1.8c-2.7,2.8-5.7,4.3-9.6,4.3c-25.6,0-51.2,0-76.7,0
		c-4,0-7.2-1.7-9.8-4.6c-0.7-0.7-1.8-1.6-2.7-1.6C126.9,115.9,112,115.9,96.9,115.9z M301,428.9c34.3,0,68.6,0,102.9,0
		c9.7,0,17.3-3.7,21.9-12.3c4.7-8.7,3.9-17.2-1.4-25.5c-34.4-53.6-68.7-107.3-103.1-160.9c-10.5-16.4-30.1-16.4-40.7,0.1
		c-34.2,53.4-68.4,106.9-102.7,160.3c-5.4,8.4-6.5,17-1.8,25.8c4.8,9.1,12.8,12.6,22.9,12.5C233.2,428.8,267.1,428.9,301,428.9z
		 M141.3,90.4c-1.7,0-3,0-4.4,0c-16.7,0-33.4,0-50.1,0c-11.2,0-15.7,4.5-15.7,15.6c0,91.8,0,183.6,0,275.4c0,1.1,0,2.2,0,3.4
		c0.4,6.8,5.5,11.9,12.3,12.1c2.2,0.1,4.5,0,6.7,0c22.7,0,45.4,0,68.1,0c1.2,0,3.1-0.4,3.4-1.1c1.8-3.6,3.1-7.5,4.7-11.6
		c-1.5,0-2.8,0-4.2,0c-21.3,0-42.7,0-64,0c-9.3,0-14.5-5-14.5-14.2c0-84.2,0-168.4,0-252.6c0-9.1,5.1-14.1,14.1-14.1
		c13.1,0,26.2,0,39.3,0c1.3,0,2.6,0,4,0C141.3,98.7,141.3,94.9,141.3,90.4z M154.3,109.2c25.6,0,50.9,0,76.5,0c0-4.3,0-8.4,0-12.4
		c0-4.2,0-8.4,0-12.9c-4.1,0-7.8,0.4-11.3-0.1c-2.5-0.4-5.4-1.4-7-3.2c-11.4-12.5-28.4-12.7-39.6-0.1c-2.2,2.4-4.5,3.6-7.8,3.5
		c-3.6-0.2-7.1,0-10.8,0C154.3,92.6,154.3,100.7,154.3,109.2z M243.8,103.2c14.4,0,28.4,0,42.3,0c10.2,0,14.9,4.6,14.9,14.8
		c0,27.5,0,55.1,0,82.6c0,1.5,0,2.9,0,4.3c4.4,0.8,8.4,1.6,12.8,2.4c0-1.4,0-2.6,0-3.8c0-32.8,0-65.6,0-98.3
		c0-9.9-4.7-14.7-14.7-14.7c-17.2,0-34.4,0-51.6,0c-1.2,0-2.4,0.1-3.8,0.2C243.8,94.8,243.8,98.8,243.8,103.2z"/>
	<path d="M211.8,160.6c4.4,0,8.3-0.1,12.1,0c8.3,0.2,13.3,5.4,13.4,13.7c0,3.7,0.1,7.5,0,11.2c-0.1,7.8-5.3,13.1-13.1,13.3
		c-4,0.1-7.9,0-12.4,0c0,4,0,7.7,0,11.4c-0.1,8.9-5.3,14.1-14.2,14.1c-3.7,0-7.5,0.1-11.2,0c-7.5-0.2-12.6-5.3-12.8-12.8
		c-0.1-4.1,0-8.2,0-12.7c-4.1,0-7.8,0-11.5,0c-8.8-0.1-13.9-5.1-14.1-13.9c-0.1-3.5-0.1-7,0-10.5c0.1-8.9,5-13.9,13.9-14
		c3.7-0.1,7.4,0,11.7,0c0-4.1,0-7.8,0-11.4c0.1-9.1,5-14.1,14.1-14.2c3.6,0,7.2-0.1,10.8,0c8.1,0.3,13.2,5.4,13.3,13.5
		C211.8,152.4,211.8,156.2,211.8,160.6z M199,211.5c0-6,0-11.4,0-16.9c0-6.5,1.9-8.4,8.5-8.4c5.6,0,11.1,0,16.8,0
		c0-4.5,0-8.5,0-12.8c-5.9,0-11.5,0-17.1,0c-6-0.1-8.1-2.1-8.1-8.1c0-5.7,0-11.4,0-17.2c-4.5,0-8.5,0-12.8,0c0,5.7,0,11,0,16.3
		c0,6.9-2,8.9-8.9,9c-5.4,0-10.9,0-16.5,0c0,4.5,0,8.4,0,12.8c5.7,0,11.1,0,16.6,0c6.9,0,8.8,1.9,8.8,8.9c0,5.4,0,10.9,0,16.4
		C190.7,211.5,194.6,211.5,199,211.5z"/>
	<path d="M128.8,243.7c2.2,0,4.5-0.2,6.7,0c3.5,0.4,5.8,2.9,5.9,6.1c0.1,3.2-2.2,6.1-5.7,6.3c-4.7,0.3-9.5,0.3-14.2,0
		c-3.5-0.2-5.6-2.9-5.6-6.3c0-3.3,2.2-5.8,5.8-6.2C124.1,243.5,126.5,243.7,128.8,243.7z"/>
	<path d="M128.8,352.1c-2.5,0-5,0.2-7.5-0.1c-3.3-0.4-5.3-3-5.3-6.2c0-3.2,2-5.9,5.3-6.1c5-0.3,10-0.3,14.9,0
		c3.2,0.2,5.4,3.2,5.2,6.3c-0.2,3.2-1.9,5.5-5.2,5.9c-2.4,0.4-5,0.3-7.4,0.4C128.8,352.2,128.8,352.2,128.8,352.1z"/>
	<path d="M128.7,288.3c-2.2,0-4.5,0.1-6.7,0c-3.5-0.2-5.9-2.6-6-5.9c-0.2-3.4,2.1-6.4,5.7-6.6c4.6-0.3,9.2-0.3,13.8,0
		c3.5,0.2,6,3.2,5.9,6.5c-0.1,3.4-2.7,5.9-6.3,6.1C133,288.4,130.8,288.3,128.7,288.3z"/>
	<path d="M128.9,307.6c2.1,0,4.2-0.1,6.4,0c3.5,0.2,5.9,2.6,6.2,5.8c0.2,3.3-2.2,6.5-5.7,6.7c-4.7,0.3-9.5,0.3-14.2,0
		c-3.5-0.2-5.8-3.3-5.6-6.8c0.2-3.3,2.6-5.5,6.2-5.8c0.2,0,0.5,0,0.7,0C124.9,307.6,126.9,307.6,128.9,307.6
		C128.9,307.6,128.9,307.6,128.9,307.6z"/>
	<path d="M282.1,307.7c0-13.1-0.2-26.2,0.1-39.3c0.1-9.2,6.7-16.5,15.9-18.2c8.3-1.5,17.1,3,20.5,11c1.1,2.7,1.8,5.8,1.8,8.7
		c0.1,25,0.1,50.1,0.1,75.1c0,11.4-8.5,20.1-19.4,19.9c-10.8-0.1-18.8-8.5-18.9-19.9C282,332.6,282.1,320.2,282.1,307.7
		C282.1,307.7,282.1,307.7,282.1,307.7z M294.8,307.3c0,12.5,0,24.9,0,37.4c0,4.7,2.5,7.6,6.4,7.5c3.9,0,6.3-2.9,6.4-7.6
		c0-24.7,0-49.3,0-74c0-4.7-2.5-7.7-6.3-7.7c-4-0.1-6.4,2.9-6.4,7.9C294.8,282.9,294.8,295.1,294.8,307.3z"/>
	<path d="M301.3,377.9c10.5,0,19.1,8.6,19,19c0,10.6-8.8,19.3-19.3,19.2c-10.5-0.1-18.9-8.6-18.9-19.1
		C282.1,386.2,290.5,377.9,301.3,377.9z M307.6,397c0.1-3.5-2.9-6.4-6.4-6.4c-3.5,0-6.2,2.6-6.3,6c-0.1,3.6,2.6,6.6,6.1,6.7
		C304.4,403.4,307.5,400.5,307.6,397z"/>
</g>
</svg>
