<?xml version="1.0" encoding="utf-8"?>
<!-- Generator: Adobe Illustrator 27.2.0, SVG Export Plug-In . SVG Version: 6.00 Build 0)  -->
<svg version="1.1" id="Layer_1" xmlns="http://www.w3.org/2000/svg" xmlns:xlink="http://www.w3.org/1999/xlink" x="0px" y="0px"
	 viewBox="0 0 500 500" style="enable-background:new 0 0 500 500;" xml:space="preserve">
<g>
	<path d="M123.9,60.1c5.6,1.7,11.5,2.9,16.8,5.3c25.4,11.4,38.5,39.5,31.4,66.5c-7,26.5-32.3,44.2-59.7,41.9
		c-28.6-2.4-51.3-26-52.2-54.2c-0.9-29.4,19.6-54.3,48.3-58.7c0.7-0.1,1.4-0.4,2-0.7C115,60.1,119.5,60.1,123.9,60.1z M117.2,161.4
		c24.4-0.1,44.4-20.2,44.2-44.5c-0.2-24.5-20.1-44.2-44.5-44.1c-24.3,0.1-44.2,20.3-44,44.7C72.9,141.5,93,161.4,117.2,161.4z"/>
	<path d="M439.8,395.3c-0.5,2.2-1.1,4.5-1.6,6.7c-6.2,23.8-30,40.4-53.9,37.5c-26.2-3.1-45.2-23.9-45.7-49.9
		c-0.4-25,18.3-47,43.1-50.7c27.2-4,52.7,14.4,57.4,41.5c0.2,1,0.5,1.9,0.7,2.8C439.8,387.4,439.8,391.3,439.8,395.3z M351.3,389.1
		c0,20.9,17,38,37.9,38c20.8,0,38-17.1,38-37.9c0-20.9-17-37.9-37.9-37.9C368.2,351.2,351.3,368.1,351.3,389.1z"/>
	<path d="M184.1,163.2c1.6,0.6,3,1,4.3,1.6c4.9,2.3,9.9,4.5,14.7,7.1c2.4,1.3,4.4,0.9,6.9,0.2c6-1.6,9.1-5.3,10.4-11.4
		c1-4.6,2.9-8.9,4.3-13.4c1.1-3.4,3.4-5,6.9-5c12.2,0,24.5,0,36.7,0c3.6,0,5.8,1.7,6.9,5.1c2,6.1,3.9,12.2,6.1,18.2
		c0.5,1.5,2.1,2.7,3.5,3.7c6.3,4.4,12.5,3.5,18.7-0.6c2.7-1.8,6-2.9,9-4.3c2.7-1.3,5.2-1,7.6,0.7c10.5,7.6,19.5,16.7,27.2,27.1
		c1.9,2.6,2.2,5.1,0.8,8c-2.5,5.2-5.2,10.4-7.4,15.7c-0.7,1.7-0.4,3.9-0.1,5.8c1.3,7.5,6.5,10.5,13.4,12c3.7,0.8,7.3,2.4,10.9,3.5
		c3.5,1.1,5.2,3.4,5.2,7.1c-0.1,12.1-0.1,24.2,0,36.3c0,3.7-1.6,6-5.1,7.2c-6.1,2-12.2,3.9-18.2,6.1c-1.5,0.6-2.7,2.1-3.7,3.5
		c-4.3,6.2-3.4,12.3,0.6,18.4c1.8,2.8,2.8,6,4.3,9c1.4,2.8,1.2,5.4-0.7,8c-7.6,10.5-16.7,19.5-27.1,27.1c-2.5,1.9-5.1,2.1-8,0.7
		c-5.2-2.6-10.4-5.2-15.7-7.4c-1.6-0.7-3.7-0.5-5.5-0.1c-7.2,1.4-10.9,6-12.2,13.2c-0.7,4-2.4,7.8-3.7,11.6
		c-1.1,3.2-3.3,4.8-6.7,4.8c-12.4,0-24.7,0-37.1,0c-3.4,0-5.6-1.6-6.6-4.8c-2-6.1-4.1-12.2-6-18.3c-0.7-2.3-2.2-3.4-4.2-4.6
		c-5.6-3.3-10.7-3-16.1,0.4c-3.4,2.2-7.3,3.5-11,5.3c-2.7,1.3-5.2,1.1-7.6-0.7c-10.6-7.7-19.7-16.8-27.4-27.4
		c-1.8-2.4-2-4.9-0.7-7.6c2.6-5.3,5.3-10.6,7.5-16.1c0.7-1.7,0.5-3.9,0.2-5.8c-1.2-6.5-5.3-9.9-11.8-11.2c-4.3-0.8-8.4-2.8-12.7-4.1
		c-3.5-1.1-5.2-3.4-5.2-7.1c0.1-12.1,0.1-24.2,0-36.3c0-3.7,1.6-6,5.1-7.2c5.9-1.9,11.7-4,17.6-5.8c2.6-0.8,3.9-2.2,5.2-4.6
		c2.9-5.4,3.1-10.2-0.3-15.4c-2.3-3.5-3.6-7.6-5.5-11.3c-1.4-2.7-1.2-5.2,0.6-7.6c7.7-10.7,16.9-19.9,27.7-27.6
		C181.3,164.1,182.8,163.8,184.1,163.2z M235.5,155c-2.2,6.5-4.3,12.7-6.3,19c-0.9,3-2.7,4.8-5.5,6c-4.5,1.7-8.9,3.6-13.3,5.5
		c-2.9,1.3-5.6,1.3-8.5-0.2c-4.8-2.4-9.8-4.6-14.7-7.1c-1.8-0.9-3.1-0.9-4.6,0.6c-5.4,5.5-10.9,11-16.5,16.5
		c-1.5,1.5-1.5,2.8-0.6,4.6c2.5,5,5.1,9.9,7.1,15.1c0.9,2.3,0.9,5.3,0.2,7.7c-1.5,4.8-3.5,9.5-5.8,14c-1.1,2.1-3.2,4.1-5.3,5
		c-5.5,2.3-11.2,3.8-16.8,5.8c-1,0.4-2.3,1.6-2.4,2.5c-0.2,9-0.1,18-0.1,27.1c6.4,2.2,12.6,4.3,18.8,6.3c2.9,0.9,4.9,2.6,6,5.5
		c1.8,4.6,3.7,9.2,5.7,13.7c1.3,2.8,1.1,5.4-0.2,8.2c-2.4,4.7-4.5,9.6-6.9,14.3c-1.1,2-1.1,3.6,0.5,5.2c5.5,5.4,10.9,10.7,16.2,16.2
		c1.6,1.6,3,1.4,4.9,0.5c4.8-2.5,9.7-5,14.7-6.9c2.3-0.9,5.3-0.9,7.7-0.2c4.7,1.4,9.1,3.7,13.7,5.5c3,1.2,4.8,3.2,5.7,6.3
		c1.6,5.4,3.6,10.8,5.3,16.2c0.6,1.8,1.4,2.5,3.4,2.5c7.9-0.1,15.8-0.1,23.7,0c2.1,0,3-0.7,3.6-2.6c1.7-5.4,3.6-10.8,5.3-16.2
		c1-3.3,3-5.1,6.2-6.2c4.3-1.5,8.5-3.3,12.6-5.3c2.9-1.4,5.6-1.5,8.5,0c4.9,2.4,9.8,4.6,14.7,7.1c1.7,0.9,3.1,1.1,4.6-0.5
		c5.5-5.6,11.2-11.1,16.6-16.9c0.8-0.8,0.9-3,0.4-4.1c-2.1-5-4.5-9.9-7-14.7c-1.5-3-1.5-5.8,0-8.8c2-4.1,3.7-8.3,5.2-12.6
		c1.1-3.2,3.1-5.1,6.3-6.1c5.3-1.6,10.5-3.5,15.8-5.1c2-0.6,2.9-1.5,2.9-3.8c-0.2-7.8-0.1-15.6,0-23.4c0-2.1-0.6-3.1-2.6-3.7
		c-5.5-1.7-11-3.7-16.5-5.4c-3-0.9-4.7-2.7-5.8-5.7c-1.6-4.5-3.5-9-5.5-13.3c-1.3-2.8-1.3-5.4,0.1-8.1c2.5-5,4.9-10,7.1-15.1
		c0.5-1.1,0.3-3.3-0.5-4.1c-5.4-5.7-11.1-11.2-16.6-16.8c-1.5-1.6-2.9-1.3-4.6-0.4c-5,2.5-10,4.7-15,7.2c-2.7,1.3-5.1,1.2-7.8,0
		c-4.4-2-8.8-3.9-13.3-5.5c-2.9-1.1-4.8-2.8-5.7-5.8c-1.8-5.6-3.6-11.3-5.6-16.8c-0.3-1-1.7-2.2-2.6-2.2
		C253.6,155,244.7,155,235.5,155z"/>
	<path d="M348.7,165.7c-3.1-3-5.9-5.8-8.7-8.5c7.8-8.2,15.6-16.3,23.5-24.5c-8,1.1-15.8,2.2-24,3.3c-0.6-4.3-1.2-8.1-1.8-12.4
		c7.5-1.1,14.8-2.2,22.1-3.2c6.6-1,13.2-1.9,19.8-2.9c7.3-1.1,10.2,1.7,9.2,9.1c-1.8,13-3.6,25.9-5.5,38.9c-0.1,0.9-0.4,1.9-0.7,3.1
		c-4.1-0.6-8.1-1.2-12.3-1.8c1.2-8.4,2.3-16.4,3.6-25.6C365.1,149.7,357,157.6,348.7,165.7z"/>
	<path d="M83.9,425c-3.1-3-6-5.8-9.2-8.7c23.2-22.7,46.3-45.2,69.3-67.7c2.9,3,5.6,5.9,8.7,9.2C130,380,106.9,402.5,83.9,425z"/>
	<path d="M72.7,427.4c0,4.1,0,8,0,12.1c-4.1,0-8.1,0-12.3,0c0-4,0-7.9,0-12.1C64.3,427.4,68.3,427.4,72.7,427.4z"/>
	<path d="M104.8,148.9c0-4.5,0-8.4,0-12.9c3.7,0,7.3,0,11,0c4.9-0.1,7.5-2.2,7.6-6.1c0.1-3.9-2.4-6.1-7.3-6.6
		c-10.6-1-18.3-9.3-17.9-19.4c0.4-10.2,8.5-18.2,19-18.4c4.1-0.1,8.1,0,12.4,0c0,4.2,0,8.2,0,12.6c-3.7,0-7.4,0-11.1,0
		c-4.7,0.1-7.6,2.5-7.7,6.2c-0.1,3.6,2.5,6,7.1,6.4c10.2,1.1,17.4,8,18.1,17.3c0.7,9.5-5,18.1-14.1,19.9
		C116.4,149,110.6,148.6,104.8,148.9z"/>
	<path d="M414.3,395.4c-6.3,0-12.3,0-18.8,0c0,6.4,0,12.5,0,18.8c-4.3,0-8.2,0-12.6,0c0-6,0-12.1,0-18.7c-6.5,0-12.6,0-18.9,0
		c0-4.4,0-8.3,0-12.5c6,0,12,0,18.5,0c0-6.4,0-12.5,0-18.8c4.4,0,8.3,0,12.7,0c0,6,0,12.1,0,18.6c6.6,0,12.7,0,19,0
		C414.3,387.1,414.3,391,414.3,395.4z"/>
	<path d="M250,338.5c-41.9,0-75.9-33.9-75.9-75.9c0-41.9,33.8-75.9,75.8-75.9c42,0,75.9,33.8,75.9,75.8
		C325.9,304.5,292,338.4,250,338.5z M250,325.8c34.9,0,63.1-28.2,63.2-63.1c0.1-35-28.1-63.2-63-63.3c-35.1-0.1-63.4,28.2-63.4,63.3
		C186.8,297.6,215.1,325.8,250,325.8z"/>
	<path d="M287.6,294.1c-4,0-7.9,0-12.1,0c0-23,0-45.9,0-69.1c3.9,0,7.9,0,12.1,0C287.6,247.9,287.6,270.9,287.6,294.1z"/>
	<path d="M256,294.2c-4.2,0-8,0-12.1,0c0-14.7,0-29.3,0-44.1c4,0,7.9,0,12.1,0C256,264.7,256,279.3,256,294.2z"/>
	<path d="M212.3,269.2c4.1,0,8,0,12.1,0c0,8.2,0,16.4,0,24.8c-4,0-8,0-12.1,0C212.3,285.7,212.3,277.6,212.3,269.2z"/>
</g>
</svg>
