<?xml version="1.0" encoding="utf-8"?>
<!-- Generator: Adobe Illustrator 27.2.0, SVG Export Plug-In . SVG Version: 6.00 Build 0)  -->
<svg version="1.1" id="Layer_1" xmlns="http://www.w3.org/2000/svg" xmlns:xlink="http://www.w3.org/1999/xlink" x="0px" y="0px"
	 viewBox="0 0 500 500" style="enable-background:new 0 0 500 500;" xml:space="preserve">
<style type="text/css">
	.st0{stroke:#FFFFFF;stroke-width:3.4851;stroke-miterlimit:10;}
	.st1{fill:#FFFFFF;stroke:#FFFFFF;stroke-width:3.4851;stroke-miterlimit:10;}
	.st2{fill:none;stroke:#000000;stroke-width:4;stroke-miterlimit:10;}
	.st3{fill:none;stroke:#000000;stroke-width:4;stroke-miterlimit:10;stroke-dasharray:4.9444,4.9444;}
</style>
<g>
	<g>
		<path d="M163.2,120c-4.4,3.4-8.8,6.3-12.5,9.8c-6.9,6.5-13.4,13.4-20.1,20.1c-1.4,1.4-1.7,3-0.8,4.6c3,4.9,5.6,10.1,9.2,14.5
			c7.6,9.1,17.1,16.1,26.7,22.9c1.5,1,2.9,2.1,4.8,3.4c-4.1,2.1-7.7,4.2-11.4,5.8c-12.8,5.6-19.9,15.5-22.4,29.1
			c-3,15.8-6.5,31.5-9.6,47.3c-0.1,14,0.3,28.1,0,42.1c-0.2,9.1,1.7,17.6,5.2,25.9c7.7,18.2,18,34.7,30.8,49.7
			c12.8,15,29.1,22.8,48.8,22.8c8.7,0,17.5-0.5,26.2-1.5c11.1-1.2,20.1-7.1,28.5-14.1c0.6-0.5,1.1-1,1.7-1.5
			c0.1-0.1,0.4-0.1,0.9-0.3c2,2.1,4.1,4.3,6.3,6.6c-9.4,10.6-21.3,16-34.7,18.7c-7.5,1.5-15.2,1.9-22.5,4.2c-8.3-2.4-17-3-25.4-4.9
			c-10.3-2.3-20-6.3-27.5-13.7c-7.3-7.2-14-15.3-20.1-23.5c-9.4-12.6-17.2-26.3-22.9-41.1c-2.1-5.4-3.4-11-5-16.5
			c-3.2-0.3-6.5-0.2-9.7-0.8c-10.5-2-18.4-10.7-19-21.4c-0.4-7.5-0.2-15-0.1-22.5c0.1-5,2.6-8.9,6.9-11.2c2.2-1.2,2.6-2.7,2.6-4.8
			c0-19.5-0.4-39,0.3-58.4c1.3-32.5,14.7-59.7,37.8-82.4c6.7-6.6,14-12.1,22.2-17 M122.2,163.3c-0.5,0.7-0.9,1.2-1.2,1.8
			c-8.1,15.2-12.6,31.5-12.9,48.7c-0.3,16.6-0.1,33.2-0.1,49.8c0,9,0,9,9,8.7c0.2,0,0.4-0.1,0.7-0.3c0.2-0.8,0.5-1.5,0.7-2.4
			c2.9-13.7,5.8-27.3,8.5-41c2.4-12,7.4-22.5,17.3-30.1c2.1-1.6,4.1-3.4,6.3-5.2C139.7,184.6,129.6,175.5,122.2,163.3z M116.7,320.2
			v-37.9c-4.5,0-8.8,0-13,0c-3.8,0.1-5.4,1.7-5.4,5.5c-0.1,5.7,0.2,11.4-0.1,17C97.5,315.2,106.3,322.3,116.7,320.2z"/>
		<path d="M168.5,106.5c6.8-2.3,12.3-4.7,19-6.4c6.6-1.7,13.4-2.4,20.1-3.6c0.7-0.1,1.4-0.4,2.1-0.5h16.7c6.2,1,12.4,1.8,18.6,3.2
			c18.8,4.1,35.8,12.4,50.2,25.1c21.5,19.1,36.3,42.5,41.1,71.3c1.3,8.1,1.8,16.4,2,24.6c0.3,16.7,0.1,33.4,0.1,50.1
			c0,2.1,0.5,3.4,2.6,4.5c4.2,2.3,6.8,6.1,6.9,10.9c0.2,8,0.4,16.1-0.2,24c-0.9,11.2-11.1,20.2-22.6,20.6c-2,0.1-4,0-6.1,0
			c-5.7,26.5-20.1,48.3-36.2,69.4c-2.6-2.1-5-4.1-7.6-6.1c2.6-3.5,5.2-6.7,7.6-10.1c8.2-11.5,15.5-23.6,21-36.6
			c5.2-12.2,7.6-24.9,3.8-39.3c3.1-15.1,2.3-29.4-0.9-43.7c-2.8-12.6-5.4-25.3-8.2-37.9c-2.4-10.7-8.7-18.4-18.4-23.4
			c-4.6-2.4-9.2-4.7-14.3-7.3c4-2.9,7.7-5.5,11.2-8.2c8.6-6.4,16.8-13.3,23.3-21.8c2.5-3.3,4.3-7.1,6.3-10.7c1-1.8,0.6-3.4-0.8-4.9
			c-4.3-4.6-8.3-9.5-12.8-13.9c-22.1-21.3-48.7-30.8-79.1-30c-13.5,0.4-26.4,3.4-38.8,8.9c-1.1,0.5-2.1,0.9-3.5,1.4 M285.7,193.3
			c2.5,2,4.6,3.9,6.9,5.7c8,6.4,13.2,14.6,15.5,24.5c2.5,10.8,4.7,21.7,7.1,32.5c1.2,5.5,2.3,11,3.4,16.2h9.8c0-1.2,0-2.2,0-3.1
			c0-18,0-36,0-53.9c0-10.2-1.4-20.3-4.6-30c-2.6-7.9-6.1-15.4-9.1-23.2C307.6,174.8,297,184.3,285.7,193.3z M319.6,282.4v38.2
			c1.9,0,3.6,0.1,5.3,0c7-0.6,12.7-5.9,13-12.4c0.3-7,0.2-14.1,0.1-21.2c0-2.8-1.8-4.4-4.4-4.5C329,282.3,324.5,282.4,319.6,282.4z"
			/>
		<path d="M246.4,334.5c-2-2-4.2-4.1-6.4-6.3c9.1-10.9,38.7-11,49.5-0.2c-1.1,1.1-2.2,2.2-3.2,3.3c-1,1.1-2,2.2-2.9,3.3
			C270.9,328,258.7,327.9,246.4,334.5z"/>
		<path d="M196.3,328.2c-2.2,2.1-4.4,4.2-6.5,6.3c-12.1-6.5-24.1-6.5-36.5,0.1c-2-2-4.1-4.2-6.2-6.4
			C155,317.2,186.9,317.2,196.3,328.2z"/>
		<path d="M203.2,394.4c-2.2-2.1-4.4-4.2-6.6-6.3c8.4-9.7,34.2-9.7,43.1-0.1c-2.3,2.1-4.5,4.1-6.8,6.3
			C223.2,389.2,213.2,389.1,203.2,394.4z"/>
	</g>
	<g>
		<path class="st0" d="M411.8,185.3c-0.9,1.9-2.4,3-4.3,3.9c-5.5,2.7-11,5.5-16.5,8.2c-4.3,2.1-7.6,0-7.6-4.8c0-3.4,0-6.8,0-10.4
			c-19.1,8.7-38.2,8.9-57.4,0.2c0.1,6.3-2,11.3-7.7,14.2c-5.6,2.9-11,2-16.1-1.9c-3.4,2.8-7.3,4.1-11.8,3.4
			c-4.4-0.7-7.7-3.2-10.1-7.1c-1,0.5-1.9,1-2.9,1.6c-4.6,2.5-9.3,5-13.9,7.5c-1.9,1.1-3.9,1.4-5.8,0.1c-1.9-1.4-2.2-3.3-1.8-5.5
			c0.9-6,1.8-11.9,2.7-17.9c0.3-2,0.8-3.9,2.1-5.5c0.4-0.4,0.6-0.9,1-1.5c-4-0.9-7.2-2.9-9.3-6.2c-3-4.8-3.4-9.9-0.4-14.8
			c8.4-13.4,16.9-26.7,25.4-40.1c1.7-2.8,4.1-4.7,7.1-6c4.9-2.1,9.8-4.1,14.6-6.4c4.7-2.3,9.4-2.9,14.3-0.5c0.4-0.5,0.7-1,1.1-1.4
			c5.1-7.2,10.1-14.5,15.2-21.7c2.3-3.3,4.7-3.7,8-1.4c4.7,3.3,9.3,6.5,14,9.8c3.1,2.2,3.5,4.7,1.4,7.8c-3.7,5.3-7.4,10.5-11,15.8
			c-0.4,0.5-0.7,1-1.1,1.6c2,1,3.9,1.9,5.9,2.9c8.6,4.2,17.2,8.4,25.8,12.6c1.1,0.5,2.4,0.8,3.6,0.8c9.8,0.1,19.7,0.1,29.5,0
			c2.9,0,5,1,6,3.8C411.8,145.9,411.8,165.6,411.8,185.3z M316.3,141.4c3.5,0.2,6.6-0.3,9.7-1.3c4.2-1.4,7.8-3.9,11-6.8
			c2.1-1.9,4.9-1.6,6.6,0.4c1.7,1.9,1.7,4.8-0.3,6.5c-3,2.5-6.2,4.9-9.6,6.8c-5.3,3-11.2,4-17.3,4c-9.3,0-18.5,0-27.8,0
			c-6.8,0-11.2,5.5-9.8,11.8c1,4.2,4.7,7.1,9.4,7.1c8.6,0,17.2,0.2,25.7-0.1c5.6-0.2,10.6,0.9,15.5,3.6c7,3.8,14.7,5.6,22.7,5.9
			c10.6,0.4,20.5-2.2,29.9-7c1-0.5,1.3-1.1,1.3-2.1c0-12.1,0-24.3,0-36.4c0-0.6,0-1.1-0.1-1.7c-3.1,0-6.1,0.1-9,0
			c-1.4-0.1-2.8-0.4-4.1-0.9c-11.1-5.4-22.2-10.8-33.3-16.2c-0.5-0.2-0.9-0.4-1.5-0.7C329,123.2,322.7,132.2,316.3,141.4z
			 M307.8,104c-0.1-0.2-0.1-0.3-0.2-0.5c-0.9,0.2-1.8,0.3-2.6,0.6c-5.6,2.4-11.1,4.7-16.6,7.2c-1.1,0.5-2.2,1.4-2.8,2.4
			c-8.4,13.1-16.8,26.3-25.1,39.5c-0.6,0.9-0.8,2.3-0.6,3.4c0.3,2.3,2.3,3.7,4.6,3.7c2.6,0,4.5-1.3,5-3.6c1.4-6,4.7-10.4,10.2-13.3
			c0.7-0.3,1.2-1,1.7-1.6c4.8-6.8,9.6-13.7,14.4-20.5C299.7,115.5,303.7,109.8,307.8,104z M392.9,185.9c2.8-1.4,5.4-2.8,8.1-4
			c1.1-0.5,1.4-1.1,1.4-2.3c0-15.3,0-30.6,0-45.9c0-0.6,0-1.1,0-1.6c-3.3,0-6.3,0-9.4,0C392.9,150,392.9,167.8,392.9,185.9z
			 M324.5,96.6c-10.5,14.9-20.8,29.8-31.4,44.9c3.6,0,6.7-0.1,9.9,0c1.2,0,1.9-0.3,2.6-1.3c8.5-12.3,17.1-24.5,25.7-36.8
			c0.3-0.4,0.6-0.9,0.9-1.4C329.6,100.2,327.1,98.4,324.5,96.6z M266.6,187.6c4.9-2.9,10.6-4.4,12.6-10.1c-2.3-2-4.6-4-7-6.1
			c-0.5,0.7-1.2,1.6-1.8,2.6c-0.8,1.1-1.9,2.2-2.1,3.4C267.5,180.7,267.1,184,266.6,187.6z M330,88.8c2.6,1.8,5.1,3.6,7.7,5.4
			c1.8-2.6,3.6-5.1,5.4-7.8c-2.6-1.8-5.1-3.6-7.8-5.4C333.6,83.7,331.8,86.2,330,88.8z M307,179.4c0,1.8-0.1,3.6,0,5.3
			c0.2,2.4,2.2,4.1,4.6,4.1c2.4,0,4.5-1.6,4.7-4c0.2-1.7,0-3.5,0-5.4C313.2,179.4,310.2,179.4,307,179.4z M297.5,179.3
			c-2,0-3.9,0.1-5.7,0c-1.7-0.2-2.8,0.4-3.3,1.9c-0.4,1-0.5,2.1-0.4,3.2c0.1,2.5,2.2,4.4,4.7,4.4c2.5,0,4.6-1.8,4.7-4.4
			C297.5,182.8,297.5,181.2,297.5,179.3z"/>
		<path class="st1" d="M316.3,141.4c6.4-9.2,12.8-18.2,19.1-27.3c0.6,0.3,1,0.5,1.5,0.7c11.1,5.4,22.2,10.9,33.3,16.2
			c1.2,0.6,2.7,0.9,4.1,0.9c2.9,0.1,5.9,0,9,0c0,0.6,0.1,1.2,0.1,1.7c0,12.1,0,24.3,0,36.4c0,1.1-0.3,1.6-1.3,2.1
			c-9.4,4.8-19.3,7.4-29.9,7c-8-0.3-15.7-2.1-22.7-5.9c-4.9-2.7-9.9-3.8-15.5-3.6c-8.6,0.3-17.1,0.1-25.7,0.1
			c-4.7,0-8.5-2.9-9.4-7.1c-1.5-6.3,3-11.8,9.8-11.8c9.3,0,18.5,0,27.8,0c6.1,0,12-1,17.3-4c3.4-1.9,6.5-4.4,9.6-6.8
			c2.1-1.7,2-4.6,0.3-6.5c-1.7-2-4.6-2.3-6.6-0.4c-3.3,3-6.8,5.4-11,6.8C322.9,141,319.8,141.6,316.3,141.4z"/>
		<path class="st1" d="M307.8,104c-4,5.8-8.1,11.5-12.1,17.3c-4.8,6.8-9.6,13.7-14.4,20.5c-0.4,0.6-1,1.3-1.7,1.6
			c-5.5,2.9-8.8,7.3-10.2,13.3c-0.5,2.3-2.4,3.6-5,3.6c-2.3,0-4.3-1.4-4.6-3.7c-0.1-1.1,0-2.5,0.6-3.4c8.3-13.2,16.7-26.4,25.1-39.5
			c0.6-1,1.7-1.9,2.8-2.4c5.5-2.5,11-4.9,16.6-7.2c0.8-0.3,1.8-0.4,2.6-0.6C307.6,103.7,307.7,103.8,307.8,104z"/>
		<path class="st1" d="M392.9,185.9c0-18.1,0-35.9,0-53.8c3.1,0,6.1,0,9.4,0c0,0.5,0,1.1,0,1.6c0,15.3,0,30.6,0,45.9
			c0,1.1-0.3,1.8-1.4,2.3C398.3,183.1,395.7,184.5,392.9,185.9z"/>
		<path class="st1" d="M324.5,96.6c2.6,1.8,5.1,3.6,7.7,5.4c-0.3,0.5-0.6,0.9-0.9,1.4c-8.6,12.3-17.2,24.5-25.7,36.8
			c-0.7,1-1.4,1.3-2.6,1.3c-3.2-0.1-6.4,0-9.9,0C303.7,126.4,314.1,111.5,324.5,96.6z"/>
		<path class="st1" d="M266.6,187.6c0.5-3.6,0.9-6.9,1.6-10.2c0.3-1.2,1.4-2.3,2.1-3.4c0.6-0.9,1.3-1.9,1.8-2.6
			c2.4,2.1,4.7,4.1,7,6.1C277.2,183.3,271.5,184.7,266.6,187.6z"/>
		<path class="st1" d="M330,88.8c1.8-2.6,3.6-5.1,5.4-7.7c2.6,1.8,5.1,3.6,7.8,5.4c-1.8,2.6-3.6,5.1-5.4,7.8
			C335.1,92.4,332.6,90.7,330,88.8z"/>
		<path class="st1" d="M307,179.4c3.2,0,6.2,0,9.4,0c0,1.8,0.1,3.6,0,5.4c-0.2,2.4-2.3,4-4.7,4c-2.4,0-4.4-1.7-4.6-4.1
			C306.9,183,307,181.3,307,179.4z"/>
		<path class="st1" d="M297.5,179.3c0,1.9,0.1,3.5,0,5.1c-0.2,2.5-2.2,4.4-4.7,4.4c-2.5,0-4.6-1.9-4.7-4.4c0-1.1,0.1-2.2,0.4-3.2
			c0.5-1.5,1.6-2.1,3.3-1.9C293.6,179.5,295.4,179.3,297.5,179.3z"/>
	</g>
	<g>
		<g>
			<path class="st2" d="M175,196.5c0,0,0.9,0.3,2.4,0.7"/>
			<path class="st3" d="M182.2,198.6c7.9,2.2,20.1,5.7,26,7.5c9.1,2.7,15.4,0,15.4,0l33.2-6.8"/>
			<line class="st2" x1="259.3" y1="198.8" x2="261.7" y2="198.3"/>
		</g>
	</g>
</g>
</svg>
