<?xml version="1.0" encoding="utf-8"?>
<!-- Generator: Adobe Illustrator 27.2.0, SVG Export Plug-In . SVG Version: 6.00 Build 0)  -->
<svg version="1.1" id="Layer_1" xmlns="http://www.w3.org/2000/svg" xmlns:xlink="http://www.w3.org/1999/xlink" x="0px" y="0px"
	 viewBox="0 0 500 500" style="enable-background:new 0 0 500 500;" xml:space="preserve">
<g>
	<path d="M126.2,331.9c8.5-1.4,16.5-2.7,24.6-4.1c14.2-2.5,28.3-5.3,42.6-7.6c4.6-0.7,9.5-0.4,14.2-0.3c10.9,0.2,21.7,0.1,32.5,0.8
		c17.9,1.1,30.5,10.4,37.9,26.6c1.1,2.4,1.8,4.9,2.9,7.7c6.6-2.4,13.2-4.7,19.8-7.1c19.9-7.1,39.7-14.4,59.6-21.4
		c13.6-4.8,27.7,2.9,31.2,16.7c2.4,9.8-2,19.6-11.6,24.8c-19.5,10.5-39.1,20.8-58.7,31.1c-18.4,9.7-36.9,19.1-55,29.3
		c-14.4,8.1-28.9,9.3-44.6,5c-23.2-6.3-46.6-12.5-70-17.8c-7.3-1.7-15.3-0.6-23-0.5c-0.8,0-2.1,1.7-2.3,2.8
		c-0.4,2.1-0.1,4.2-0.1,6.3c-0.2,4-1.9,6.1-5.9,6.2c-11.7,0.2-23.5,0.2-35.2,0c-4-0.1-6.1-2.4-6.1-6.5c0-32.7,0-65.4,0-98.1
		c0-4.6,2.2-6.7,7.1-6.7c11,0,22,0,32.9,0c5.3,0,7.1,1.9,7.2,7.2C126.2,328.1,126.2,329.8,126.2,331.9z M269,359.3
		c-0.6-11.7-13.9-25.8-26.9-26.4c-18.7-1-37.4-2.9-56.2,1.1c-18.6,3.9-37.4,6.7-56.2,9.7c-3,0.5-3.6,1.5-3.6,4.2
		c0.1,17.2,0,34.4,0.1,51.6c0,1,0.1,1.9,0.1,1.8c9.4,0.7,18.6,0.3,27.3,2.3c22.6,5.1,45.2,10.7,67.5,17.2
		c15.2,4.5,28.5,3.2,42.5-4.7c23.8-13.5,48.4-25.5,72.7-38.2c12.2-6.4,24.5-12.8,36.7-19.2c3.7-1.9,6.6-4.4,6.9-9
		c0.6-9.2-7.6-15-16.7-11.7c-25.8,9.3-51.6,18.6-77.4,28c-2,0.7-3.5,2.4-5.4,3.5c-1.7,0.9-3.5,2-5.3,2c-22.3-0.2-44.7-0.5-67-0.8
		c-4.3-0.1-7.2-2.5-7.2-6c0-3.4,3-5.9,7.2-5.9c9,0.1,18,0.4,26.9,0.4C246.3,359.3,257.5,359.3,269,359.3z M91.1,331.2
		c0,29.3,0,58.3,0,87.3c7.8,0,15.4,0,22.9,0c0-29.2,0-58.2,0-87.3C106.2,331.2,98.8,331.2,91.1,331.2z"/>
	<path d="M235.2,192.5c-36.1-0.8-64.1-28.1-64-64.5c0.1-36.1,28.1-63.8,64.1-63.9c36.2,0,64.2,28,64.2,64.1
		C299.4,164.7,271.2,191.8,235.2,192.5z M269.3,167.7c15.3-13.4,20-29.9,17.5-47.1c-4.4-29.8-31.5-48.9-61-43.3
		c-20.2,3.8-33.9,15.8-39.9,35.3c-6,19.4-1.7,37,12.1,52.1c2.2,2.4,4,2.6,6.6,0.9c2.6-1.7,5.4-3,8.2-4.5c5.4-2.9,6.6-10.4,2.7-15.1
		c-7.2-8.7-11.5-18.4-9.4-30.2c2.7-15.2,16.7-25.7,32.6-24.3c14.6,1.2,26.4,13.9,26.6,28.8c0.1,10.2-3.7,19.1-10.4,26.8
		c-2.9,3.3-2.4,10.9,1,13.1C260.2,162.9,264.9,165.3,269.3,167.7z M235.5,103.5c-8.3-0.1-15.9,5.9-17.4,13.9
		c-1.8,9.3,2.2,16.4,8.5,22.8c6.4,6.4,14.8,4.4,19.9-2.3c2.3-3.1,4.2-6.7,5.5-10.4C256.6,114.3,246.3,103.6,235.5,103.5z
		 M256.9,175.3c-16.1-9.6-13.9-11.3-16.2-19.1c-3.7,0-7.3,0-9.7,0c-2.6,4.4-4.2,8.7-7.2,11.7c-3,3-7.2,4.8-10.9,7.2
		C225.6,181.8,244.9,182,256.9,175.3z"/>
	<path d="M142.5,175.8c35.7,0.1,64.1,28.8,63.8,64.3c-0.3,35.6-28.7,63.9-64,63.8c-35.4-0.1-64.3-29.1-64-64.4
		C78.5,204.1,107.2,175.7,142.5,175.8z M194.5,239.7c-0.1-29.1-23.4-52.3-52.3-52.1c-28.9,0.3-52,23.4-52,52.1
		c-0.1,28.7,23.5,52.3,52.3,52.3C171.3,292,194.6,268.7,194.5,239.7z"/>
	<path d="M121.5,258.2c-0.1-6.2,1.8-8.5,5.4-8.7c3.8-0.2,5.8,2,6.5,7c0.6,4.7,3.9,7.7,8.4,7.9c4.9,0.2,8.6-2.7,9.5-7.2
		c0.9-4.4-1.6-9.1-5.9-10.4c-2.2-0.7-4.7-0.6-7-1.1c-9-1.8-15.8-8.7-16.9-17.2c-1.2-9.3,3.2-18.2,11.5-22.5c1.9-1,3.2-1.9,3.9-4.3
		c0.5-1.7,3.2-3.3,5.2-3.8c2.6-0.7,5,0.8,5.7,3.6c0.5,2.3,1.9,3.3,3.9,4.3c7.3,3.6,11.1,9.8,11.6,17.8c0.3,4.1-2,6.7-5.7,6.9
		c-3.4,0.1-5.8-2.2-6.2-6.1c-0.7-6.1-4-9.1-9.8-8.8c-4.5,0.2-8.3,4.5-8.4,9.4c-0.1,5.3,3.5,9,9.1,9.4c11.3,0.8,18.6,7,20.7,17.5
		c1.8,9.1-3.2,18.2-12.8,23c-1,0.5-1.8,1.8-2.2,3c-1,2.8-2.9,4.4-5.8,4.4c-3.1,0-5-1.7-5.9-4.7c-0.4-1.1-1.6-2.3-2.7-2.8
		C126.3,270.9,122.1,264.9,121.5,258.2z"/>
	<g>
		<path d="M275.5,227.1c2.9-35.3,31.6-62.4,64-66.2c33.5-4,63.3,14.9,75.8,42.8c12.8,28.6,6.1,62-17.1,83.6
			c-22.5,21-59.1,27.3-90.3,7.3l-11.8-10.2c-2.4-2.1-4.2-4.9-6.4-7.2c-0.6-0.6-1.7-1.1-2.5-1c-4.8,0.6-9.6,1.3-14.3,2
			c-2,0.3-3.8,0.1-5-1.6c-1.3-1.9-0.7-3.7,0.5-5.4c3.1-4.6,6.3-9.3,9.3-14c0.5-0.8,0.8-2,0.6-3c-0.8-5.3-1.8-10.5-2.8-15.7
			L275.5,227.1z M397.7,191.2c-5.5,10.4-10.8,20.4-16.2,30.3c-0.9,1.7-2.4,3.3-4,4.3C366,233,354.5,240,343.1,247
			c-0.8,0.5-1.5,1-2.9,1.9c1.5,1.2,2.5,2.2,3.8,2.9c7.4,4,10.6,12.9,7.3,20.7c-3.4,7.9-12.1,11.8-20.2,9
			c-8.2-2.8-12.6-11.3-10.3-19.8c0.5-1.7,0.7-3.3-1.3-3.9c-2.6-0.8-5-2.1-6.1-4.6c-1-2.3-1.2-4.9-1.8-7.6c0.3,0,0.1,0-0.1,0
			c-5.4,0.5-9.3-1.5-11-5.8c-1.8-4.4-0.3-8.6,4.1-11.9c4.4-3.3,8.8-6.6,13.2-9.9c0.8-0.6,1.5-1.5,2.1-2.4
			c7.1-12.3,14.1-24.6,21.2-37c0-0.1,0.1-0.1,0.1-0.2c1.3-1.6,3-2.3,4.9-1.3c1.9,0.9,2.7,2.5,2.3,4.6c-0.1,0.8-0.5,1.6-0.7,2.4
			c-1.4,4.7-2.8,9.5-4.3,14.4c3.8-2,6.1-4.5,6.9-8.7c1.1-6.3,3-12.5,4.6-18.7c0.2-0.6,0.2-1.3,0.4-2.6c-5.5,0.3-10.8,0.1-15.9,0.8
			c-39.8,5.6-64.9,45.6-52.8,84c0.8,2.6,0.7,4.7-1,6.9c-2,2.7-3.7,5.5-5.9,8.8c2.8-0.4,5-0.5,7.1-1c3.9-1,6.4,0.2,9,3.6
			c15.5,20.6,36.3,29.9,61.9,26.4c37.8-5.1,62.5-41.4,54.3-78.6C409.7,208.9,405,199.6,397.7,191.2z M377.7,175.1
			c-0.4,1.1-0.6,1.6-0.7,2.2c-2.5,10.2-5.2,20.3-7.6,30.5c-0.6,2.6-1.9,4.5-4.1,6.1c-14.4,10.7-28.7,21.5-43.1,32.3
			c-0.5,0.4-1.2,0.8-1.6,1.3c-0.3,0.4-0.6,1.2-0.4,1.5c0.2,0.4,1,0.9,1.4,0.8c1.2-0.3,2.4-0.7,3.5-1.3c15.7-9.6,31.4-19.3,47.1-29
			c0.8-0.5,1.6-1.1,2-1.8c5.8-10.8,11.6-21.6,17.6-32.9C387.2,181.6,382.6,178.4,377.7,175.1z M363.5,170.3c-0.3,1.1-0.5,2-0.8,2.9
			c-2,7.9-3.9,15.9-6.1,23.8c-0.4,1.4-1.4,2.9-2.5,3.8c-4.4,3.5-8.9,6.7-13.3,10.1c-0.6,0.5-1.4,1.1-1.7,1.8
			c-0.9,2.7-1.5,5.5-2.3,8.3c0.5,0,0.7,0,0.8-0.1c7.5-4.6,15-9.2,22.5-13.8c0.6-0.4,1.2-1.1,1.3-1.7c2.8-11,5.5-22.1,8.4-33.4
			C367.7,171.5,365.7,170.9,363.5,170.3z M328.3,256.1c1.9,2.7,1.5,5.2,0.3,7.8c-0.5,1.2-0.4,2.9-0.1,4.2c0.9,3.8,4.4,6.3,8.3,6.1
			c3.7-0.2,6.9-3.1,7.6-6.7c0.7-3.7-1.4-7.6-5.2-8.9c-2.2-0.7-3.6-2-4.5-4c-0.2-0.6-0.7-1.1-1.1-1.7
			C331.9,253.9,330.3,254.9,328.3,256.1z M316.3,229.3c-2.7,2-5,3.7-7.3,5.5c-0.5,0.4-0.7,1.3-1,2c0.8,0.2,1.7,0.8,2.4,0.6
			C314.3,236.6,316,234.4,316.3,229.3z M330.3,212.3c-2.9,5.2-4.7,10.5-5.1,16.4c1.2-0.8,2.8-1.8,3-2.9
			C329.1,221.5,329.6,217,330.3,212.3z"/>
	</g>
</g>
</svg>
