<?xml version="1.0" encoding="utf-8"?>
<!-- Generator: Adobe Illustrator 27.2.0, SVG Export Plug-In . SVG Version: 6.00 Build 0)  -->
<svg version="1.1" id="Layer_1" xmlns="http://www.w3.org/2000/svg" xmlns:xlink="http://www.w3.org/1999/xlink" x="0px" y="0px"
	 viewBox="0 0 500 500" style="enable-background:new 0 0 500 500;" xml:space="preserve">
<style type="text/css">
	.st0{stroke:#000000;stroke-width:3;stroke-miterlimit:10;}
</style>
<g>
	<g>
		<path d="M334.1,58.9c5.3,4.9,10.6,9.9,16.2,15.1c2-2.2,4-4.4,6.1-6.5c3.9-3.8,7.3-3.6,10.5,0.7c4.1,5.3,8.1,10.7,12,16.2
			c1.5,2.1,2.8,2.8,5.2,1.7c2.7-1.2,5.5-1.9,8.3-2.9c5.3-1.8,7.3-0.9,9.8,4c2.7,5.4,5.4,10.8,8.1,16.3c1.9-1,3.6-1.9,5.4-2.7
			c5.3-2.6,9.2-0.1,9.4,5.8c0.4,10.3,0,20.7,1.7,30.7c2.1,11.8,4.9,23.8,9.5,34.8c7.9,18.8,7.1,36.9-0.3,55.1
			c-3.7,9.1-8.4,17.9-13.4,26.5c-2.4,4.2-3.7,8.3-3.8,13.1c-0.5,15.8-2.7,31.3-7.2,46.5c-6.2,20.4-17.6,37.1-34.8,49.6
			c-2.9,2.1-4,4.2-3.9,7.9c0.3,10.2,0.1,20.3,0.1,30.5c0,1.3,0,2.5-0.2,3.7c-0.6,2.8-2.6,4.3-5.3,4.4c-2.6,0.1-4.7-1.2-5.5-3.8
			c-0.5-1.5-0.5-3.1-0.6-4.7c0-8.7,0-17.3,0-26.7c-1.4,0.9-2.4,1.4-3.4,2.1c-7.7,5.3-15.1,10.9-23,15.7c-13.1,8-26.7,8-39.8,0
			c-7.8-4.8-15.2-10.3-22.7-15.5c-1-0.7-2-1.3-3.6-2.3c0,5.4,0,10.3,0,15.1c0,4.5,0.1,8.9,0,13.4c-0.1,4.3-2.6,6.9-6,6.8
			c-3.4-0.2-5.5-2.7-5.5-6.9c-0.1-11.1-0.1-22.2,0-33.2c0-2.4-0.6-4-2.6-5.4c-24.5-17.3-36.5-42-40.6-71
			c-1.4-10.1-1.9-20.4-2.9-30.6c-0.2-1.8-0.9-3.8-1.8-5.3c-8.4-13.4-15.7-27.2-19.3-42.7c-3-13.1-2.6-25.9,2.7-38.6
			c8.7-20.7,13.3-42.4,12.5-65c-0.1-1.7-0.1-3.4,0-5.1c0.3-4.5,4-7,8.1-5.3c2.2,0.9,4.3,2,6.6,3.2c2.6-5.1,5-10.1,7.5-15.1
			c3.3-6.6,4.7-7.2,11.7-4.9c2.3,0.8,4.6,1.3,6.7,2.3c2.7,1.4,4.2,0.3,5.7-1.9c3.6-5.2,7.5-10.3,11.4-15.4c3.8-5.1,7-5.3,11.4-0.7
			c1.9,1.9,3.7,4,5.6,6c5.6-5.2,10.9-10.2,16.2-15.1c1.1,0,2.3,0,3.4,0c5.2,4.9,10.4,9.9,15.6,14.8c5.3-5,10.4-9.9,15.6-14.8
			C331.8,58.9,333,58.9,334.1,58.9z M408.7,232.2c-0.2,0-0.5,0-0.7,0c0-12.2,0.3-24.5-0.1-36.7c-0.2-4.9-1-10.1-3-14.5
			c-4.9-10.8-17.3-16-29.1-13.3c-10.2,2.3-20.4,5.2-30.8,6.3c-30.1,3.4-60,3-89.4-6.1c-5.1-1.6-10.3-1.3-15.4,0.4
			c-11.4,3.7-17.5,12.7-17.6,26.3c-0.1,17.2-0.3,34.5-0.2,51.7c0.1,16.8,0.5,33.6,3.7,50.1c4,20.7,11.9,39.5,28.8,52.8
			c14.4,11.3,29.6,21.7,44.7,32.1c10.1,6.9,20.8,6.8,30.9-0.1c14-9.5,27.9-19.1,41.3-29.3c6-4.6,11.5-10.4,16.1-16.5
			c11.6-15.5,16.2-33.8,18-52.7C407.5,266,407.8,249.1,408.7,232.2z M210.9,234.9c0-1.2,0-2.4,0-3.5c0.1-12.1,0.2-24.2,0.2-36.3
			c0-6.4,0.9-12.5,3.5-18.3c7.6-16.9,27.5-25.4,46.1-19.7c3.8,1.2,7.5,2.7,11.4,3.2c12.6,1.5,25.1,3.1,37.7,3.6
			c20.8,0.8,41.5-0.7,61.7-6.9c13-4,25.4-1,35.8,8c8.8,7.6,12.2,17.9,12.3,29.3c0.1,12.6,0,25.1,0,37.7c0,1,0.1,2,0.2,3
			c2.9-5.2,5.3-10.4,7.2-15.7c4.6-13.6,5.3-27-0.7-40.7c-6-13.7-9.9-28.2-11.5-43.1c-0.7-6.5-1-13.1-1.5-19.7
			c-8.2,2.5-8.6,2.3-12.6-5.7c-2.4-4.9-4.8-9.7-7.3-14.7c-3.3,1.1-6.3,2.1-9.3,3.1c-6.8,2.3-7.6,2-11.9-3.8
			c-3.7-5-7.4-9.9-11.3-15.2c-1.9,2-3.4,3.7-5,5.3c-4.5,4.6-7.1,4.5-11.7,0c-3.8-3.8-7.6-7.7-11.6-11.8c-4,4.2-7.7,8-11.5,11.8
			c-4.5,4.6-7.1,4.5-11.7-0.1c-3.8-3.8-7.6-7.7-11.6-11.8c-4.3,4.5-8.2,8.6-12.3,12.6c-3.6,3.6-6.6,3.6-10.2-0.1
			c-1.9-1.9-3.4-4.2-5.2-6.4c-1,1.2-1.1,1.3-1.3,1.5c-3.9,5.2-7.7,10.4-11.6,15.6c-3,4-4.5,4.4-9.3,2.9c-3.6-1.2-7.2-2.4-10.5-3.5
			c-0.5,0.4-0.6,0.5-0.6,0.6c-2.2,4.5-4.5,9-6.7,13.4c-4.3,8.6-4.3,8.6-13.1,6.2c-0.1,0.5-0.2,0.9-0.2,1.3
			c0.1,21.7-4.7,42.3-12.9,62.2c-3.9,9.4-5.1,18.8-3.3,28.8C202.2,217.6,205.6,226.5,210.9,234.9z"/>
	</g>
	<g>
		<path class="st0" d="M200.3,346.1c2.1,0,4.1,0,6.6,0c-0.2,3.2-0.2,6.3-0.6,9.4c-4.9,34.7-23.3,59.4-55.9,71.5
			c-30.8,11.5-59.6,5.7-84.9-15.6c-16.2-13.6-25.9-31.4-28.9-52.4c-4.1-28.8,4.2-53.9,24.6-74.5c16.6-16.7,36.9-24.8,60.3-24.9
			c10.1-0.1,20.1,0,30.5,0c0-2.1,0-4.2,0-6.3c0.1-3.6,2.6-5.1,5.6-3.3c5.5,3.2,10.9,6.5,16.3,9.9c2.8,1.7,2.7,4.6-0.1,6.4
			c-5.4,3.3-10.8,6.6-16.3,9.9c-2.9,1.7-5.5,0.2-5.5-3.2c0-2,0-4,0-6.2c-0.6-0.1-1.1-0.2-1.7-0.2c-10.1,0-20.1-0.1-30.2,0
			C84.8,266.9,53.9,291.4,45,326c-11.6,45,17.3,90.1,62.8,98.3c42.6,7.6,83.6-21.5,91-64.6C199.5,355.2,199.8,350.7,200.3,346.1z"/>
		<path class="st0" d="M63,346c0-32.4,26.2-58.8,58.3-58.8c32.1,0,58.2,26.5,58.2,58.9c-0.1,32.3-26.1,58.6-58.2,58.7
			C89.2,404.8,63,378.4,63,346z M124.8,304.5c-2.5,0-4.7,0-7.1,0c0-3.3,0-6.5,0-10c-13.9,1.2-25.3,6.8-34.5,17
			c-7.8,8.7-12.1,18.9-12.9,31c3.5,0,6.7,0,9.8,0c0,2.5,0,4.7,0,7.1c-3.3,0-6.5,0-9.7,0c0,1.1-0.1,1.9,0,2.6
			c1.5,10.9,5.7,20.4,13.1,28.5c8.6,9.5,19.3,14.7,31.8,16.4c1.7,0.2,2.4-0.3,2.3-2.2c-0.2-2.5,0-5,0-7.6c2.5,0,4.8,0,7.2,0
			c0,2.6,0,5,0,7.5c0,2.4,0.3,2.6,2.6,2.3c0.4-0.1,0.8-0.2,1.3-0.3c21.5-3.9,35.4-16.5,41.8-37.5c0.9-3.1,1.2-6.3,1.9-9.8
			c-2.2,0-3.8,0-5.3,0c-1.5,0-3.1,0-4.6,0c0-2.6,0-4.9,0-7.2c1.5,0,2.7,0,4,0c6,0,6.2-0.1,5-6c-4.4-20.9-17-34.3-37.2-40.4
			c-2.9-0.9-6.1-1.1-9.4-1.7C124.8,298.1,124.8,301.2,124.8,304.5z"/>
		<path class="st0" d="M206.8,332.3c0,2.3,0,4.4,0,6.6c-2.2,0-4.3,0-6.7,0c0-2.1,0-4.3,0-6.6C202.3,332.3,204.5,332.3,206.8,332.3z"
			/>
		<path class="st0" d="M117.7,314.9c2.4,0,4.6,0,7.1,0c0,0.8,0,1.6,0,2.4c0,5.7,0,11.4,0,17.1c0,1.2,0.3,1.9,1.4,2.5
			c4.4,2.4,6.1,6.7,5.3,11.7c-0.1,0.8,0.4,1.9,1,2.4c3.3,2.8,6.6,5.4,10,8.1c0.5,0.4,1.1,0.9,1.7,1.5c-1.5,1.9-2.9,3.7-4.4,5.6
			c-3.9-3.1-7.7-6.1-11.3-9.2c-1.4-1.2-2.6-1.6-4.5-1c-4.8,1.6-10.1-1.1-12.1-5.9c-2.1-4.8-0.5-10.3,4-13c1.6-0.9,2.1-1.9,2-3.7
			C117.6,327.4,117.7,321.3,117.7,314.9z M121.3,349.4c1.8,0,3.3-1.6,3.3-3.3c0-1.8-1.6-3.5-3.4-3.4c-1.8,0-3.4,1.7-3.3,3.6
			C118,347.9,119.6,349.4,121.3,349.4z"/>
	</g>
</g>
</svg>
