<?xml version="1.0" encoding="utf-8"?>
<!-- Generator: Adobe Illustrator 27.2.0, SVG Export Plug-In . SVG Version: 6.00 Build 0)  -->
<svg version="1.1" id="Layer_1" xmlns="http://www.w3.org/2000/svg" xmlns:xlink="http://www.w3.org/1999/xlink" x="0px" y="0px"
	 viewBox="0 0 500 500" style="enable-background:new 0 0 500 500;" xml:space="preserve">
<g>
	<path d="M58.4,288.9c0.7-1,1.5-1.9,2.1-3c17.6-30.4,35.1-60.9,52.7-91.3c3.5-6.1,5.7-6.7,11.7-3.2c12.2,7,24.4,14.1,36.6,21.1
		c7.3,4.2,7.7,5.4,4,12.9c-0.1,0.3-0.1,0.7-0.2,1.2c9.8,0,19.5-0.1,29.2,0.1c4.8,0.1,9.1-0.8,13.2-3.3c3-1.8,6.2-3.2,9.3-4.8
		c7.4-4,15-4.3,22,0.3c6.7,4.4,12.6,5.3,19.6,0.6c5-3.3,10.9-2.7,16.6-0.8c14,4.7,28.2,9,42.1,14.2c7.3,2.7,13.6,1.6,20.3-2.1
		c-1.4-2.4-2.9-4.8-4.2-7.3c-2.3-4.1-1.6-7.2,2.4-9.5c13.6-7.9,27.2-15.7,40.8-23.5c3.9-2.3,6.9-1.5,9.2,2.4
		c18.2,31.5,36.4,63,54.6,94.5c2.3,4.1,1.5,7-2.7,9.4c-13.5,7.8-26.9,15.6-40.5,23.4c-4.1,2.4-7,1.5-9.5-2.5c-1.5-2.5-3-5.1-4.6-8
		c-11.1,6.4-21.9,12.6-32.8,18.8c9.9,17,0.2,36.7-20.5,37.7c-2.9,16.9-9,23-25,24.7c-0.2,7.5-2.6,14-8.5,19c-5.8,5-12.6,6.2-20,5.3
		c-0.4,1.3-0.8,2.4-1.2,3.4c-4.8,12.8-20.6,17.1-31.1,8.3c-2-1.7-3.5-2-6-1.5c-9.1,1.9-18.5-3.4-21.9-12.3c-0.4-1.1-0.8-2.3-1.2-3.5
		c-19.1-0.5-24.4-4.9-28.9-24.5c-17.1-3.1-22.4-8.4-24.7-25.1c-7.6-0.1-14.3-2.7-19.2-8.8c-4.9-6.1-6.2-13.1-4.5-21.2
		c-7.9-4.7-15.9-9.4-24.2-14.2c-0.6,0.9-1.2,1.6-1.8,2.4c-2.2,3-4.9,4-8.1,2.2c-14.2-8.1-28.3-16.2-42.4-24.5
		c-1.1-0.7-1.9-1.9-2.9-2.8C58.4,291.9,58.4,290.4,58.4,288.9z M205.4,316.7c16,1.9,21.8,7.7,24.9,25.1c6.9,0,13.1,2.3,18.1,7.3
		c0.4,0.4,1.4,0.6,2,0.5c3.6-0.8,7.2-1.8,10.8-2.7c0.6-12.5,8-23.5,25-24.5c0.1-10,4.6-17.6,13.8-22.6c-10-7.5-19.8-14.6-29.2-22.1
		c-4.5-3.6-9.3-5.3-15.1-5.4c-4.5-0.1-7.7,1.3-9.9,5.2c-2.8,4.7-5.6,9.4-8.5,14.1c-3.2,5.2-7.8,7.4-13.9,6.7
		c-4.2-0.5-8.4-1-12.6-1.6c-9.8-1.4-14.6-8.7-12-18.3c2.1-7.6,4.5-15,6.3-22.7c1.9-7.9,6.4-13.3,13.7-16.6
		c5.5-2.5,10.9-5.3,16.7-8.2c-4.4-3.2-8.3-4.2-12.9-1.6c-3.6,2-7.3,3.7-10.9,5.7c-4.7,2.6-9.6,3.8-15,3.7c-11.7,0-23.4,0.2-35.2,0.2
		c-2.7,0-4.2,0.8-5.6,3.2c-11.5,20.1-23.1,40.2-34.7,60.3c-0.6,1-1.1,2.1-1.8,3.3c7.5,4.4,14.6,8.4,21.6,12.7c2.1,1.3,3.3,1.2,5-0.6
		c6.3-6.5,12.7-13.1,19.3-19.3c12.8-12,33.6-6.4,38.6,10.3C204.7,311.2,204.9,313.9,205.4,316.7z M343.9,241.8
		c-1.9,0.7-3.6,1.2-5.1,1.9c-8.4,3.9-16.6,3.8-25.4,0.6c-13.8-5-27.8-9.5-41.8-13.8c-2.5-0.8-5.9-0.9-8.2,0.1
		c-13.9,6.5-27.6,13.3-41.2,20.3c-2,1-4,3.3-4.7,5.4c-2.7,8.3-4.8,16.7-7.3,25.1c-0.7,2.4,0.1,3.2,2.3,3.4c3.6,0.4,7.2,0.7,10.7,1.4
		c2.2,0.4,3.4-0.3,4.5-2.2c2.8-4.8,5.7-9.6,8.8-14.3c3.5-5.4,8.6-8.8,15.1-9.2c9.3-0.5,18.2,0.3,25.5,7.2c1.1,1,2.4,1.8,3.6,2.7
		c20.4,16.2,42.9,29.6,60.6,49c0.1,0.1,0.2,0.1,0.6,0.3c11.6-6.7,23.3-13.4,35.2-20.2C365.9,280,354.9,260.9,343.9,241.8z
		 M342.4,340.7c-0.6-1.3-1.4-4.2-3.2-6.2c-7.1-7.5-14.4-14.8-21.9-22c-4.5-4.3-11.5-4-15.9,0.3c-4.3,4.2-5,11-0.8,15.5
		c7.4,7.9,15.1,15.5,22.9,23c3.4,3.2,7.9,3.5,12.2,1.4C340.2,350.7,342.2,347,342.4,340.7z M218,342.2c-0.3-6.7-2.5-10.3-7-12.3
		c-4.7-2.1-9.1-1.2-12.8,2.3c-7.1,6.9-14,13.8-20.9,20.9c-4.8,4.9-4.8,11.9-0.4,16.5c4.5,4.6,11.9,4.7,16.8-0.1
		c7-6.8,13.9-13.6,20.5-20.7C216.2,346.7,217.2,343.6,218,342.2z M317.6,366c-0.5-1.2-1-4.1-2.6-5.8c-7.4-7.9-15-15.6-23-23
		c-4.5-4.2-11.4-3.3-15.5,1.1c-4,4.3-4.5,11-0.4,15.3c7.3,7.7,14.8,15.2,22.4,22.5c3.4,3.2,7.8,3.7,12.2,1.7
		C315.1,375.7,317.3,372.2,317.6,366z M243,367.1c-0.3-6.6-2.4-10.3-7-12.3c-4.7-2-9.1-1.3-12.8,2.3c-6.9,6.8-13.8,13.7-20.6,20.6
		c-5.2,5.2-5.4,12.2-0.7,17c4.8,4.8,12.1,4.5,17.3-0.7c6.5-6.5,13.2-12.9,19.4-19.6C240.8,371.9,242.1,368.7,243,367.1z
		 M161.8,348.2c1.1-0.5,3.9-0.9,5.5-2.5c8-7.5,15.8-15.2,23.3-23.2c4.1-4.4,3.2-11.1-1-15.2c-4.3-4.1-11-4.8-15.3-0.7
		c-7.8,7.3-15.4,14.9-22.7,22.7c-3.3,3.6-3.6,8.1-1.4,12.6C152.2,346.1,155.8,348,161.8,348.2z M254.6,370.2
		c12.5,3.8,17.7,12.3,15.5,24.9c-0.1,0.8-0.3,1.9,0.1,2.4c3,3.9,6.7,6.7,12.1,6.1c4.5-0.5,7.7-2.8,9.4-6.9c1.9-4.7,1.1-9.1-2.5-12.8
		c-6.9-7-13.9-14-20.9-20.9c-3.3-3.2-7.2-4.4-11.7-2.9c-0.9,0.3-1.9,1.6-2,2.5C254.4,365,254.6,367.5,254.6,370.2z M259,390.9
		c-0.3-4.1-1.6-6.7-4.7-8.1c-3.3-1.5-6.4-0.8-8.9,1.7c-5.3,5.2-10.6,10.5-15.8,15.9c-3.5,3.6-3.7,8.1-0.5,11.3
		c3.2,3.3,7.8,3.2,11.6-0.5c5.2-5,10.3-10.1,15.3-15.3C257.4,394.3,258.2,392.1,259,390.9z M252,417.8c3.2,2.6,6.9,2.6,10-0.2
		c3-2.8,3.2-6.9,0.5-10.4C259,410.7,255.5,414.3,252,417.8z"/>
	<path d="M179.8,137.9c0.8-39.3,32.6-70.4,71.3-69.6c38.9,0.8,69.8,32.8,69.1,71.4c-0.7,38.7-32.9,69.7-71.5,69
		C210.4,208,179,175.8,179.8,137.9z M249.9,80.3c-32.3,0.2-58.4,26.5-58.2,58.5c0.2,32.2,26.6,58.2,58.7,58
		c32-0.2,58.1-26.7,57.8-58.8C307.9,106.2,281.5,80,249.9,80.3z"/>
	<path d="M242.2,144.4c9.8-8,19.2-15.7,28.6-23.4c0.9-0.7,1.7-1.5,2.7-2c2.7-1.4,5.4-1.2,7.4,1.2c2.1,2.5,2,5.3,0,7.8
		c-0.8,1-1.8,1.7-2.8,2.5c-10.5,8.6-21,17.2-31.5,25.8c-5.1,4.1-7.9,3.7-11.7-1.5c-3.7-5-7.4-10-11-15.1c-2.6-3.6-2.2-7.1,0.9-9.2
		c2.8-2,6.3-1.2,8.7,2.1C236.4,136.3,239.1,140.1,242.2,144.4z"/>
</g>
</svg>
