<?xml version="1.0" encoding="UTF-8"?>
<svg id="Layer_1" data-name="Layer 1" xmlns="http://www.w3.org/2000/svg" viewBox="0 0 443.3 370.72">
  <path d="m351.39,276.37c-5.37,6.26-10.49,12.53-15.92,18.51-24.53,26.96-51.75,50.54-85.04,66.22-6.88,3.24-14.24,5.44-21.3,8.31-4.92,2-9.57,1.52-14.54-.05-29.27-9.22-54.55-25.36-76.86-45.89-14.75-13.58-27.95-28.85-41.84-43.37-1.06-1.11-2.02-2.33-3.21-3.72-3.84,2.26-7.55,4.48-11.29,6.64-5.68,3.28-8.88,2.68-12.73-2.73-9.16-12.83-14.74-27.41-19.75-42.16-4.75-14-8.8-28.23-13.16-42.36-.41-1.32-.81-2.64-1.24-4.01-7.61,5.13-11.09,4.47-16.1-3.33-6.7-10.44-9.54-22.3-11.65-34.28C-.92,110.42-.52,66.3.64,22.15c.08-3.12.25-6.23.4-9.35.24-4.97,2.86-8.13,6.99-8.46,3.84-.31,6.76,2.31,8.07,6.94,6.19,21.86,11.82,43.9,18.83,65.5,8.95,27.59,19.8,54.54,36.16,78.72,5.79,8.56,12.96,16.34,20.31,23.66,7.07,7.05,16.23,9.86,26.39,10.17,7.57.24,15.22,1.33,22.6,3.05,10.25,2.4,18.85,8.07,25.88,15.96,3.42,3.84,6.83,7.72,9.95,11.8,9.48,12.39,22.19,18.54,37.52,18.74,9.44.12,18.98-.52,28.33-1.83,8.91-1.25,16.21-6.23,22.16-12.98,3.5-3.98,6.92-8.04,10.22-12.18,11.78-14.77,27.57-22.52,45.97-22.21,19.83.34,33.45-8.84,44.86-23.37,15.17-19.33,25.42-41.35,34.44-63.97,11.49-28.83,20.65-58.4,27.53-88.67.24-1.06.46-2.13.77-3.18,1.21-4.17,4.5-6.72,8.21-6.09,4.26.73,6.62,3.42,6.65,7.75.17,26.81.69,53.63.27,80.44-.36,23.55-2.11,47.1-7.91,70.01-2.3,9.09-5.97,18.02-10.3,26.35-3.97,7.64-8.32,7.91-15.39,2.75-3.23,10.75-5.93,21.59-9.75,32.03-5.82,15.91-12.3,31.58-18.76,47.24-1.4,3.4-3.74,6.47-5.92,9.5-3.7,5.15-6.97,5.76-12.38,2.62-3.75-2.18-7.47-4.43-11.35-6.73Zm76.7-208.26c-.42,1.28-.85,2.57-1.27,3.85-7.98,24.45-17.02,48.48-29.06,71.27-9,17.03-19.26,33.18-33.9,46.07-10,8.81-21.38,15.01-34.98,14.66-20.94-.53-37.22,7.3-48.89,24.74-1.38,2.06-3.22,3.8-4.88,5.67-8.26,9.27-18.5,15.31-30.66,17.59-7.01,1.31-14.2,2.01-21.33,2.27-25.07.9-46.39-6.71-61.28-28.1-10.92-15.69-26.14-22.39-44.95-22.02-12.17.23-22.9-3.98-32.49-11.3-11.96-9.13-21.04-20.79-28.91-33.43-17.01-27.3-28.38-57.09-38.37-87.48-.24-.74-.41-1.51-.7-2.22-.22-.53-.58-1.01-.88-1.51.98,36.21.41,72.44,12.37,108.08,2.25-2.12,3.65-3.55,5.15-4.84,4.98-4.29,10.83-2.61,12.82,3.68.47,1.48.73,3.03,1.12,4.53,6.39,24.58,13.37,48.97,23.3,72.4,2.22,5.24,4.93,10.28,7.54,15.66,4.17-2.47,7.64-4.54,11.12-6.58,6.06-3.55,8.76-3.02,13.12,2.64,14.71,19.09,31.2,36.5,49.61,52.06,19.79,16.73,41.19,30.79,66.11,38.72,2.58.82,5.87.78,8.47-.02,18.06-5.56,34.31-14.73,49.53-25.76,25.32-18.35,47.04-40.39,66.16-65.05,4.35-5.61,7.06-6.14,13.14-2.56,3.48,2.05,6.95,4.12,10.77,6.39,1.26-2.21,2.69-4.1,3.5-6.22,6.46-17.01,13.16-33.94,19.04-51.15,3.82-11.17,6.37-22.78,9.53-34.18,2.07-7.47,8.12-9.19,13.71-3.77,1.17,1.14,1.65,2.98,2.45,4.5.8-.47,1.59-.93,2.39-1.4,11.46-34.76,11.01-70.99,11.62-107.18Z"/>
  <path d="m303.18,68.48c-16.18-.56-31.82-3.66-46.86-9.79-10.1-4.11-20.23-8.14-31.32-8.82-12.37-.76-23.7,3.18-34.8,7.8-14.24,5.93-28.96,9.52-44.32,10.57-29.75,2.03-50.61-12.01-65.64-36.46-1.46-2.38-3.27-4.88-3.63-7.5-.33-2.44.28-6.04,1.92-7.45,1.81-1.55,6.11-2.53,7.87-1.43,15.35,9.59,30.62,5.68,45.86.32,6.59-2.32,13.1-5.05,19.34-8.19,22.77-11.47,44.87-9.34,66.46,2.97,2.97,1.69,4.97,1.66,7.93-.03,21.6-12.33,43.53-14.02,66.53-3.08,11.16,5.31,23.11,9.18,35.03,12.59,9.84,2.81,19.8,1.75,28.74-4.15,3.1-2.04,6.27-1.93,9.06.51,2.76,2.41,3.46,5.49,1.86,8.88-10.01,21.1-31.29,43.87-64.01,43.25ZM101.78,36.11c12.7,13.31,27.02,18.49,43.89,17.15,13.47-1.07,26.53-3.89,38.84-9.52,24.7-11.29,49.33-11.67,74.12-.34,12.45,5.69,25.61,8.67,39.24,9.83,15.78,1.34,29.57-2.98,41.17-13.89.82-.77,1.41-1.78,2.59-3.29-15.17.78-28.48-3.43-41.53-8.69-4.18-1.69-8.39-3.39-12.37-5.52-20.89-11.16-40.54-7.84-59.47,4.78-5.59,3.73-7.01,3.68-12.56-.04-18.75-12.58-38.08-15.6-59.06-4.99-16.71,8.45-34.14,15.25-54.86,14.51Z"/>
</svg>