<?xml version="1.0" encoding="utf-8"?>
<!-- Generator: Adobe Illustrator 27.2.0, SVG Export Plug-In . SVG Version: 6.00 Build 0)  -->
<svg version="1.1" id="Layer_1" xmlns="http://www.w3.org/2000/svg" xmlns:xlink="http://www.w3.org/1999/xlink" x="0px" y="0px"
	 viewBox="0 0 500 500" style="enable-background:new 0 0 500 500;" xml:space="preserve">
<style type="text/css">
	.st0{font-family:'Roboto-Bold';}
	.st1{font-size:24.499px;}
</style>
<g>
</g>
<g>
	<g>
		<path d="M360,250c-3.2-4.8-6.4-9.5-10.1-14.9c0.5,6.9,7,15.5,12.4,17.3c3.3,1.1,10,11.2,9.1,14.4c-1.6,5.5-7,6.5-11.4,8.3
			c-3.5,1.4-5.6-1-7.3-3.9c-19.1-31.2-38.3-62.4-57.5-93.5c-9.9-16.2-20-32.3-30-48.4c-3.5-5.7-3.5-5.7,2.4-8.6c2-1,4-1.9,5.7-3.3
			c3.9-3.3,6.2-2.7,9,1.8c21.1,34.7,42.6,69.3,63.9,103.9c4.5,7.3,9.1,14.5,13.5,21.7c0.8,1.3,1.4,2.8,2,4.2
			C361.2,249.3,360.6,249.7,360,250z"/>
		<path d="M221.6,114.8c4.3,2.1,8.9,4.1,13.3,6.6c2.8,1.6,2.3,4,0.7,6.6c-7.3,11.8-14.5,23.7-21.8,35.6
			c-21.1,34.2-42.1,68.4-63.2,102.6c-0.4,0.7-0.9,1.5-1.3,2.2c-5.4,8.4-13.7,8.6-19.8,0.4c-0.5-0.7-1.1-1.4-1.2-2.2
			c-0.5-2.7,7.3-13.4,10-14.1c1.4-0.4,3.2-0.9,3.8-2c3.4-5.5,9.6-9.9,7.1-17.9c-0.3-0.9,0.3-2.4,0.9-3.3
			c23.5-38.1,47.1-76.1,70.7-114.2C220.8,115.1,221.1,115.1,221.6,114.8z"/>
		<path d="M239.6,196.3c0-23.1,0.1-46.1-0.1-69.2c0-3.3,1-4.1,4-4c3.9,0.2,7.8,0.2,11.7-0.1c3.2-0.2,4.3,1.3,4.4,4.1
			c0.1,2.2,0.2,4.4,0.2,6.6c0,41.7,0,83.4,0,125.2c0,1.9-0.1,3.7-0.1,5.6c0,3.7-1.3,5.7-5.6,5c-3.2-0.5-6.5-0.3-9.6,0
			c-3.7,0.4-4.7-1.1-4.7-4.6c0.1-22.9,0.1-45.8,0.1-68.7C239.7,196.3,239.6,196.3,239.6,196.3z"/>
		<path d="M435.3,396.6c2.5-1.4,5-2.7,7.5-4.1c-0.2-0.6-0.4-1.1-0.6-1.7c-1.6,0.7-3.5,1-4.9,2.1c-3,2.5-4.7,1.8-6.7-1.5
			c-22.3-36.4-44.7-72.8-67-109.2c-0.8-1.3-1.7-2.5-2.7-4c3.3-2.1,6.2-4.4,9.5-5.9c0.8-0.4,3.3,1.6,4.2,3.1
			c13.8,22.2,27.5,44.4,41.2,66.6c2,3.3,5.3,6.3,0.3,9.8c-0.5,0.3-0.3,2.3,0.2,3.2c5.7,9.4,11.3,18.9,17.3,28c1.1,1.6,4.1,2,6.2,3
			c0.1,0.1,0.4-0.2,0.5-0.1c2.8,3.6,6.2,6.9,8.3,10.8c1.2,2.3-4.2,6.5-7.8,6.4C436.7,403,435.4,400.3,435.3,396.6z"/>
		<path d="M139.7,277.9c-24.4,39.5-48.5,78.5-72.5,117.4c-3.4-1.9-6.1-3.3-8.6-4.9c-0.9-0.5-1.4-1.6-2.1-2.4c1-0.7,2.3-2.1,3-1.9
			c4.8,1.6,6.4-1.9,8.3-4.9c5-7.8,9.8-15.7,14.6-23.6c1.5-2.5,2.7-4.9,0.1-7.8c-0.8-0.9-0.6-3.5,0.2-4.7
			c14.2-23.3,28.6-46.5,42.9-69.8c1.8-3,3.4-4.3,6.6-1.4C134,275.7,136.7,276.4,139.7,277.9z"/>
		<path d="M243,349.1c0-14.9,0.1-29.9-0.1-44.8c0-3.2,1.2-4.2,4.2-4.1c9.6,0.1,9.6,0,9.6,9.9c0,27.3-0.1,54.7,0.1,82
			c0,4.8-1.4,6.6-6.1,5.8c-1.5-0.2-3.1,0-4.6-0.1c-2.5-0.1-3.3-1.2-3.3-3.9C243,378.9,242.9,364,243,349.1
			C243,349.1,243,349.1,243,349.1z"/>
		<path d="M265.2,98.2c-9.3,0-18.5,0-27.8,0c-6.8,0-7-0.5-7-7.4c0.1-6.3,0-12.5,0.1-18.8c0-1.3,0.6-2.6,0.9-3.9c0.6,0,1.1,0,1.7-0.1
			c0.4,1.6,1.2,3.1,1.3,4.7c0.2,5.8,0.4,11.5,0.1,17.3c-0.1,3.6,1.4,5,4.7,5c7.3,0,14.6,0,21.9,0.1c2.9,0,3.8-1.4,3.8-4.1
			c-0.1-6.1-0.2-12.2,0-18.3c0.1-1.4,1.5-2.8,2.3-4.3c0.6,1.3,1.8,2.7,1.8,4c-0.1,8.7-0.6,17.5-0.7,26.2c0,2.6,1,5.3,0.7,7.9
			c-0.6,5-3.8,6.2-7.9,3.2c-8.6-6.3-14.4-6.2-23.1,0.2c-1.2,0.9-4.6,1.1-4.8,0.6c-1.1-2.7-1.9-5.6-2.1-8.5c-0.1-0.5,2.5-1.9,3.9-1.9
			c8.5-0.1,17,0.1,25.4,0.1c1.6,0,3.2-0.2,4.8-0.4C265.2,99.3,265.2,98.7,265.2,98.2z"/>
		<path d="M249.5,34.3c-9.3,0-18.7-0.1-28,0.1c-3.9,0.1-4.2-1.7-4.3-5c-0.1-3.5,1.2-4.4,4.4-4.3c18.8,0.1,37.7,0.1,56.5-0.1
			c3.3,0,4.3,1.1,4.4,4.5c0.1,3.5-0.8,4.9-4.5,4.9C268.5,34.2,259,34.3,249.5,34.3z"/>
		<path d="M249.9,37c9.3,0,18.6,0.1,28,0c2.7,0,4.7,0.2,4.6,3.7c-0.1,3.1-0.3,5.6-4.6,5.6c-18.5-0.2-36.9-0.1-55.4-0.1
			c-3.2,0-5.1-1-5.2-4.6c-0.1-3.2,0.7-4.6,4.2-4.5C230.9,37.2,240.4,37.1,249.9,37C249.9,37.1,249.9,37.1,249.9,37z"/>
		<path d="M236.8,74.6c0.1-12.8,0.1-12.9,12.9-12.8c4.2,0,9.4-1,12.1,1.1c2,1.6,0.7,7.4,0.9,11.3c0.2,3.4,0.6,6.7,0.6,10.1
			c0,1-1.1,2-1.8,3c-0.8-0.7-1.5-1.4-2.4-2c-1.9-1.3-3.7-3.1-5.8-3.8c-1.8-0.6-4,0-6.1-0.1c-2.9-0.1-5.4,0.3-6.2,3.8
			c-0.2,0.9-1.8,1.5-2.8,2.2c-0.5-1.1-1.4-2.1-1.5-3.2C236.6,81,236.8,77.8,236.8,74.6z"/>
		<path d="M204.7,80.1c0-4.6-0.3-9.2,0.2-13.7c0.1-1.3,2-3.4,3.3-3.6c9.1-1.1,13.1,3,12.8,12.2c-0.1,3.9-0.1,7.8,0.2,11.7
			c0.5,9-6.2,14.3-14.6,11.2c-0.9-0.3-1.8-2.3-1.8-3.5C204.5,89.6,204.6,84.9,204.7,80.1C204.7,80.1,204.7,80.1,204.7,80.1z"/>
		<path d="M250.7,48.6c3.9,0,7.8,0.3,11.7-0.1c4-0.3,4.5,1.8,4.3,4.9c-0.2,3,0.6,6.3-4.3,6.3c-8.1-0.1-16.2-0.1-24.3,0
			c-3.3,0.1-4.3-1.5-3.9-4.4c0.4-2.7-2-7,3.8-6.8C242.3,48.7,246.5,48.6,250.7,48.6z"/>
		<path d="M251.4,283.7c-1.4,0-2.7,0-4.1,0c-9.2,0.2-7.5,0.6-7.7-7.3c-0.1-4.2,1.2-5.2,5.2-4.8c4.7,0.4,9.4-0.2,14.2-0.4
			c3.1-0.2,4.9,0.9,4.8,4.3c-0.1,1.5-0.1,3,0,4.6c0.2,3.1-1.5,4.3-4.4,4.1c-2.7-0.2-5.4-0.4-8.1-0.6
			C251.4,283.6,251.4,283.7,251.4,283.7z"/>
		<path d="M252.2,436.5c-1.1-0.2-2.2-0.6-3.2-0.4c-4,0.7-6.1-0.4-6.1-4.9c0-4.6,1.9-5.6,6.3-5.2c8.4,0.8,8.8,1.1,6.8,10.1
			c-0.3,1.3,0.4,2.8,0.7,4.2c0.5,2.8,0.6,5.5-2.9,6.5c-5,1.4-9.5,0-10.5-3.2c-1-3.2,0.9-5.6,4.2-5.6c1.6,0,3.2,0,4.8,0
			C252.1,437.6,252.1,437.1,252.2,436.5z"/>
		<path d="M253,400.3c1.2,0,2.4,0,3.6,0c6.9-0.3,8.9,1.9,7.1,8.7c-0.3,1.2-2.2,2.5-3.5,2.7c-3.2,0.4-6.4,0.3-9.6,0.3
			c-8-0.2-8.9-1.2-7.5-9c0.2-1,1.8-2.3,3-2.5C248.2,400.1,250.6,400.4,253,400.3C253,400.4,253,400.3,253,400.3z"/>
		<path d="M249.3,120.7c-0.8,0-1.7,0.2-2.5,0c-2.8-0.6-7.1,1.7-7.7-3.2c-0.7-5.2,3.3-9.7,8.3-10c1.7-0.1,3.4-0.1,5,0.1
			c5.7,0.7,8.9,6.6,6.2,11.6c-0.4,0.8-1.8,1.4-2.8,1.5C253.7,120.8,251.5,120.6,249.3,120.7C249.3,120.7,249.3,120.7,249.3,120.7z"
			/>
		<path d="M249.5,286.2c1.2,0,2.4,0.1,3.5,0c3.4-0.3,6.8-1,6.6,4.6c-0.2,5.9-1.2,7.2-6.9,7.3c-2.2,0-4.4,0.1-6.6,0
			c-5.4-0.3-8.5-5.1-6.3-10.1c0.4-0.9,2-1.7,3.1-1.8C245.1,285.9,247.3,286.1,249.5,286.2C249.5,286.1,249.5,286.2,249.5,286.2z"/>
		<path d="M252.1,414.4c1.2,0,2.4,0,3.5,0c5.6-0.1,7.8,2.5,5.9,7.9c-0.4,1-2.4,2-3.7,2.1c-3.7,0.1-7.4-0.3-11.1-0.3
			c-3-0.1-4.3-1.4-4-4.4c0.3-2.5-0.9-5.8,3.7-5.3c1.8,0.2,3.7,0,5.6,0C252.1,414.4,252.1,414.4,252.1,414.4z"/>
		<path d="M259.8,92.1c-6.4,0-14.2,0-21.7,0c2.2-2.5,4.2-4.7,6.2-6.9c2.5-2.8,10.6-1.6,12.3,1.8C257.5,88.9,258.8,90.6,259.8,92.1z"
			/>
		<path d="M420.6,350.5c6.7,10.7,13.4,21.4,20.1,32.1c-0.2,0.4-0.5,0.7-0.7,1.1c-1.1-0.3-2.4-0.3-3.4-0.9c-0.8-0.5-1.3-1.5-1.8-2.4
			c-5.2-8.4-10.5-16.8-15.6-25.2c-0.6-1-0.6-2.4-0.9-3.6C419.1,351.3,419.8,350.9,420.6,350.5z"/>
		<path d="M54.9,391c2.4,1.4,4.7,2.9,7.2,4.3c3.7,2,4,3.6,0.8,6.4c-2.9,2.6-6.8,1.8-10.5-2.1C50.3,397.3,50.7,395.8,54.9,391z"/>
		<path d="M223,81.3c0-2.3-0.3-4.3,0.1-6c0.2-1.1,1.7-2.8,2.4-2.7c1.2,0.2,3.1,1.5,3.2,2.5c0.5,3.6,0.5,7.4,0.2,11
			c-0.1,0.8-2.3,2.1-3.3,2c-1.1-0.1-2.4-1.6-2.8-2.7C222.4,83.9,222.9,82.3,223,81.3z"/>
		<path d="M263,120.1c-1.4-3.7-1.5-5.6,2.6-6.9c2.9-0.9,5.1-3.7,8.5-6.3c0.6,0.8,2,2.8,3.6,5.1C272.6,114.8,268.1,117.3,263,120.1z"
			/>
		<path d="M272.2,70.2c4,0.7,4.4,3,4.3,6c-0.4,12.4-0.3,12.4-4.3,13.9C272.2,83.5,272.2,77.1,272.2,70.2z"/>
		<path d="M222.1,111.9c2.1-2.5,3.5-4.2,4-4.9c3.5,2.6,6.2,4.3,8.4,6.4c1.3,1.2,2,3.1,2.9,4.7c-0.5,0.4-1.1,0.9-1.6,1.3
			C231.6,117.1,227.3,114.7,222.1,111.9z"/>
		<path d="M70,367.1c2.7-5,5.4-10,8.2-14.9c0.3-0.5,1.4-0.7,2.1-0.6c0.4,0.1,1,0.9,1.1,1.4c0.4,2.3-8.2,13.8-10.6,14.3
			c-0.3,0.1-0.6-0.2-1-0.3L70,367.1z"/>
		<path d="M69.9,367c0.8,6.5-4.7,15.8-11.1,16.1c4.1-5.8,7.6-10.9,11.2-16C70,367.1,69.9,367,69.9,367z"/>
		<path d="M146.2,235.2c1.2,4.4-3.2,12.1-8.7,14.5C140.3,245.1,143.1,240.4,146.2,235.2z"/>
		<path d="M277.9,80c1.3-1.7,2.3-2.9,3.3-4.1c1,1.5,2.7,3,2.7,4.5c0,1.6-1.7,3.1-2.7,4.7C280.3,83.5,279.3,82.1,277.9,80z"/>
	</g>
	<text transform="matrix(1 0 0 1 19.7451 432.3672)" class="st0 st1">Medicine</text>
	<text transform="matrix(1 0 0 1 420.1123 432.3672)" class="st0 st1">PRP</text>
	<text transform="matrix(1 0 0 1 213.6499 473.2637)" class="st0 st1">Donor</text>
</g>
</svg>
