<?xml version="1.0" encoding="UTF-8"?>
<svg id="Layer_1" data-name="Layer 1" xmlns="http://www.w3.org/2000/svg" viewBox="0 0 440.93 399.13">
  <path d="m440.93,304.69c-9.2,7.71-18.05,15.88-27.66,23.04-37.8,28.17-79.06,49.56-124.68,62.12-52.51,14.46-104.4,11.68-155.64-6-47.74-16.48-90.35-41.86-128.48-74.86-5.89-5.1-5.99-8.27-.13-13.28,49.87-42.66,105.78-73.45,170.77-86.01,44.39-8.58,88.01-4.43,130.52,10.22,16.6,5.72,32.54,13.37,48.71,20.33,3.93,1.69,5.21,5.54,3.64,8.88-1.55,3.28-5.29,4.4-9.22,2.71-1.18-.51-2.3-1.16-3.48-1.68-9.95-4.41-19.89-8.81-29.86-13.18-1.27-.55-2.64-.87-4.07-1.33,27.28,53.45,19.09,100.33-24.71,141.36,51.44-14.57,96.68-40.4,138.28-74.79-7.24-5.64-14.03-11.29-21.19-16.41-8.86-6.33-18.02-12.24-27.08-18.28-4.51-3-5.8-6.47-3.52-9.95,2.21-3.37,5.81-3.83,10.19-1.12,18.8,11.65,36.78,24.43,53.33,39.16,1.59,1.41,2.86,3.17,4.28,4.77v4.31Zm-311.1-68.74c-41.94,15.15-79.28,37.74-113.53,66.37,41.4,34.22,86.58,60.04,137.98,74.32-2.6-2.76-5.44-5.17-8.08-7.79-2.64-2.63-5.13-5.41-7.56-8.24-1-1.17-2.03-2.53-2.42-3.97-.84-3.08.14-5.75,3.09-7.27,4-2.05,6.68.04,9.25,3,23.45,26.89,52.97,38.45,88.12,32.25,35.52-6.26,60.13-27.32,71.98-61.24,11.93-34.14,4.98-65.56-18.56-93.1-1.28-1.5-3.4-2.63-5.34-3.17-42.3-11.62-84.65-11.58-127.05-.46-3.53.93-6.17,2.59-8.42,5.39-22.37,27.81-27.93,58.62-16.69,92.47,1.82,5.48.82,9.01-3.2,10.43-4.06,1.43-6.96-.52-8.98-6.15-6.67-18.52-8.02-37.43-4.31-56.75,2.46-12.81,7.32-24.66,13.72-36.09Z"/>
  <path d="m440.93,186.73c-3.56,4.77-5.31,5.31-10.96,3.24-36.02-13.23-72.01-26.58-108.08-39.69-32.21-11.7-63.91-9.99-94.78,4.75-71.48,34.13-142.9,68.4-214.34,102.61-.9.43-1.79.92-2.71,1.31-5.55,2.33-9.82-.38-9.87-6.47-.09-12.63-.03-25.25-.03-37.88,0-13.77.07-27.55-.04-41.32-.03-4.14,1.6-6.64,5.52-8.13,38.02-14.43,76-28.97,114.01-43.44,4.74-1.8,8.23-.6,9.73,3.15,1.51,3.78-.26,6.89-5.04,8.87-.4.16-.79.33-1.2.48-24.08,9.18-48.17,18.37-72.25,27.55-11.64,4.44-23.31,8.8-34.88,13.42-1.28.51-2.8,2.48-2.81,3.79-.17,20.66-.12,41.32-.11,61.99,0,.52.12,1.04.25,2.1,8.49-4.03,16.61-7.86,24.7-11.74,60.33-28.9,120.74-57.63,180.94-86.79,38.67-18.73,77.43-18.99,116.93-3.01,16.32,6.6,33.02,12.27,49.55,18.35,1.04.38,2.12.66,3.46.51-.93-.73-1.83-1.5-2.8-2.19-20.07-14.33-40.17-28.63-60.23-42.99-22.33-15.98-47.19-23.7-74.63-22.98-16.87.44-32.68,5.32-48.23,11.49-15.97,6.34-32.08,12.33-48.16,18.38-5.43,2.04-10.5-1.32-9.45-6.37.4-1.93,2.14-4.46,3.87-5.12,24.22-9.2,48.09-19.78,72.96-26.73,39.86-11.13,77.27-3.08,111.06,20.81,34.3,24.26,68.43,48.76,102.61,73.2,1.82,1.3,3.34,3.03,5,4.57v4.31Z"/>
  <path d="m171.08,41.83c-2.11,2.35-4.09,4.82-6.35,7-3.24,3.12-6.82,3.23-9.54.56-2.65-2.59-2.62-6.48.39-9.56,6.01-6.15,12.1-12.24,18.26-18.24,3.2-3.12,6.67-3.18,9.88-.07,6.18,5.98,12.26,12.07,18.26,18.24,3.02,3.1,3.09,6.97.5,9.57-2.7,2.71-6.28,2.58-9.56-.43-2.32-2.13-4.56-4.34-6.85-6.51-.05-.05-.24.05-.82.2,0,9.42,0,18.96,0,28.51,0,1.58.03,3.16,0,4.73-.1,4.67-2.53,7.54-6.39,7.57-3.87.03-6.46-2.84-6.49-7.46-.06-9.75-.02-19.5-.02-29.25,0-1.39,0-2.77,0-4.16-.42-.24-.84-.47-1.25-.71Z"/>
  <path d="m249.36,22.58c-2.18,2.44-4.24,5.01-6.58,7.29-2.86,2.79-6.72,2.86-9.25.48-2.67-2.51-2.71-6.56.22-9.56,6.1-6.25,12.27-12.44,18.54-18.52,3.1-3,6.4-3.04,9.53-.02,6.29,6.06,12.46,12.25,18.55,18.51,2.96,3.05,2.91,7.01.24,9.56-2.63,2.51-6.4,2.26-9.57-.7-1.15-1.07-2.27-2.18-3.34-3.34-1.05-1.15-2.01-2.37-3.84-4.54-.16,2.76-.3,4.09-.31,5.41-.02,9.74.02,19.48-.03,29.22-.02,4.96-2.55,7.98-6.48,7.97-3.94,0-6.38-3.01-6.4-8-.03-11-.01-22-.01-33-.43-.25-.85-.51-1.28-.76Z"/>
  <path d="m327.47,47.72c-2.14,2.49-4.12,5.14-6.47,7.42-3.04,2.96-6.49,2.96-9.19.4-2.7-2.55-2.74-6.49.24-9.55,6.09-6.26,12.27-12.45,18.55-18.53,2.98-2.88,6.53-2.84,9.55.09,6.27,6.09,12.45,12.27,18.54,18.53,2.87,2.95,2.89,6.61.43,9.22-2.64,2.79-6.27,2.74-9.55-.19-1.28-1.14-2.43-2.43-3.67-3.62-1.09-1.06-2.21-2.08-4.05-3.81,0,6.96,0,13.04,0,19.13,0,5.3.12,10.61-.06,15.9-.14,4.27-2.96,6.91-6.76,6.74-3.59-.16-6.03-2.8-6.06-6.93-.08-9.89-.03-19.77-.03-29.66,0-1.4,0-2.8,0-4.19-.49-.32-.97-.64-1.46-.96Z"/>
  <path d="m220.35,342.6c-25.83-.06-47.58-20.24-49.63-46.04-2.06-25.91,16.59-49.47,42.41-53,5.58-.76,11.38.12,17.07.07,1.53-.01,3.4-.22,4.52-1.1,12.15-9.62,27.95-8.82,38.04,2.08,10.04,10.85,9.58,26.78-.91,38.1-1.05,1.13-1.69,3.23-1.53,4.78,3.03,29.36-20.31,55.18-49.96,55.12Zm5.36-86.07c-11.63-3.71-28.42,3.83-36.39,16.35-9.14,14.35-7.34,32.83,4.4,45.25,11.54,12.21,30.06,15.13,44.59,7.03,12.91-7.19,21.53-23.33,18.58-34.79-17.86,1.84-34.29-11.49-31.18-33.84Zm41.36,6.65c.02-8.02-6.4-14.47-14.39-14.46-8,.01-14.34,6.47-14.28,14.54.06,7.9,6.25,14.12,14.14,14.21,8.03.09,14.5-6.28,14.53-14.29Z"/>
</svg>