<?xml version="1.0" encoding="utf-8"?>
<!-- Generator: Adobe Illustrator 27.2.0, SVG Export Plug-In . SVG Version: 6.00 Build 0)  -->
<svg version="1.1" id="Layer_1" xmlns="http://www.w3.org/2000/svg" xmlns:xlink="http://www.w3.org/1999/xlink" x="0px" y="0px"
	 viewBox="0 0 500 500" style="enable-background:new 0 0 500 500;" xml:space="preserve">
<g>
	<path d="M263.2,25c8.1,1.1,16.3,2,24.3,3.5c43.3,8,73.2,32.3,89.6,73.3c9.4,23.6,13.5,48.4,16.6,73.5c3.4,27.3,6.6,54.6,10.7,81.8
		c1.3,8.5,4.3,17.1,8.3,24.9c3.3,6.6,9,12.1,13.8,17.9c1.6,2,3.9,3.4,5.9,5.1c-10.1,11.6-23.2,17.9-37,22.4
		c-15,4.9-30.4,8.5-45.8,12.7c0.4,0.3,1.2,1,2.1,1.3c19.6,7.8,39.1,15.9,58.9,23.1c21.2,7.7,35.5,25.7,35.9,48.3
		c0.4,20.6,0.1,41.3,0.1,62.2c-131,0-261.8,0-393.2,0c0-1.5,0-3.1,0-4.6c0-18,0-36.1,0-54.1c0-26.2,14.1-44.2,38.9-52.8
		c19.4-6.6,38.1-15,57.1-22.7c0.5-0.2,0.9-0.6,1.2-0.8c-14.7-3.9-29.5-7.3-43.9-11.9c-14.6-4.7-28.5-11-39.4-23.4
		c0.6-0.4,1.3-0.7,1.9-1.2c16.3-11.3,23.3-28.1,26.5-46.5c3.8-21.8,6.4-43.7,8.9-65.7c3-26.3,5.9-52.7,14.1-78.1
		c10.2-31.2,27.2-57,57.3-72.6c17.3-9,35.9-13.2,55.3-14.9c1.9-0.2,3.7-0.6,5.6-0.8C245.6,25,254.4,25,263.2,25z M72.3,456.3
		c118.5,0,236.8,0,355.1,0c0.2-0.6,0.4-1,0.4-1.4c0-14.2,0.5-28.5-0.2-42.6c-0.7-14.2-8.3-24.1-21.6-29.3
		c-18.9-7.5-38.1-14.4-56.8-22.3c-19.3-8.1-38.7-16.6-49.4-37.4c-33.3,27.1-66.7,26.9-99.7,0.1c-7.9,13.1-11.5,17.7-24.6,25
		c-25.1,13.8-51.4,25-78.7,33.6c-15.5,4.9-24.6,16.6-24.7,32.9c-0.1,12.6,0,25.2,0,37.8C72.1,453.8,72.2,455,72.3,456.3z
		 M147.8,193.3c0,1.9-0.1,3.5,0,5.1c1.3,22.9,8.9,43.8,20.8,63.1c14.7,23.8,33.5,43.7,58.5,56.9c11.1,5.9,22.7,9.1,35.1,4.4
		c6.4-2.4,12.8-5.3,18.5-9c28.2-18,48.2-42.9,61.4-73.4c10.6-24.5,12.8-50,7.3-76.1c-0.5-2.3-1.1-3.9-3.8-4.6
		c-25.8-7-49.1-19.1-70.6-34.8c-3.5-2.6-5.4-2-8.3,0.7C232.4,157.1,194.5,182.5,147.8,193.3z M306.7,53.3c-5.4-1.7-9.9-3.4-14.6-4.5
		c-25.5-6.1-51.1-6.6-76.9-1.7c-31.8,6-55.9,22.4-70.5,51.9c-9.4,19-14.1,39.3-17.2,60.1c-0.9,6.1-1.7,12.3-2.5,18.9
		c6.3-1,12-1.6,17.6-2.8c29.8-6.4,56.1-20.1,80.6-37.8c23.7-17.1,44.5-37.3,63.5-59.3C293.5,70.1,299.7,61.9,306.7,53.3z
		 M368.8,165.2c0.2,1.7,0.4,3.3,0.6,4.9c2.3,16.5,2.5,33-1.1,49.4c-6.9,31.7-22.3,59-44.5,82.4c-4.6,4.9-5.7,9.8-5.1,15.7
		c0.4,3.8,3.5,6.9,6.8,6.2c17.4-3.3,34.9-6.4,52.1-10.4c8.8-2.1,17.2-6,25.9-9.1c-2.8-4.8-5.3-8.6-7.3-12.7
		c-10.1-20.1-13.3-42-15.9-64c-2.3-19.5-4.3-39-6.4-58.5C373.7,166.3,373,164.1,368.8,165.2z M96.4,303.7c4.2,1.8,8.2,3.7,12.3,5.2
		c21.3,8,43.5,11.9,65.9,14.8c1.1,0.1,2.7-0.2,3.5-0.9c4.1-3.3,4.4-13.6,0.9-17.6c-5.2-5.9-10.7-11.7-15.4-18
		c-16.4-21.5-28-45.3-32.7-72.1c-1.1-6.1-1.6-12.3-2.4-18.4c-4.5-1.2-6,0.7-6.3,4.8c-0.4,6.1-1.1,12.2-1.8,18.4
		C117,249,114,278.2,96.4,303.7z M323.9,62.4c-13,15.6-25.9,31-38.9,46.6c25.5,18.2,53.1,32,85.3,36.8
		C363.3,112.5,352.8,82.2,323.9,62.4z"/>
</g>
</svg>
