<?xml version="1.0" encoding="utf-8"?>
<!-- Generator: Adobe Illustrator 27.2.0, SVG Export Plug-In . SVG Version: 6.00 Build 0)  -->
<svg version="1.1" xmlns="http://www.w3.org/2000/svg" xmlns:xlink="http://www.w3.org/1999/xlink" x="0px" y="0px"
	 viewBox="0 0 500 500" style="enable-background:new 0 0 500 500;" xml:space="preserve">
<style type="text/css">
	.st0{fill:none;stroke:#231F20;stroke-width:5.4082;stroke-miterlimit:10;}
	.st1{fill:none;stroke:#232323;stroke-width:5.4082;stroke-miterlimit:10;}
	.st2{fill:#EEA48F;}
	.st3{fill:#232323;}
	.st4{fill:#BFB8B8;}
	.st5{fill:#959595;}
	.st6{fill:#666666;}
	.st7{fill:#404040;}
	.st8{fill:#2E2E2E;}
	.st9{fill:#958F8F;}
	.st10{fill:#757372;}
	.st11{fill:#282F39;}
	.st12{opacity:0.55;fill:#F3D6B8;}
	.st13{fill:#F3D6B8;}
</style>
<g id="Layer_1">
	<g>
		<path class="st0" d="M386.7,251.1c-2.6-1.6-5.4-2.9-8.5-3.9c-12.7-3.9-248-11.4-268-0.6c-23.5,12.7-24.7,43.9-25,67.4
			c-0.2,16.6-2.9,56.2,8.7,70.2c15,18.3,37.1,18,58.6,18c49.7,0,98.8,3.5,148.3,3.5c13.9,0,27.6-0.2,41.4-0.9
			c5.7-0.3,33.3,0,49.4-16c14.4-14.4,24-58.5,12.8-109.8C401.8,267.5,396.2,257.2,386.7,251.1z"/>
		<path class="st1" d="M90.3,271.8c7,22.2,92.3,30,150.7,30c45.4,0,149.4-3.4,162.1-27.7c-3-9.6-8.2-17.8-16.3-22.9
			c-2.6-1.6-5.4-2.9-8.5-3.9c-12.7-3.9-248-11.4-268-0.6C99.8,252.2,93.8,261.4,90.3,271.8z"/>
		<ellipse class="st2" cx="250.8" cy="276.9" rx="17.2" ry="7.5"/>
		<ellipse class="st1" cx="345.4" cy="276.9" rx="17.2" ry="7.5"/>
		<ellipse class="st1" cx="156.2" cy="276.9" rx="17.2" ry="7.5"/>
		<path class="st3" d="M159.9,277.6c0-2.6-0.2-3.7-0.2-4.9c-0.9-14.5-1-25.7-0.7-48.3c0.4-25.6,1.6-30,3.6-44.4
			c3.6-26.3,24.3-38.8,24.3-38.8s-25.3,4.7-32.1,58.6c-4.1,32.4-2.8,61.2-3.7,77.7c0,0.8,0.8,1.9,4.1,1.7
			C158.8,279,159.9,278.5,159.9,277.6z"/>
		<path class="st3" d="M349.8,277.6c0-2.6-0.2-3.7-0.2-4.9c-0.9-14.5-1-25.7-0.7-48.3c0.4-25.6,1.6-30,3.6-44.4
			c3.6-26.3,24.3-38.8,24.3-38.8s-25.3,4.7-32.1,58.6c-4.1,32.4-2.8,61.2-3.7,77.7c0,0.8,0.8,1.9,4.1,1.7
			C348.8,279,349.8,278.5,349.8,277.6z"/>
		<g>
			<rect x="229.2" y="139.8" class="st4" width="44" height="246.9"/>
			<rect x="224.2" y="161.9" class="st5" width="53.9" height="92"/>
			<polygon class="st6" points="213.6,224.2 288.7,224.2 301.3,95.9 201,96 			"/>
			<polygon class="st7" points="219.7,224.2 262.1,224.2 269.2,95.9 212.6,96 			"/>
			<polygon class="st8" points="231.9,224.2 250,224.2 253,95.9 228.8,96 			"/>
			<path class="st4" d="M297.9,34.8c-29.6-12.6-65.5-3.9-96.9,0.8l0,65.7l100.4,0l0-65.1C300.2,35.7,299,35.3,297.9,34.8z"/>
			<path class="st9" d="M212.8,33.7l0,67.5l54.8,0l0-72.8C249.5,27.6,230.7,30.7,212.8,33.7z"/>
			<path class="st10" d="M228.8,31.1l0,70.1l23.9,0l0-72.7C244.8,29,236.8,29.9,228.8,31.1z"/>
			<g>
				<path class="st11" d="M257.1,337.8c-0.8-2.7-2.1-5-2.8-7.8c-0.8-3.1-1.6-8-1.7-11.2c-0.4-13.2-0.3-23.9,0.6-46.8H247
					c-1.8,25.6-1.2,44.6-2.5,54.7c-0.7,5.3-1.7,9.4-2.8,16.2c-0.3,2-0.4,4.1-0.2,6.2c0.2,1.8,1.5,5.8,4.9,7.9c2,1.2,6.8,1.9,9.4-1
					c1.5-1.6,2-3.1,2.4-5.3c0.2-1,0.3-2.1,0.3-3.1c0.1-1.5-0.2-3-0.4-4.5C258,341.2,257.6,339.5,257.1,337.8z"/>
				<g>
					<path class="st12" d="M259.1,371.1h-15.5c-4.5,0-8.1-3.6-8.1-8.1v-87h31.7v87C267.2,367.5,263.6,371.1,259.1,371.1z"/>
				</g>
				<path class="st13" d="M267.2,275.9c0,2.3-7.1,4.2-15.9,4.2c-8.8,0-15.9-1.9-15.9-4.2c0-2.3,7.1-4.2,15.9-4.2
					C260.1,271.8,267.2,273.6,267.2,275.9z"/>
				<path class="st11" d="M248,223.7c-0.4,19-0.9,43.3-1.4,51.9c2,1.4,4.8,1.8,6.7,0.1c0.1-2.2,0.2-3.8,0.3-6.1
					c0.8-20.9,1.2-34.8,1.6-45.9H248z"/>
			</g>
		</g>
		<g>
			<path class="st3" d="M250,475C125.9,475,25,374.1,25,250C25,125.9,125.9,25,250,25c124.1,0,225,100.9,225,225
				C475,374.1,374.1,475,250,475z M250,31.1C129.3,31.1,31.1,129.3,31.1,250c0,120.7,98.2,218.9,218.9,218.9
				c120.7,0,218.9-98.2,218.9-218.9C468.9,129.3,370.7,31.1,250,31.1z"/>
		</g>
	</g>
</g>
<g id="Layer_2">
</g>
</svg>
