<?xml version="1.0" encoding="utf-8"?>
<!-- Generator: Adobe Illustrator 27.2.0, SVG Export Plug-In . SVG Version: 6.00 Build 0)  -->
<svg version="1.1" xmlns="http://www.w3.org/2000/svg" xmlns:xlink="http://www.w3.org/1999/xlink" x="0px" y="0px"
	 viewBox="0 0 500 500" style="enable-background:new 0 0 500 500;" xml:space="preserve">
<style type="text/css">
	.st0{fill:none;stroke:#232323;stroke-width:5.4082;stroke-miterlimit:10;}
	.st1{fill:#282F39;}
	.st2{fill:#353535;}
	.st3{fill:#6B6868;}
	.st4{fill:#232323;}
</style>
<g id="Layer_1">
	<g>
		<g>
			<ellipse class="st0" cx="246.5" cy="274.2" rx="171" ry="109.5"/>
			<path class="st1" d="M86.2,263.5c0.9,7.5,1.2,12.3,1.2,16.4c1.7,0.5,3.4,0.6,5.4,0.3c-0.6-6.3-1.1-15.8-4.5-27.5
				c-6.9-23.8-16.3-31.1-16.3-31.1s5.5,10.4,9.2,20.7C84,249.8,84.8,252,86.2,263.5z"/>
			<path class="st1" d="M96.6,237c0.9,7.5,1.2,12.3,1.2,16.4c1.7,0.5,3.4,0.6,5.4,0.3c-0.6-6.3-1.1-15.8-4.5-27.5
				c-6.9-23.8-16.3-31.1-16.3-31.1s5.5,10.4,9.2,20.7C94.4,223.2,95.2,225.5,96.6,237z"/>
			<path class="st1" d="M111.3,215.4c0.9,7.5,1.2,12.3,1.2,16.4c1.7,0.5,3.4,0.6,5.4,0.3c-0.6-6.3-1.1-15.8-4.5-27.5
				c-6.9-23.8-16.3-31.1-16.3-31.1s5.5,10.4,9.2,20.7C109.1,201.6,109.9,203.8,111.3,215.4z"/>
			<path class="st1" d="M128.7,198.5c0.9,7.5,1.2,12.3,1.2,16.4c1.7,0.5,3.4,0.6,5.4,0.3c-0.6-6.3-1.1-15.8-4.5-27.5
				c-6.9-23.8-16.3-31.1-16.3-31.1s5.5,10.4,9.2,20.7C126.4,184.7,127.3,186.9,128.7,198.5z"/>
			<path class="st1" d="M103.8,309.7c0.9,7.5,1.2,12.3,1.2,16.4c1.7,0.5,3.4,0.6,5.4,0.3c-0.6-6.3-1.1-15.8-4.5-27.5
				c-6.9-23.8-16.3-31.1-16.3-31.1s5.5,10.4,9.2,20.7C101.6,295.9,102.4,298.1,103.8,309.7z"/>
			<path class="st1" d="M113.2,288.4c0.9,7.5,1.2,12.3,1.2,16.4c1.7,0.5,3.4,0.6,5.4,0.3c-0.6-6.3-1.1-15.8-4.5-27.5
				c-6.9-23.8-16.3-31.1-16.3-31.1s5.5,10.4,9.2,20.7C111,274.6,111.9,276.8,113.2,288.4z"/>
			<path class="st1" d="M149.5,186c0.9,7.5,1.2,12.3,1.2,16.4c1.7,0.5,3.4,0.6,5.4,0.3c-0.6-6.3-1.1-15.8-4.5-27.5
				c-6.9-23.8-16.3-31.1-16.3-31.1s5.5,10.4,9.2,20.7C147.2,172.2,148.1,174.5,149.5,186z"/>
			<path class="st1" d="M170.2,177.1c0.9,7.5,1.2,12.3,1.2,16.4c1.7,0.5,3.4,0.6,5.4,0.3c-0.6-6.3-1.1-15.8-4.5-27.5
				c-6.9-23.8-16.3-31.1-16.3-31.1s5.5,10.4,9.2,20.7C168,163.3,168.9,165.6,170.2,177.1z"/>
			<path class="st1" d="M197.7,171.3c0.9,7.5,1.2,12.3,1.2,16.4c1.7,0.5,3.4,0.6,5.4,0.3c-0.6-6.3-1.1-15.8-4.5-27.5
				c-6.9-23.8-16.3-31.1-16.3-31.1s5.5,10.4,9.2,20.7C195.5,157.5,196.3,159.8,197.7,171.3z"/>
			<path class="st1" d="M128.7,263.5c0.9,7.5,1.2,12.3,1.2,16.4c1.7,0.5,3.4,0.6,5.4,0.3c-0.6-6.3-1.1-15.8-4.5-27.5
				c-6.9-23.8-16.3-31.1-16.3-31.1s5.5,10.4,9.2,20.7C126.4,249.8,127.3,252,128.7,263.5z"/>
			<path class="st1" d="M139.1,237c0.9,7.5,1.2,12.3,1.2,16.4c1.7,0.5,3.4,0.6,5.4,0.3c-0.6-6.3-1.1-15.8-4.5-27.5
				c-6.9-23.8-16.3-31.1-16.3-31.1s5.5,10.4,9.2,20.7C136.8,223.2,137.7,225.5,139.1,237z"/>
			<path class="st1" d="M153.8,215.4c0.9,7.5,1.2,12.3,1.2,16.4c1.7,0.5,3.4,0.6,5.4,0.3c-0.6-6.3-1.1-15.8-4.5-27.5
				c-6.9-23.8-16.3-31.1-16.3-31.1s5.5,10.4,9.2,20.7C151.5,201.6,152.4,203.8,153.8,215.4z"/>
			<path class="st1" d="M171.1,198.5c0.9,7.5,1.2,12.3,1.2,16.4c1.7,0.5,3.4,0.6,5.4,0.3c-0.6-6.3-1.1-15.8-4.5-27.5
				c-6.9-23.8-16.3-31.1-16.3-31.1s5.5,10.4,9.2,20.7C168.9,184.7,169.7,186.9,171.1,198.5z"/>
			<path class="st1" d="M191.9,186c0.9,7.5,1.2,12.3,1.2,16.4c1.7,0.5,3.4,0.6,5.4,0.3c-0.6-6.3-1.1-15.8-4.5-27.5
				c-6.9-23.8-16.3-31.1-16.3-31.1s5.5,10.4,9.2,20.7C189.7,172.2,190.5,174.5,191.9,186z"/>
			<path class="st1" d="M212.7,177.1c0.9,7.5,1.2,12.3,1.2,16.4c1.7,0.5,3.4,0.6,5.4,0.3c-0.6-6.3-1.1-15.8-4.5-27.5
				c-6.9-23.8-16.3-31.1-16.3-31.1s5.5,10.4,9.2,20.7C210.4,163.3,211.3,165.6,212.7,177.1z"/>
			<path class="st1" d="M240.1,171.3c0.9,7.5,1.2,12.3,1.2,16.4c1.7,0.5,3.4,0.6,5.4,0.3c-0.6-6.3-1.1-15.8-4.5-27.5
				c-6.9-23.8-16.3-31.1-16.3-31.1s5.5,10.4,9.2,20.7C237.9,157.5,238.8,159.8,240.1,171.3z"/>
			<path class="st1" d="M242.6,210c0.9,7.5,1.2,12.3,1.2,16.4c1.7,0.5,3.4,0.6,5.4,0.3c-0.6-6.3-1.1-15.8-4.5-27.5
				c-6.9-23.8-16.3-31.1-16.3-31.1s5.5,10.4,9.2,20.7C240.3,196.3,241.2,198.5,242.6,210z"/>
			<path class="st1" d="M253,183.5c0.9,7.5,1.2,12.3,1.2,16.4c1.7,0.5,3.4,0.6,5.4,0.3c-0.6-6.3-1.1-15.8-4.5-27.5
				c-6.9-23.8-16.3-31.1-16.3-31.1s5.5,10.4,9.2,20.7C250.7,169.7,251.6,172,253,183.5z"/>
			<path class="st1" d="M267.7,161.9c0.9,7.5,1.2,12.3,1.2,16.4c1.7,0.5,3.4,0.6,5.4,0.3c-0.6-6.3-1.1-15.8-4.5-27.5
				c-6.9-23.8-16.3-31.1-16.3-31.1s5.5,10.4,9.2,20.7C265.5,148.1,266.3,150.3,267.7,161.9z"/>
			<path class="st1" d="M273.8,210c0.9,7.5,1.2,12.3,1.2,16.4c1.7,0.5,3.4,0.6,5.4,0.3c-0.6-6.3-1.1-15.8-4.5-27.5
				c-6.9-23.8-16.3-31.1-16.3-31.1s5.5,10.4,9.2,20.7C271.5,196.3,272.4,198.5,273.8,210z"/>
			<path class="st1" d="M284.1,183.5c0.9,7.5,1.2,12.3,1.2,16.4c1.7,0.5,3.4,0.6,5.4,0.3c-0.6-6.3-1.1-15.8-4.5-27.5
				c-6.9-23.8-16.3-31.1-16.3-31.1s5.5,10.4,9.2,20.7C281.9,169.7,282.8,172,284.1,183.5z"/>
			<path class="st1" d="M299.3,164.5c0.9,7.5,1.2,12.3,1.2,16.4c1.7,0.5,3.4,0.6,5.4,0.3c-0.6-6.3-1.1-15.8-4.5-27.5
				c-6.9-23.8-16.3-31.1-16.3-31.1s5.5,10.4,9.2,20.7C297.1,150.7,297.9,152.9,299.3,164.5z"/>
			<path class="st1" d="M304.9,215.2c0.9,7.5,1.2,12.3,1.2,16.4c1.7,0.5,3.4,0.6,5.4,0.3c-0.6-6.3-1.1-15.8-4.5-27.5
				c-6.9-23.8-16.3-31.1-16.3-31.1s5.5,10.4,9.2,20.7C302.7,201.4,303.5,203.7,304.9,215.2z"/>
			<path class="st1" d="M315.3,188.7c0.9,7.5,1.2,12.3,1.2,16.4c1.7,0.5,3.4,0.6,5.4,0.3c-0.6-6.3-1.1-15.8-4.5-27.5
				c-6.9-23.8-16.3-31.1-16.3-31.1s5.5,10.4,9.2,20.7C313.1,174.9,313.9,177.2,315.3,188.7z"/>
			<path class="st1" d="M333.2,229.6c0.9,7.5,1.2,12.3,1.2,16.4c1.7,0.5,3.4,0.6,5.4,0.3c-0.6-6.3-1.1-15.8-4.5-27.5
				c-6.9-23.8-16.3-31.1-16.3-31.1s5.5,10.4,9.2,20.7C330.9,215.8,331.8,218.1,333.2,229.6z"/>
			<path class="st1" d="M343.6,203.1c0.9,7.5,1.2,12.3,1.2,16.4c1.7,0.5,3.4,0.6,5.4,0.3c-0.6-6.3-1.1-15.8-4.5-27.5
				c-6.9-23.8-16.3-31.1-16.3-31.1s5.5,10.4,9.2,20.7C341.3,189.3,342.2,191.6,343.6,203.1z"/>
			<g>
				<path class="st2" d="M356.9,254.2c0,0-103.9-22.8-146-61.4l-48,30.7l-8.6,16.9c0,0,39,51.1,80.4,56.6l80.4,2.4L356.9,254.2z"/>
				<path class="st3" d="M257.7,294.5c-23.8-8.6-42-19.9-61.3-35.9c-10.4-8.6-24.7-22.1-34-34l-8.1,15.8c0,0,39.1,52,80.5,57.6
					l33.3,0C264.7,297,261.3,295.8,257.7,294.5z"/>
			</g>
			<path class="st1" d="M309.5,304.7c0.9,7.5,1.2,12.3,1.2,16.4c1.7,0.5,3.4,0.6,5.4,0.3c-0.6-6.3-1.1-15.8-4.5-27.5
				c-6.9-23.8-16.3-31.1-16.3-31.1s5.5,10.4,9.2,20.7C307.2,290.9,308.1,293.1,309.5,304.7z"/>
			<path class="st1" d="M319.9,278.2c0.9,7.5,1.2,12.3,1.2,16.4c1.7,0.5,3.4,0.6,5.4,0.3c-0.6-6.3-1.1-15.8-4.5-27.5
				c-6.9-23.8-16.3-31.1-16.3-31.1s5.5,10.4,9.2,20.7C317.6,264.4,318.5,266.6,319.9,278.2z"/>
			<path class="st1" d="M334.6,256.5c0.9,7.5,1.2,12.3,1.2,16.4c1.7,0.5,3.4,0.6,5.4,0.3c-0.6-6.3-1.1-15.8-4.5-27.5
				c-6.9-23.8-16.3-31.1-16.3-31.1s5.5,10.4,9.2,20.7C332.4,242.7,333.2,245,334.6,256.5z"/>
			<path class="st1" d="M351.9,239.6c0.9,7.5,1.2,12.3,1.2,16.4c1.7,0.5,3.4,0.6,5.4,0.3c-0.6-6.3-1.1-15.8-4.5-27.5
				c-6.9-23.8-16.3-31.1-16.3-31.1s5.5,10.4,9.2,20.7C349.7,225.8,350.5,228.1,351.9,239.6z"/>
			<path class="st1" d="M372.7,227.2c0.9,7.5,1.2,12.3,1.2,16.4c1.7,0.5,3.4,0.6,5.4,0.3c-0.6-6.3-1.1-15.8-4.5-27.5
				c-6.9-23.8-16.3-31.1-16.3-31.1s5.5,10.4,9.2,20.7C370.5,213.4,371.3,215.6,372.7,227.2z"/>
			<path class="st1" d="M343.6,309.7c0.9,7.5,1.2,12.3,1.2,16.4c1.7,0.5,3.4,0.6,5.4,0.3c-0.6-6.3-1.1-15.8-4.5-27.5
				c-6.9-23.8-16.3-31.1-16.3-31.1s5.5,10.4,9.2,20.7C341.3,295.9,342.2,298.1,343.6,309.7z"/>
			<path class="st1" d="M354,283.1c0.9,7.5,1.2,12.3,1.2,16.4c1.7,0.5,3.4,0.6,5.4,0.3c-0.6-6.3-1.1-15.8-4.5-27.5
				c-6.9-23.8-16.3-31.1-16.3-31.1s5.5,10.4,9.2,20.7C351.7,269.4,352.6,271.6,354,283.1z"/>
			<path class="st1" d="M368.7,261.5c0.9,7.5,1.2,12.3,1.2,16.4c1.7,0.5,3.4,0.6,5.4,0.3c-0.6-6.3-1.1-15.8-4.5-27.5
				c-6.9-23.8-16.3-31.1-16.3-31.1s5.5,10.4,9.2,20.7C366.4,247.7,367.3,250,368.7,261.5z"/>
			<path class="st1" d="M393.5,234.2c0.9,7.5,1.2,12.3,1.2,16.4c1.7,0.5,3.4,0.6,5.4,0.3c-0.6-6.3-1.1-15.8-4.5-27.5
				c-6.9-23.8-16.3-31.1-16.3-31.1s5.5,10.4,9.2,20.7C391.3,220.4,392.1,222.6,393.5,234.2z"/>
			<path class="st1" d="M333.2,342.8c0.9,7.5,1.2,12.3,1.2,16.4c1.7,0.5,3.4,0.6,5.4,0.3c-0.6-6.3-1.1-15.8-4.5-27.5
				c-6.9-23.8-16.3-31.1-16.3-31.1s5.5,10.4,9.2,20.7C330.9,329,331.8,331.2,333.2,342.8z"/>
			<path class="st1" d="M360.6,329c0.9,7.5,1.2,12.3,1.2,16.4c1.7,0.5,3.4,0.6,5.4,0.3c-0.6-6.3-1.1-15.8-4.5-27.5
				c-6.9-23.8-16.3-31.1-16.3-31.1s5.5,10.4,9.2,20.7C358.4,315.3,359.3,317.5,360.6,329z"/>
			<path class="st1" d="M375.6,311.7c0.9,7.5,1.2,12.3,1.2,16.4c1.7,0.5,3.4,0.6,5.4,0.3c-0.6-6.3-1.1-15.8-4.5-27.5
				c-6.9-23.8-16.3-31.1-16.3-31.1s5.5,10.4,9.2,20.7C373.4,297.9,374.2,300.1,375.6,311.7z"/>
			<path class="st1" d="M396.4,287.9c0.9,7.5,1.2,12.3,1.2,16.4c1.7,0.5,3.4,0.6,5.4,0.3c-0.6-6.3-1.1-15.8-4.5-27.5
				c-6.9-23.8-16.3-31.1-16.3-31.1s5.5,10.4,9.2,20.7C394.2,274.1,395,276.3,396.4,287.9z"/>
			<path class="st1" d="M136.4,334c0.9,7.5,1.2,12.3,1.2,16.4c1.7,0.5,3.4,0.6,5.4,0.3c-0.6-6.3-1.1-15.8-4.5-27.5
				c-6.9-23.8-16.3-31.1-16.3-31.1s5.5,10.4,9.2,20.7C134.2,320.3,135.1,322.5,136.4,334z"/>
			<path class="st1" d="M153.8,312.1c0.9,7.5,1.2,12.3,1.2,16.4c1.7,0.5,3.4,0.6,5.4,0.3c-0.6-6.3-1.1-15.8-4.5-27.5
				c-6.9-23.8-16.3-31.1-16.3-31.1s5.5,10.4,9.2,20.7C151.5,298.3,152.4,300.6,153.8,312.1z"/>
			<path class="st1" d="M174.1,348.8c0.9,7.5,1.2,12.3,1.2,16.4c1.7,0.5,3.4,0.6,5.4,0.3c-0.6-6.3-1.1-15.8-4.5-27.5
				C169.4,314.2,160,307,160,307s5.5,10.4,9.2,20.7C171.9,335,172.7,337.2,174.1,348.8z"/>
			<path class="st1" d="M184.5,324.4c0.9,7.5,1.2,12.3,1.2,16.4c1.7,0.5,3.4,0.6,5.4,0.3c-0.6-6.3-1.1-15.8-4.5-27.5
				c-6.9-23.8-16.3-31.1-16.3-31.1s5.5,10.4,9.2,20.7C182.3,310.6,183.1,312.9,184.5,324.4z"/>
			<path class="st1" d="M201.8,307.5c0.9,7.5,1.2,12.3,1.2,16.4c1.7,0.5,3.4,0.6,5.4,0.3c-0.6-6.3-1.1-15.8-4.5-27.5
				c-6.9-23.8-16.3-31.1-16.3-31.1s5.5,10.4,9.2,20.7C199.6,293.7,200.5,296,201.8,307.5z"/>
			<path class="st1" d="M208.7,359.7c0.9,7.5,1.2,12.3,1.2,16.4c1.7,0.5,3.4,0.6,5.4,0.3c-0.6-6.3-1.1-15.8-4.5-27.5
				c-6.9-23.8-16.3-31.1-16.3-31.1s5.5,10.4,9.2,20.7C206.4,345.9,207.3,348.1,208.7,359.7z"/>
			<path class="st1" d="M227,342.8c0.9,7.5,1.2,12.3,1.2,16.4c1.7,0.5,3.4,0.6,5.4,0.3c-0.6-6.3-1.1-15.8-4.5-27.5
				c-6.9-23.8-16.3-31.1-16.3-31.1s5.5,10.4,9.2,20.7C224.7,329,225.6,331.2,227,342.8z"/>
			<path class="st1" d="M244.3,325.9c0.9,7.5,1.2,12.3,1.2,16.4c1.7,0.5,3.4,0.6,5.4,0.3c-0.6-6.3-1.1-15.8-4.5-27.5
				c-6.9-23.8-16.3-31.1-16.3-31.1s5.5,10.4,9.2,20.7C242.1,312.1,242.9,314.3,244.3,325.9z"/>
			<path class="st1" d="M246.5,362.6c0.9,7.5,1.2,12.3,1.2,16.4c1.7,0.5,3.4,0.6,5.4,0.3c-0.6-6.3-1.1-15.8-4.5-27.5
				c-6.9-23.8-16.3-31.1-16.3-31.1s5.5,10.4,9.2,20.7C244.2,348.9,245.1,351.1,246.5,362.6z"/>
			<path class="st1" d="M256.9,341.1c0.9,7.5,1.2,12.3,1.2,16.4c1.7,0.5,3.4,0.6,5.4,0.3c-0.6-6.3-1.1-15.8-4.5-27.5
				c-6.9-23.8-16.3-31.1-16.3-31.1s5.5,10.4,9.2,20.7C254.6,327.3,255.5,329.5,256.9,341.1z"/>
			<path class="st1" d="M271.6,319.4c0.9,7.5,1.2,12.3,1.2,16.4c1.7,0.5,3.4,0.6,5.4,0.3c-0.6-6.3-1.1-15.8-4.5-27.5
				c-6.9-23.8-16.3-31.1-16.3-31.1s5.5,10.4,9.2,20.7C269.3,305.6,270.2,307.9,271.6,319.4z"/>
			<path class="st1" d="M288.9,302.5c0.9,7.5,1.2,12.3,1.2,16.4c1.7,0.5,3.4,0.6,5.4,0.3c-0.6-6.3-1.1-15.8-4.5-27.5
				c-6.9-23.8-16.3-31.1-16.3-31.1s5.5,10.4,9.2,20.7C286.7,288.7,287.5,291,288.9,302.5z"/>
			<path class="st1" d="M288.9,358.4c0.9,7.5,1.2,12.3,1.2,16.4c1.7,0.5,3.4,0.6,5.4,0.3c-0.6-6.3-1.1-15.8-4.5-27.5
				c-6.9-23.8-16.3-31.1-16.3-31.1s5.5,10.4,9.2,20.7C286.7,344.6,287.5,346.9,288.9,358.4z"/>
			<path class="st1" d="M305,346.1c0.9,7.5,1.2,12.3,1.2,16.4c1.7,0.5,3.4,0.6,5.4,0.3c-0.6-6.3-1.1-15.8-4.5-27.5
				c-6.9-23.8-16.3-31.1-16.3-31.1s5.5,10.4,9.2,20.7C302.8,332.3,303.6,334.5,305,346.1z"/>
			<g>
				<path class="st1" d="M179.4,217.8c-0.2,7.6-0.6,12.3-1.2,16.4c1.6,0.8,3.3,1.1,5.3,1.1c0.3-6.4,1.2-15.8-0.4-27.9
					c-3.3-24.6-11.6-33.1-11.6-33.1s3.9,11.1,6.1,21.8C179.2,203.8,179.8,206.1,179.4,217.8z"/>
				<path class="st1" d="M197.2,207c-0.2,7.6-0.6,12.3-1.2,16.4c1.6,0.8,3.3,1.1,5.3,1.1c0.3-6.4,1.2-15.8-0.4-27.9
					c-3.3-24.6-11.6-33.1-11.6-33.1s3.9,11.1,6.1,21.8C197,193,197.5,195.3,197.2,207z"/>
				<path class="st1" d="M212.8,194.4c-0.2,7.6-0.6,12.3-1.2,16.4c1.6,0.8,3.3,1.1,5.3,1.1c0.3-6.4,1.2-15.8-0.4-27.9
					c-3.3-24.6-11.6-33.1-11.6-33.1s3.9,11.1,6.1,21.8C212.6,180.4,213.1,182.7,212.8,194.4z"/>
			</g>
			<g>
				<path class="st1" d="M205.3,230.9c-1.3,7.5-2.3,12.1-3.4,16.1c1.5,1,3.1,1.6,5.1,1.9c1.2-6.2,3.4-15.4,3.4-27.7
					c0.1-24.8-6.9-34.4-6.9-34.4s2.3,11.5,3,22.4C207,217.1,207.2,219.4,205.3,230.9z"/>
				<path class="st1" d="M224.3,222.7c-1.3,7.5-2.3,12.1-3.4,16.1c1.5,1,3.1,1.6,5.1,1.9c1.2-6.2,3.4-15.4,3.4-27.7
					c0.1-24.8-6.9-34.4-6.9-34.4s2.3,11.5,3,22.4C226,208.8,226.2,211.2,224.3,222.7z"/>
				<path class="st1" d="M241.5,212.3c-1.3,7.5-2.3,12.1-3.4,16.1c1.5,1,3.1,1.6,5.1,1.9c1.2-6.3,3.4-15.4,3.4-27.7
					c0.1-24.8-6.9-34.4-6.9-34.4s2.3,11.5,3,22.4C243.2,198.5,243.4,200.8,241.5,212.3z"/>
			</g>
			<g>
				<path class="st1" d="M230.3,250.5c-1.3,7.5-2.3,12.1-3.4,16.1c1.5,1,3.1,1.6,5.1,1.9c1.2-6.2,3.4-15.4,3.4-27.7
					c0.1-24.8-6.9-34.4-6.9-34.4s2.3,11.5,3,22.4C232,236.6,232.2,239,230.3,250.5z"/>
				<path class="st1" d="M249.3,242.3c-1.3,7.5-2.3,12.1-3.4,16.1c1.5,1,3.1,1.6,5.1,1.9c1.2-6.3,3.4-15.4,3.4-27.7
					c0.1-24.8-6.9-34.4-6.9-34.4s2.3,11.5,3,22.4C251.1,228.4,251.3,230.8,249.3,242.3z"/>
				<path class="st1" d="M266.5,231.9c-1.3,7.5-2.3,12.1-3.4,16.1c1.5,1,3.1,1.6,5.1,1.9c1.2-6.2,3.4-15.4,3.4-27.7
					c0.1-24.8-6.9-34.4-6.9-34.4s2.3,11.5,3,22.4C268.3,218.1,268.5,220.4,266.5,231.9z"/>
			</g>
			<g>
				<path class="st1" d="M258.8,254.7c-1.3,7.5-2.3,12.1-3.4,16.1c1.5,1,3.1,1.6,5.1,1.9c1.2-6.3,3.4-15.4,3.4-27.7
					c0.1-24.8-6.9-34.4-6.9-34.4s2.3,11.5,3,22.4C260.6,240.8,260.8,243.2,258.8,254.7z"/>
				<path class="st1" d="M277.9,246.5c-1.3,7.5-2.3,12.1-3.4,16.1c1.5,1,3.1,1.6,5.1,1.9c1.2-6.2,3.4-15.4,3.4-27.7
					c0.1-24.8-6.9-34.4-6.9-34.4s2.3,11.5,3,22.4C279.6,232.6,279.8,235,277.9,246.5z"/>
				<path class="st1" d="M295.1,236.1c-1.3,7.5-2.3,12.1-3.4,16.1c1.5,1,3.1,1.6,5.1,1.9c1.2-6.3,3.4-15.4,3.4-27.7
					c0.1-24.8-6.9-34.4-6.9-34.4s2.3,11.5,3,22.4C296.8,222.2,297,224.6,295.1,236.1z"/>
			</g>
			<g>
				<path class="st1" d="M268.5,278.9c-1.3,7.5-2.3,12.1-3.4,16.1c1.5,1,3.1,1.6,5.1,1.9c1.2-6.2,3.4-15.4,3.4-27.7
					c0.1-24.8-6.9-34.4-6.9-34.4s2.3,11.5,3,22.4C270.2,265,270.4,267.4,268.5,278.9z"/>
				<path class="st1" d="M287.5,270.7c-1.3,7.5-2.3,12.1-3.4,16.1c1.5,1,3.1,1.6,5.1,1.9c1.2-6.3,3.4-15.4,3.4-27.7
					c0.1-24.8-6.9-34.4-6.9-34.4s2.3,11.5,3,22.4C289.3,256.8,289.5,259.2,287.5,270.7z"/>
				<path class="st1" d="M304.7,260.3c-1.3,7.5-2.3,12.1-3.4,16.1c1.5,1,3.1,1.6,5.1,1.9c1.2-6.2,3.4-15.4,3.4-27.7
					c0.1-24.8-6.9-34.4-6.9-34.4s2.3,11.5,3,22.4C306.5,246.5,306.7,248.8,304.7,260.3z"/>
			</g>
		</g>
		<g>
			<path class="st4" d="M251.3,476.9c-124.1,0-225-100.9-225-225c0-124.1,100.9-225,225-225c124.1,0,225,100.9,225,225
				C476.3,375.9,375.4,476.9,251.3,476.9z M251.3,33C130.6,33,32.4,131.2,32.4,251.9c0,120.7,98.2,218.9,218.9,218.9
				c120.7,0,218.9-98.2,218.9-218.9C470.2,131.2,372,33,251.3,33z"/>
		</g>
	</g>
</g>
<g id="Layer_2">
</g>
</svg>
