<?xml version="1.0" encoding="UTF-8"?>
<svg id="Layer_1" data-name="Layer 1" xmlns="http://www.w3.org/2000/svg" viewBox="0 0 512 378.25">
  <path d="m512,150.1c-5.8,7.87-11.37,15.92-17.44,23.57-12.65,15.92-25.55,31.63-38.36,47.42-8.3,10.22-17.58,10.92-27.48,2.13-5.48-4.87-10.86-9.86-16.54-14.5-7.7-6.29-16.69-9.06-26.57-7.8-17.15,2.18-32.38-1.82-45.56-13.17-1.14-.98-2.52-1.7-3.52-2.79-12.58-13.7-29.62-17.68-47.09-21.6v13.55c3.34.25,6.54.14,9.57.78,17.1,3.59,28.08,15.93,29.1,33.48,1.22,20.85-5.23,39.08-20.37,53.81-5.86,5.71-12.87,9.54-21.09,10.51-3.15.37-4.47,1.89-5.46,4.68-6.87,19.37-18.11,35.88-32.97,49.99-.84.8-1.69,1.64-2.65,2.27-3.6,2.35-7.08,1.97-9.86-1.21-2.63-3.01-2.65-6.53-.03-9.56,2.94-3.39,6.37-6.36,9.35-9.72,18.87-21.3,28.76-46.17,28.99-74.67.2-24.67-.03-49.35.15-74.02.03-3.59-1.1-5.07-4.5-5.65-3.1-.53-6.16-1.45-9.15-2.46-8.51-2.89-16.77-2.72-25.42.1-12.64,4.13-24.93-3.74-26.64-16.63-1.02-7.64,1.58-14.26,7.79-18.94,4.9-3.69,10.2-6.86,14.59-9.77-1.96-5.53-4.26-10.98-5.8-16.63-1.56-5.75-2.38-11.71-3.64-18.21-4.45,3.59-8.94,6.15-13.6,1.33-2.76-2.85-3.03-6.38-.91-9.65,2.96-4.56,7.23-4.61,12.54-1.9-2.09-10.96-4.02-21.04-5.92-31.12-.65-3.43-1.47-6.86-1.75-10.33-.74-9.09,5.79-16.33,14.94-16.25,9.99.08,20,.47,29.97,1.1,7.98.5,13.44,6.18,14.3,14.16.25,2.32.43,4.65.69,6.96,1.35,11.81,2.23,12.54,15.87,12.58,0-3.26-.26-6.56.04-9.81,1.86-20.06,22.03-30.86,39.75-21.35.73.39,1.45.79,2.57,1.41,4.88-6.67,11.32-11.12,19.73-12.02,8.46-.91,15.68,2.04,21.85,7.68,15.58-12.8,32.01-8.65,41.37,3.52,5.68-1.32,11.05-3.5,16.48-3.64,14.6-.36,26.14,11.34,26.51,26.24.22,8.66.13,17.34-.05,26-.06,2.95.7,4.82,3.34,6.5,13.58,8.61,22.2,20.88,25.79,36.56,2.08,9.06,6.66,16.5,13.2,23.06,4.97,4.99,9.27,10.64,13.88,16v8Zm-91.64-48.59c1.72,1.33,2.98,2.38,4.3,3.32,8.29,5.87,16.7,11.59,24.89,17.6,11.43,8.39,16.36,22.21,12.88,35.34-5.67,21.47-28.61,31.25-48.9,20.6-21.66-11.38-43.25-22.91-64.72-34.64-13.37-7.3-27.06-13.6-42.15-16.36-13.26-2.43-26.73-4.04-39.74-7.45-13.21-3.46-24.16.63-35,7.02-1.43.84-2.77,1.85-4.16,2.76-3.11,2.02-5.84,4.31-3.79,8.51,2.07,4.23,5.52,3.38,9.03,2.14,9.25-3.29,18.52-3.32,27.96-.55,9.26,2.72,18.57,5.27,27.97,7.47,23.06,5.39,45.05,12.6,62.47,30.03,7.94,7.95,18.47,10.29,29.64,8.84,18.11-2.34,33.44,3.26,46.47,15.87,4.5,4.36,9.35,8.35,14.44,12.85,18.74-23.14,37.04-45.73,56.35-69.58-1.75-1.09-3.3-1.81-4.57-2.88-12.53-10.46-21.03-23.28-24.46-39.55-1.77-8.4-6.86-15.22-13.87-20.59-8.09,17.16-16.63,21.89-35.04,19.23Zm-146.4-45.74c1.26,13.72,2.39,26.97,3.74,40.21,1.14,11.19,1.2,11.52,12.6,13.11,25.72,3.57,49.66,11.75,72.18,24.85,19.12,11.12,38.92,21.1,58.5,31.44,9.32,4.93,19.79,2.12,24.9-6.33,5.01-8.29,2.82-18.8-5.51-24.79-13.39-9.62-26.91-19.07-40.44-28.5-1.27-.88-3.07-1.73-4.49-1.54-9.17,1.2-17.11-1.29-23.79-7.52-13.82,11.01-27.04,10.22-39.72-1.18-.96.65-1.64,1.11-2.32,1.58-17.13,11.71-39.18,2.04-42-18.51-.43-3.12-.32-6.32-.33-9.48q0-12.28-13.32-13.33Zm105.13-3.71h-.05c0,8.67-.17,17.34.05,26,.17,6.64,5.17,11.37,11.5,11.44,6.21.07,10.96-4.21,11.56-10.72.34-3.64.09-7.33.39-10.98.38-4.61,3.74-7.65,7.81-7.4,3.92.24,6.71,3.3,6.96,7.72.17,2.99-.03,6.02.38,8.97.88,6.45,5.3,10.28,11.42,10.27,6.2-.01,11.37-4.28,11.54-10.79.38-14.49.4-29,.07-43.48-.14-6.12-5.43-10.42-11.34-10.51-5.77-.09-10.4,3.77-11.58,9.68-.23,1.14-.33,2.31-.6,3.45-.97,3.98-3.66,5.99-7.62,5.77-3.97-.23-6.45-2.56-6.85-6.63-.23-2.31-.09-4.66-.19-6.99-.32-7.73-5.04-12.82-11.81-12.75-6.75.07-11.52,5.29-11.61,12.97-.1,8-.02,16-.02,24Zm-115.77,52.39c-2.46-27.37-4.87-54.13-7.34-81.59h-28.96c-.02.19-.13.54-.07.85,4.47,23.52,8.8,47.06,13.66,70.5.55,2.65,3.73,5.73,6.4,6.75,4.88,1.85,10.29,2.3,16.3,3.5Zm100.71-52.2s.05,0,.07,0c0-8.33.09-16.66-.03-24.99-.1-7.31-4.96-12.28-11.69-12.23-6.52.05-11.4,4.91-11.47,11.92-.16,16.66-.19,33.32-.12,49.97.03,7.49,4.68,12.35,11.42,12.42,6.95.08,11.71-4.93,11.79-12.62.09-8.16.02-16.32.02-24.49Zm-61.69,2.24s-.07,0-.11,0c0,6.33-.05,12.66.01,18.99.08,8.46,4.72,13.72,11.92,13.64,6.97-.08,11.53-5.25,11.6-13.46.11-12.66.13-25.32.09-37.99-.03-8-4.82-13.41-11.66-13.48-6.85-.06-11.65,5.23-11.82,13.3-.13,6.33-.03,12.66-.03,18.99Zm-13.97,205.17c.49-.21,1.89-.71,3.18-1.4,15.35-8.22,26.03-35.21,20.64-51.86-2.58-7.95-8.34-12.21-16.09-14.07-4.46-1.07-6.96.54-7,4.17-.27,21.09-.49,42.18-.72,63.16Z"/>
  <path d="m0,208.11c2.63-5.84,5.06-11.78,8-17.45,1.1-2.12,3.1-4.19,5.2-5.27,5.11-2.63,5.8-6.6,5.74-11.86-.27-23-.19-46.01-.1-69.01.16-42.2,27.83-75.52,69.36-82.84,8.61-1.52,17.59-1.08,26.41-1.24,10.5-.19,21,.05,31.49-.08,6.88-.08,12.32,2.06,15.82,8.39.6,1.08,2.57,1.9,3.95,1.97,5.16.23,10.33.04,15.49.11,5.79.09,8.77,2.57,8.87,7.22.1,4.77-3.12,7.64-8.99,7.74-6.14.1-12.29.02-18.61.02-.96,3.67-1.65,7.07-2.74,10.33-7.26,21.83-21.47,37.29-42.82,45.92-24.25,9.79-36.05,26.99-36.06,53.08,0,5.83.03,11.67,0,17.5-.08,13.88-8.49,22.9-22.22,23.87-1.3.09-2.59.25-4.15.4-.13,1.5-.37,2.79-.33,4.06.5,17.81-.13,35.74,1.87,53.38,2.64,23.33,13.44,43.46,29.86,60.26,10.25,10.48,20.86,20.63,31.7,30.51,26.26,23.93,65.34,24.19,92.1.9.75-.66,1.47-1.36,2.26-1.97,3.71-2.86,8-2.68,10.74.42,2.84,3.22,2.68,7.33-.84,10.69-10.06,9.62-21.8,16.47-35.28,19.94-30.03,7.71-56.9,1.26-79.73-19.66-13.62-12.48-26.75-25.57-39.25-39.17-9.52-10.36-15.8-23.02-20.57-36.3-.82-2.27-1.49-3.96-4.5-4.35-12.92-1.67-22.24-9.16-29.64-19.36-6.37-8.78-10.02-18.73-12.01-29.34-.24-1.29-.67-2.55-1.01-3.82,0-5,0-10,0-15Zm33.99-31.64c3.65.96,6.97,1.91,10.32,2.71,3.64.86,7.29,2.13,10.98,2.26,8.71.3,10.55-2,10.78-10.92.28-10.8-.44-21.87,1.65-32.34,4.75-23.72,19.14-40.24,41.75-49.12,18.96-7.45,31.61-20.54,36.88-40.34,1.11-4.19,1.36-8.61,2.07-13.4-16.1,0-31.08-.17-46.05.03-39.47.52-68.44,29.88-68.57,69.43-.08,22.5-.02,45,0,67.5,0,1.47.13,2.94.19,4.2Zm7.38,83.89c-.53-4.71-1.29-8.65-1.37-12.59-.34-16.65-.48-33.31-.69-49.96-.06-4.94-1.85-6.6-6.74-5.49-8.41,1.91-14.38,6.69-16.64,15.37-4.22,16.21,5.11,40.37,19.19,49.49,1.76,1.14,3.75,1.93,6.25,3.19Z"/>
  <path d="m161.12,296.14c-9.57-.16-21.03-4-31.1-11.8-4.33-3.36-5.35-7.6-2.79-11.18,2.73-3.82,7.11-4.09,11.83-.73,16.54,11.77,33.9,11.76,50.41,0,4.52-3.22,8.76-3.1,11.53.33,2.98,3.69,2.08,7.91-2.48,11.58-9.26,7.45-21.91,11.81-37.39,11.81Z"/>
  <path d="m132.53,205.45c-.07,7.54-6.28,13.67-13.78,13.61-7.45-.06-13.68-6.35-13.65-13.79.03-7.5,6.23-13.57,13.82-13.54,7.58.03,13.68,6.18,13.6,13.72Z"/>
  <path d="m227.11,205.6c-.07,7.58-6.19,13.6-13.76,13.52-7.56-.08-13.52-6.19-13.46-13.83.06-7.62,6.1-13.53,13.76-13.46,7.65.07,13.53,6.09,13.46,13.77Z"/>
  <path d="m167.95,78.94c-4.22-.13-7.87-3.92-7.82-8.13.05-4.52,3.88-8.05,8.49-7.82,4.41.22,7.63,3.78,7.46,8.26-.17,4.35-3.84,7.83-8.13,7.69Z"/>
  <path d="m198.95,86.8c.05,4.25-3.53,8.01-7.78,8.14-4.46.14-8.26-3.65-8.19-8.19.07-4.41,3.53-7.78,7.98-7.77,4.41,0,7.93,3.45,7.99,7.81Z"/>
  <path d="m205.59,102.62c.1-4.38,3.6-7.74,8.02-7.71,4.42.04,7.87,3.48,7.88,7.86.02,4.48-3.9,8.29-8.29,8.08-4.29-.21-7.71-3.91-7.61-8.24Z"/>
</svg>