<?xml version="1.0" encoding="UTF-8"?>
<svg id="Layer_1" data-name="Layer 1" xmlns="http://www.w3.org/2000/svg" viewBox="0 0 432.81 446.61">
  <path d="m365.51,0c5.99,4.93,6.12,8.28.48,13.92-46.14,46.15-92.26,92.32-138.46,138.4-2.31,2.31-3.44,4.56-3.44,7.91-.02,13.08-.32,26.16-.65,39.23-.07,2.71.46,4.34,3.18,5.78,8.55,4.55,12.53,14.28,10.06,23.34-2.54,9.31-10.68,15.63-20.15,15.65-9.22.02-17.69-6.33-20.16-15.12-2.64-9.38,1.2-19.09,9.9-23.79,2.62-1.42,3.29-2.96,3.31-5.71.09-12.93.5-25.87.51-38.8,0-2.03-1.06-4.42-2.39-6-2.89-3.43-6.33-6.4-9.44-9.66-3.64-3.82-3.66-7.25-.04-11.06,3-3.16,5.95-6.42,9.28-9.21,3.76-3.14,4.97-6.87,3.99-12.32-4.57,4.57-8.82,8.82-13.07,13.07-1.44,1.44-2.84,2.91-4.33,4.3-3.88,3.61-7.25,3.66-11.07-.02-4.19-4.03-8.28-8.16-12.35-12.32-4.19-4.28-4.17-7.67.14-12,13.65-13.69,27.41-27.27,40.91-41.09,1.83-1.87,3-4.84,3.48-7.47.8-4.41.82-8.96,1.12-13.45.37-5.71,2.76-8.67,7.09-8.71,4.48-.04,6.73,2.92,6.9,9.05.01.37.17.74.56,2.34C246.47,30.48,261.5,15.24,276.53,0c1.74,0,3.49,0,5.23,0,5.97,4.95,6.1,8.29.47,13.92-16.53,16.55-32.97,33.19-49.71,49.53-3.58,3.49-4.78,7.11-4.13,13.06C254.2,50.55,279.32,25.28,304.44,0c1.74,0,3.49,0,5.23,0,5.98,4.96,6.1,8.29.47,13.93-26.62,26.63-53.18,53.32-79.97,79.78-3.44,3.4-3.95,6.91-3.71,12.6,35.86-36.01,70.88-71.16,105.89-106.31,1.74,0,3.49,0,5.23,0,5.99,4.93,6.12,8.28.49,13.91-40.67,40.69-81.35,81.37-122.03,122.06-1.18,1.18-2.31,2.42-3.57,3.73,1.56,1.45,2.7,2.51,4.94,4.6,1.07-1.62,1.81-3.29,3.02-4.49C267.02,93.18,313.65,46.59,360.27,0c1.74,0,3.49,0,5.23,0Zm-152.18,84.53c-9.03,9.05-18.36,18.4-28.01,28.07.56.58,1.71,1.79,3.24,3.39,7.01-7.09,13.43-13.95,20.28-20.33,3.64-3.39,5.04-7.1,4.5-11.13Zm10.04,138.9c.06-3.83-2.95-6.94-6.78-7-3.73-.06-7.04,3.12-7.08,6.81-.04,3.69,3.17,6.96,6.89,7.01,3.8.06,6.91-2.98,6.97-6.82Z"/>
  <path d="m4.36,446.61c-1.41-2.08-3.46-3.98-4.1-6.27-.99-3.53,2.14-7.09,6.04-7.59,1.58-.2,3.19-.09,4.79-.09,136.94,0,273.88,0,410.82,0,.44,0,.87.02,1.31,0,4.05-.25,7.72.45,9.19,4.84,1.4,4.15-1.05,6.83-4.09,9.12H4.36Z"/>
  <path d="m295.09,260.88c.46-8.09.84-15.75,1.33-23.4,1.18-18.27,2.39-36.54,3.62-54.81.36-5.41,3.26-8.48,7.57-8.16,4.33.32,6.69,3.69,6.35,9.18-1.49,23.93-3,47.86-4.48,71.79-.09,1.41-.01,2.83-.01,4.73,2.51-.41,4.75-1.11,6.98-1.08,9.1.13,18.27-.16,27.27.92,10.57,1.27,23.34,1.09,35.26-2.24.39-6.67.74-13.47,1.18-20.26,1.18-18.13,2.38-36.25,3.6-54.37.39-5.85,3.13-8.96,7.53-8.69,4.55.28,6.78,3.85,6.38,9.99-1.5,23.49-2.97,46.99-4.43,70.48-.07,1.13,0,2.27,0,3.49,9.75,2.61,19.33,3.31,29.08,1.76,1.96-.31,4.17-.51,5.99.08,3.04.99,4.6,3.52,4.35,6.79-.3,3.93-2.85,6.39-6.46,6.5-9.67.31-19.36.1-29.04.02-1.4-.01-2.79-.45-4.16-.69-1.37,6.25-1.41,6.78,4.19,7.24,8.61.7,17.29.91,25.93.7,5.23-.12,8.69,1.28,9.49,5.39.82,4.25-1.93,8.18-7.22,8.4-9.52.4-19.07-.02-28.6-.18-1.55-.03-3.1-.47-5.74-.9,0,8.73.02,16.99,0,25.26-.02,5.38.12,10.77-.2,16.13-.3,4.99.25,8.51,5.47,11.57,7.94,4.66,10.36,14.92,7.19,23.52-3.16,8.57-11.6,14.16-20.72,13.71-9.06-.44-16.87-6.89-19.14-15.81-2.28-8.94,1.35-18.27,9.54-22.74,3.1-1.69,3.83-3.56,3.8-6.75-.14-14.8-.06-29.61-.06-44.91-2.35.39-5.13,1.19-7.92,1.25-8.67.17-17.36.27-26.03,0-5.92-.19-11.83-1.59-17.73-1.5-5.61.09-11.2,1.42-17.9,2.36,0,7.33.03,14.54,0,21.75-.04,7.27-.01,14.54-.27,21.8-.1,2.81.71,4.25,3.33,5.66,9,4.83,12.85,15.61,9.42,25.08-3.44,9.49-13.6,15.4-23.25,13.53-10.29-2-17.66-10.77-17.32-21,.27-8.04,4.19-13.97,11.13-18.05,1.16-.68,2.65-2.13,2.66-3.24.18-14.95.12-29.91.12-45.22-10.93-2.36-22.35-3.99-34.22-1.53-6.88,1.42-14.07,1.33-21.63,1.96,0,1.25,0,2.8,0,4.35,0,20.79.08,41.58-.05,62.36-.07,10.45-7.63,18.86-17.93,20.48-9.43,1.49-19.21-4.23-22.43-13.48-.98-2.81-1.37-5.96-1.39-8.95-.12-20.06-.06-40.12-.06-60.18,0-1.57,0-3.15,0-5.22-18.42,1.63-36.46-7.11-55.8,1.13,0,14.05-.08,29.14.15,44.23.02,1.26,1.97,2.82,3.37,3.67,8.75,5.29,12.63,15.85,9.1,25.32-3.54,9.51-13.67,15.28-23.36,13.32-10.29-2.08-17.57-10.9-17.15-21.14.32-7.86,4.16-13.7,10.91-17.74,1.19-.71,2.85-2.05,2.87-3.11.19-15.09.13-30.18.13-45.45-11.5-2.63-23.34-3.37-35.7-1.46-9.29,1.44-19.02.04-28.55-.15-1.42-.03-2.83-.39-5.33-.76,0,8.68.02,16.94,0,25.2-.02,5.09.12,10.19-.2,15.26-.34,5.38.18,9.34,5.8,12.73,7.92,4.77,10.06,15.06,6.69,23.64-3.36,8.56-11.86,13.95-20.97,13.3-9.06-.65-16.65-7.18-18.8-16.2-2.12-8.86,1.76-18.23,9.97-22.58,2.86-1.52,3.45-3.22,3.43-6.05-.09-14.95-.04-29.91-.04-45.34-2.89.47-6.24,1.41-9.6,1.47-8.39.13-16.8.17-25.16-.39-5.03-.34-7.75-4.12-7.06-8.16.72-4.22,4.18-6.5,9.29-5.48,10.52,2.09,20.83.41,31.15-1.32,4.81-.81,2.23-4.31,2.85-7.31-4.05.66-7.59,1.68-11.14,1.74-8.39.15-16.8.16-25.16-.41-5-.34-7.71-4.18-6.98-8.23.76-4.21,4.22-6.45,9.34-5.4,10.98,2.24,21.7.21,32.41-1.68.99-.17,2.24-2.36,2.33-3.68,1.07-16.39,1.9-32.79,2.89-49.18.47-7.83,1.14-15.65,1.76-23.47.38-4.79,3.23-7.7,7.29-7.55,4.26.16,6.93,3.41,6.61,8.51-1.24,19.58-2.61,39.15-3.88,58.72-.35,5.5-.51,11-.77,16.66,9.59,2.68,19.11,3.7,28.6,1.8,12.03-2.4,23.92-2.63,35.88.02,1.51.34,3.08.41,5.03.66.45-7.94.83-15.45,1.31-22.96,1.18-18.42,2.41-36.83,3.64-55.24.36-5.39,3.27-8.48,7.57-8.17,4.32.31,6.69,3.66,6.35,9.18-1.48,23.93-2.99,47.86-4.47,71.79-.09,1.41-.01,2.83-.01,4.72,2.51-.41,4.75-1.11,6.98-1.07,9.1.13,18.19.55,27.29.75,7.65.16,15.34.62,22.96.1,7.02-.48,10.15,1.69,10.15,8.82.02,30.24,0,60.47.01,90.71,0,1.45-.14,2.95.14,4.35.76,3.73,3.13,5.98,6.98,5.9,3.84-.09,6.13-2.38,6.74-6.17.21-1.28.08-2.61.08-3.92,0-29.95,0-59.89,0-89.84,0-8.54,2.86-10.52,11.33-9.6,6.44.7,13.17,1,19.49-.12,12.07-2.13,23.93-2.54,35.9.11,1.51.34,3.08.41,5.02.66Zm82.81,11.69c-1.39.14-2.83.15-4.2.46-11.95,2.66-23.85,2.42-35.83-.02-9.84-2.01-19.54-.6-29.14,1.94v5c10.26,0,20.33-1.01,30.1.26,11.5,1.5,22.69,2.23,34.1-.16,5.9-1.23,5.99-.84,4.96-7.47Zm-320.61,6.5c10.47,3.23,22.4,3.71,33.07,1.49,9.51-1.98,19.03-1.92,28.56-.05,2.5.49,5.04.82,7.87,1.28v-6.64c-11.3-2.26-22.25-3.91-33.58-2.11-7.83,1.24-15.86,1.42-23.81,1.57-3.82.07-7.66-1.04-11.84-1.67-.1,2.3-.19,4.27-.27,6.13Zm180.1,3.24c6.93-.56,13.37-1.22,19.83-1.57,8.21-.44,16.43-.89,24.65-.83,3.98.03,7.95,1.19,12.12,1.87.2-1.32.41-2.29.47-3.27.07-1.12.02-2.24.02-2.67-19.28-7.9-38.14.11-57.09-.88v7.34Zm-96.52-.09c18.56-7.36,36.36,1.22,54.24-.57v-5.86c-9.45-1.13-18.5-2.22-27.54-3.28-8.9-1.05-17.59.12-26.36,2.43-.1,2.06-.18,3.9-.34,7.28Zm166.18,80.42c-.12-3.77-3.32-6.7-7.18-6.57-3.84.13-6.88,3.34-6.71,7.07.17,3.73,3.49,6.8,7.21,6.65,3.77-.15,6.8-3.39,6.68-7.15Zm76.73,7.15c3.75.04,6.94-3.07,7.01-6.83.07-3.78-2.99-6.85-6.87-6.89-3.85-.04-7.01,2.99-7.02,6.75-.02,3.73,3.14,6.93,6.88,6.97Zm-327.96-6.74c.11-3.8-2.88-6.89-6.76-6.97-3.85-.08-7.05,2.91-7.12,6.66-.07,3.72,3.07,6.97,6.8,7.06,3.77.09,6.97-2.96,7.08-6.74Zm76.81,6.74c3.77,0,6.9-3.11,6.93-6.89.03-3.8-3.03-6.82-6.91-6.83-3.85,0-6.99,3.06-6.97,6.8.02,3.73,3.22,6.91,6.95,6.91Z"/>
</svg>