<?xml version="1.0" encoding="utf-8"?>
<!-- Generator: Adobe Illustrator 27.2.0, SVG Export Plug-In . SVG Version: 6.00 Build 0)  -->
<svg version="1.1" id="Layer_1" xmlns="http://www.w3.org/2000/svg" xmlns:xlink="http://www.w3.org/1999/xlink" x="0px" y="0px"
	 viewBox="0 0 1080 1080" style="enable-background:new 0 0 1080 1080;" xml:space="preserve">
<style type="text/css">
	.st0{clip-path:url(#SVGID_00000085933707183244833560000015398954323807163575_);}
	.st1{clip-path:url(#SVGID_00000074416503048000800920000005723004307060454059_);}
	.st2{fill:url(#SVGID_00000018233930466993572250000005802528782108388766_);}
	.st3{clip-path:url(#SVGID_00000021113179094522627260000002503811810307589767_);}
	.st4{clip-path:url(#SVGID_00000076564374814383138620000002415546489455777972_);}
	.st5{fill:url(#SVGID_00000025432876628016214550000003416585028207356802_);}
	.st6{fill:#36312E;}
</style>
<g>
	<defs>
		<rect id="SVGID_1_" x="30.7" y="68.3" width="1018.7" height="883.7"/>
	</defs>
	<clipPath id="SVGID_00000103949353616516696500000001636785582067478953_">
		<use xlink:href="#SVGID_1_"  style="overflow:visible;"/>
	</clipPath>
	<g style="clip-path:url(#SVGID_00000103949353616516696500000001636785582067478953_);">
		<g>
			<defs>
				<path id="SVGID_00000172417803954308254120000017072283851883547316_" d="M1042.4,779.2c-5.5-5.5-11.1-11.3-16.9-16.3
					c-6.1-4.9-6.4-10.2-3.5-17.2c7.3-17.8,14.6-35.5,20.7-53.8c1.5-4.1,0-10.8-2.9-13.7c-2.3-2.3-8.7-2-13.1-0.9
					c-9.9,2.6-19.2,7.3-29.1,9.6c-32.3,7.9-63.5,1.7-94.9-4.7c33.8-60.5,51.5-129.2,51.5-200.5c0-110.6-43.1-214.5-121.4-292.7
					C754.4,111.4,650.5,68.3,539.9,68.3c-110.6,0-214.6,43.1-292.9,121.3c-78.3,78.3-121.4,182.2-121.4,292.7
					c0,71.3,18.1,139.7,51.5,200.5c-10.5,2-20.7,3.8-31.2,5.5c-31.7,4.9-62.6,3.8-92-10.5c-4.9-2.3-9.6-4.1-14.3,0
					c-4.9,4.1-4.9,9.3-2.9,14.8c7,18,14,36.1,21.3,54.1c2.6,6.4,1.7,11.1-3.5,15.7c-6.4,5.5-12.2,11.6-18.1,17.5
					c-7.9,7.9-7.9,19.5,1.2,25.9c7.6,5.5,15.7,11.1,24.2,14.3c31.7,11.6,64.3,10.2,96.9,4.4c22.1-3.8,44.2-7.9,67.8-11.9
					c0,4.4,0,6.4,0,8.4c0,27.6,0,55.3,0,82.9c0,11.1,4.1,17.5,14.6,20.7c13.7,4.4,27.4,9.3,41.3,11.1c37.3,4.7,74.8,8.7,112.1,11.3
					c36.1,2.6,72.5,3.8,108.9,4.4c89.4,0.9,178.8-0.6,267.6-12.5c21.3-2.9,42.5-7.9,63.5-13.4c15.4-4.1,18-9.3,18-25.3
					c0-25.6,0-51.5,0-77.1c0-2.9,0-5.8,0-9.9c15.1,2.3,29.1,4.1,42.8,6.7c30.9,5.8,61.7,11.9,93.5,7.3c18.9-2.9,37-7.3,52.1-20.1
					C1051.1,798.4,1051.7,788.2,1042.4,779.2z M1011.2,778.9c4.4,4.4,9,8.4,14,13.4c-12.5,9-25.9,11.9-39.9,14
					c-29.1,4.1-57.1-2-85.3-7.3c-9-1.7-18.1-3.2-27.4-4.4c-4.9-0.6-7.3-2.6-6.7-7.9c1.7-15.7-2.9-26.8-12.2-34.3
					c13.7-16,26.2-32.9,37.3-50.3c3.5,0.6,6.7,1.2,10.2,2c33.5,7,67.2,11.3,101.3,4.1c3.2-0.6,6.7-1.5,11.6-2.3
					c-4.4,11.3-7.6,21.2-11.6,30.8C994.9,754.4,996.9,765.5,1011.2,778.9z M833.9,789.7c-0.3-1.5-0.9-2.6-0.6-3.8
					c0.6-4.1-0.3-7.3-2-9.9c0.3-0.3,0.9-0.9,1.5-1.2c2-2,4.1-4.1,6.1-6.1C848.2,776,846.7,783.2,833.9,789.7z M829,787
					c0.6,4.4-1.8,6.4-5.5,7.3c-5,1.2-10.2,2-15.1,3.2c7-5.8,13.4-11.9,20.1-18.3C829.2,781.5,828.7,784.4,829,787z M863,693.9
					c-0.9,1.2-1.8,2.6-2.3,3.8c-10.2,15.1-21.3,29.4-33.5,42.8c-1.2,1.5-2.3,2.6-3.5,4.1c-2.3,2.3-4.7,4.9-7,7.3
					c-2,2.3-4.4,4.4-6.7,6.7c-2.6,2.3-4.9,4.9-7.6,7.3c-1.5,1.5-2.9,2.6-4.4,4.1c-10.5,9.3-21.5,18.3-32.9,26.5
					c-1.7,1.2-3.5,2.3-5.2,3.8c-2.3,1.5-4.4,3.2-6.7,4.7c0,0-24.5,4.7-32,5.2c7.6-4.4,14.8-8.7,22.1-13.4c2.6-1.8,5.2-3.5,7.6-5.2
					c2.9-2,5.8-4.1,9-6.4c1.7-1.2,3.5-2.6,5.2-3.8c6.1-4.7,12.2-9.6,18.3-14.8c1.5-1.2,2.9-2.3,4.1-3.8c2.6-2.3,5.2-4.7,7.9-7
					c2.3-2,4.4-4.4,6.7-6.4c0.3-0.3,0.6-0.6,0.9-0.9c2-2,4.1-4.4,6.4-6.4c1.2-1.5,2.6-2.6,3.8-4.1c11.9-12.8,22.7-26.2,32.6-40.4
					c0.9-1.5,2-2.9,2.9-4.1c1.7-2.6,3.5-5.2,5.2-7.9c1.7-2.9,3.5-5.5,5.2-8.4c34.6-57.3,53-123.1,53-191.5
					c0-99.2-38.7-192.6-108.9-263c-19.8-19.8-41.3-37-64.3-51.5c-127.5-82.9-291.1-75.9-410.2,8.7c-18,12.5-35.5,27.1-51.5,43.1
					c-70.5,68.7-109.2,162.1-109.2,261.6c0,68.7,18.3,134.1,53,191.5c1.7,2.9,3.5,5.5,5.2,8.4c1.7,2.6,3.5,5.2,5.2,7.9
					c0.9,1.5,1.8,2.9,2.9,4.1c9.9,14,20.7,27.6,32.6,40.2c1.2,1.2,2.3,2.6,3.5,3.8c2.3,2.3,4.4,4.7,6.7,7c0.3,0.3,0.6,0.6,0.9,0.9
					c2,2,4.1,4.1,6.1,6.1c2.6,2.6,5.5,5.2,8.4,7.9c1.5,1.2,2.6,2.3,4.1,3.5c5.8,5.2,11.9,10.2,18,14.8c1.8,1.5,3.5,2.6,5.5,4.1
					c2.6,2,5.5,4.1,8.2,5.8c2.6,1.8,5.5,3.8,8.2,5.5c7.3,4.9,14.8,9.3,22.7,13.7c-7.6-0.3-30.9-4.4-30.9-4.4
					c-2.9-1.8-5.5-3.8-8.2-5.5c-1.7-1.2-3.5-2.6-5.5-3.8c-11.6-8.4-22.7-17.2-33.2-26.8c-1.2-1.2-2.3-2.3-3.5-3.2
					c-2.6-2.6-5.5-4.9-8.2-7.6c-2-2-4.4-4.4-6.4-6.4c-2.3-2.3-4.4-4.7-6.7-7c-1.2-1.5-2.6-2.9-3.8-4.4
					c-12.2-13.4-23.3-27.6-33.5-42.8c-0.9-1.5-1.7-2.6-2.6-4.1c-1.7-2.3-3.2-4.9-4.7-7.6c-37-59.1-58.2-129.2-58.2-204
					C153.5,269.1,326.7,96,539.9,96C753,96,926.5,269.1,926.5,482.1c0,74.8-21.5,144.9-58.5,204.3C866.2,689,864.8,691.3,863,693.9z
					 M309.6,757.1c-2.9-2.3-5.8-4.9-8.7-7.6c-2-1.7-4.1-3.8-6.1-5.8c-2.6-2.6-5.2-5.2-7.9-7.9c-1.2-1.2-2.3-2.3-3.5-3.5
					c-11.1-11.3-21.2-23.6-30.9-36.4c-1.2-1.5-2-2.9-3.2-4.4c-2-2.9-4.1-6.1-6.4-9c-38.1-56.7-60.3-125.1-60.3-198.4
					c0-19.5,1.5-38.4,4.7-57c27.4-169.9,175.3-300,352.9-300c151.4,0,280.9,94.6,333.1,227.5c0.9,2.6,2,5.2,2.9,7.9
					c7.9,21.5,13.7,43.9,17.2,67.2c2.6,17.8,4.1,36.1,4.1,54.4c0,73.3-22.1,141.4-60.3,198.2c-2,2.9-4.1,5.8-6.1,8.7
					c-1.2,1.8-2.3,3.2-3.5,4.9c-9.6,12.8-19.8,25-30.9,36.4c-1.5,1.5-2.6,2.6-4.1,4.1c-2.3,2.3-4.9,4.7-7.3,7c-2,2-4.4,4.1-6.4,5.8
					c-2.9,2.6-5.5,4.9-8.4,7.6c-1.5,1.2-2.6,2.3-4.1,3.2c-0.3,0.3-0.6,0.6-0.9,0.6c-1.8,1.5-3.5,2.9-5.2,4.1c-2.9,2.3-5.8,4.7-9,6.7
					c-2.6,1.7-4.9,3.8-7.6,5.5c-18.3,12.8-37.8,23.9-58.2,32.9c-96.9,3.5-193.6,3.5-290.6,0.3c-20.7-9.3-40.2-20.4-58.5-33.2
					c-2.9-2-5.5-3.8-8.2-5.8c-2.9-2-5.5-4.1-8.2-6.4c-1.7-1.5-3.5-2.9-5.5-4.4c0,0,0,0-0.3,0C312.8,759.7,311.3,758.5,309.6,757.1z
					 M241.1,768.7c2,2,3.8,4.1,5.8,6.1c0.3,0.3,0.9,0.9,1.2,1.2c-2.3,3.5-2,8.7-2,13.4c-0.6,0.3-1.5,0.6-2,0.9
					c-2.9-3.8-8.2-7.3-8.4-11.1C235.3,776,238.2,771,241.1,768.7z M79,739.3c-4.4-10.8-8.7-21.2-14-33.5c8.4,1.7,15.1,2.9,21.5,4.1
					c31.2,4.9,62,0.6,92.6-5.8c3.2-0.6,6.7-1.5,9.9-2c11.1,17.5,23.3,34.3,37.3,50.1c-4.9,4.1-8.7,9.6-10.8,17.2
					c-1.5,5.8-0.6,12.2-1.5,18.3c-0.3,2.3-2.6,5.8-4.4,6.1c-19.8,3.8-39.9,7.3-60,10.5c-1.2,0.3-2.6-0.3-4.1-0.3
					c-10.8,1.2-21.8,3.8-32.6,2.9c-15.4-1.2-30.6-4.9-46-8.1c-4.1-0.9-7.6-3.8-12.5-6.4C70.5,777.7,88.6,764.3,79,739.3z
					 M251.6,779.2c6.7,6.7,13.7,12.8,21,18.9c-7-1.5-13.7-2.6-20.7-4.1C251,786.2,250.5,781.8,251.6,779.2z M226.9,782.7
					c0.3,7.3,0,14.5,0,22.1c-18.9,3.2-37.6,6.1-56.2,9c-4.4,0.6-9,1.2-13.7,1.7c-25.3,7.3-50.7,6.1-76,1.7
					c-13.7-2.3-26.5-7.6-37.3-16.9c-6.1-5.2-6.1-10.8-0.3-16.3c6.1-5.8,11.9-11.6,18.3-17.2c7-6.4,8.2-13.4,4.7-22.1
					c-3.2-7.9-6.4-16-9.3-24.2c-0.6-2-0.6-4.1-1.2-6.1c-4.4-9.9-8.7-19.8-14-31.1c4.7,0.6,6.4,0.3,7.6,0.9
					c34.4,17.2,70.2,16.6,107.1,10.2c8.4-1.5,16.9-2.9,25.3-4.4c1.5,2.3,2.9,4.9,4.4,7.3c-21.8,3.5-44,6.7-65.8,9
					c-20.7,2-41.3-1.5-62.3-8.4c1.5,4.4,2.3,7.3,3.2,10.2c1.7,5.5,3.5,10.8,4.9,16.3c2.9,6.4,6.4,12.5,8.7,18.9
					c4.1,11.1,1.7,21.2-7.3,29.4c-6.7,6.4-13.4,12.8-21.3,20.4c8.4,4.4,15.4,8.7,22.7,11.3c20.7,7.3,42.2,7.9,64.1,6.1
					c6.1-0.6,12.2-0.6,18-0.6c2.6-1.2,5.2-2.6,7.9-3.2c19.5-3.5,38.7-7,59.1-10.5c0-5.2,0.3-10.5,0-16c-0.6-10.5,2.9-19.5,11.1-25
					c2,2.3,3.8,4.4,5.8,6.4C229.5,767.2,226.6,773.9,226.9,782.7z M833.9,917.1c-16.3,4.4-32.9,9.3-49.5,11.9
					c-60.6,9.6-121.7,11.9-182.8,13.7c-70.5,2-140.9,1.5-211.1-4.1c-39.3-3.2-78.6-8.1-117.6-13.4c-10.8-1.5-21.3-6.1-31.4-10.2
					c-2.6-1.2-5.8-5.5-5.8-8.4c-0.3-37.2-0.3-74.5-0.3-112.6c16.9,8.7,34.4,13.1,52.4,16c10.8,1.7,21.5,2.9,32.3,3.8
					c9,0.9,18.1,1.7,26.8,2.3c9.9,0.9,19.8,1.5,29.7,2c14,0.9,27.9,1.5,41.9,1.7c61.1,1.7,122.6,0.9,183.7,0.3
					c21-0.3,41.9-0.6,62.6-1.5c13.7-0.6,27.4-1.2,41.1-1.8c9.6-0.6,18.9-0.9,28.5-1.5c4.4-0.3,8.7-0.6,12.8-0.6
					c15.1-0.9,30.3-2.3,45.1-4.9c13.4-2.3,26.8-5.8,39.9-10.8c4.1-1.5,7.9-3.5,12.5-5.5c0,4.9,0,9.3,0,13.7
					c0,31.4-0.3,62.8,0.3,94.3C845.3,911,840.9,915.1,833.9,917.1z M1036.5,800.1c-17.8,14.8-39,20.1-61.4,19.8
					c-19.5,0-38.7-2.3-58.2-4.7c-21.3-2.6-42.2-7-64.1-10.8c0-6.1,0-12.8,0-19.5c0-11.1-2-18-8.2-23c2-2,3.8-4.4,5.8-6.4
					c7.3,6.1,11.9,15.1,10.8,28.2c-0.3,4.4,0,8.4,0,13.1c12.8,2,25,4.1,37.3,6.4c29.1,5.5,57.9,11.3,87.6,7.3
					c16.6-2.3,32.3-6.4,45.7-18c-5.8-5.5-11.4-11.1-16.9-16c-12.8-11.3-15.4-21.8-9-37.5c5.2-13.1,10.5-26.2,16-40.4
					c-2.6,0.6-3.8,0.6-4.9,0.9c-27.1,8.7-54.7,9.3-82.7,5.5c-14-1.7-27.7-4.4-41.3-6.7c1.5-2.6,3.2-4.9,4.7-7.6
					c14.8,2.3,30,4.7,45.1,6.4c29.4,3.8,58.5,1.2,85.6-12.2c1.7-0.9,3.8-1.2,7.6-2.3c-0.9,3.8-0.9,6.4-1.7,8.7
					c-6.7,17.8-13.4,35.2-20.4,53c-3.5,8.7-2.6,16.3,4.7,22.7c6.4,5.8,12.5,11.9,18.9,17.8C1042.4,789.9,1042.1,795.5,1036.5,800.1z
					"/>
			</defs>
			<clipPath id="SVGID_00000092434711132594168280000000586084156502355389_">
				<use xlink:href="#SVGID_00000172417803954308254120000017072283851883547316_"  style="overflow:visible;"/>
			</clipPath>
			<g style="clip-path:url(#SVGID_00000092434711132594168280000000586084156502355389_);">
				
					<linearGradient id="SVGID_00000111187763556379799550000000993715346381911684_" gradientUnits="userSpaceOnUse" x1="201.4902" y1="901.5629" x2="529.091" y2="573.9634" gradientTransform="matrix(2.9114 0 0 -2.9098 -523.3541 2657.0574)">
					<stop  offset="0" style="stop-color:#FBE8A3"/>
					<stop  offset="0.25" style="stop-color:#FBE8A3"/>
					<stop  offset="0.375" style="stop-color:#FBE8A3"/>
					<stop  offset="0.4375" style="stop-color:#FBE8A3"/>
					<stop  offset="0.4637" style="stop-color:#FBE8A3"/>
					<stop  offset="0.4688" style="stop-color:#FBE8A3"/>
					<stop  offset="0.4766" style="stop-color:#FBE8A3"/>
					<stop  offset="0.4844" style="stop-color:#FAE7A2"/>
					<stop  offset="0.4922" style="stop-color:#FAE7A1"/>
					<stop  offset="0.5" style="stop-color:#FAE6A1"/>
					<stop  offset="0.5078" style="stop-color:#F9E6A0"/>
					<stop  offset="0.5156" style="stop-color:#F9E59F"/>
					<stop  offset="0.5234" style="stop-color:#F8E49F"/>
					<stop  offset="0.5273" style="stop-color:#F8E49E"/>
					<stop  offset="0.5312" style="stop-color:#F8E39D"/>
					<stop  offset="0.5352" style="stop-color:#F7E39C"/>
					<stop  offset="0.5391" style="stop-color:#F7E29B"/>
					<stop  offset="0.543" style="stop-color:#F6E19B"/>
					<stop  offset="0.5469" style="stop-color:#F6E19A"/>
					<stop  offset="0.5508" style="stop-color:#F5E099"/>
					<stop  offset="0.5547" style="stop-color:#F5E098"/>
					<stop  offset="0.5586" style="stop-color:#F5DF97"/>
					<stop  offset="0.5625" style="stop-color:#F4DF97"/>
					<stop  offset="0.5664" style="stop-color:#F4DE96"/>
					<stop  offset="0.5703" style="stop-color:#F3DD95"/>
					<stop  offset="0.5742" style="stop-color:#F3DD94"/>
					<stop  offset="0.5781" style="stop-color:#F3DC93"/>
					<stop  offset="0.582" style="stop-color:#F2DC92"/>
					<stop  offset="0.5859" style="stop-color:#F2DB92"/>
					<stop  offset="0.5898" style="stop-color:#F1DB91"/>
					<stop  offset="0.5938" style="stop-color:#F1DA90"/>
					<stop  offset="0.5977" style="stop-color:#F0D98F"/>
					<stop  offset="0.6016" style="stop-color:#F0D88D"/>
					<stop  offset="0.6055" style="stop-color:#EFD78C"/>
					<stop  offset="0.6094" style="stop-color:#EED68B"/>
					<stop  offset="0.6133" style="stop-color:#EED589"/>
					<stop  offset="0.6172" style="stop-color:#EDD488"/>
					<stop  offset="0.6211" style="stop-color:#ECD387"/>
					<stop  offset="0.625" style="stop-color:#ECD386"/>
					<stop  offset="0.6289" style="stop-color:#EBD284"/>
					<stop  offset="0.6328" style="stop-color:#EAD183"/>
					<stop  offset="0.6367" style="stop-color:#EAD082"/>
					<stop  offset="0.6406" style="stop-color:#E9CF80"/>
					<stop  offset="0.6445" style="stop-color:#E8CE7F"/>
					<stop  offset="0.6484" style="stop-color:#E8CD7E"/>
					<stop  offset="0.6523" style="stop-color:#E7CC7C"/>
					<stop  offset="0.6562" style="stop-color:#E6CB7B"/>
					<stop  offset="0.6602" style="stop-color:#E6CA7A"/>
					<stop  offset="0.6641" style="stop-color:#E5C978"/>
					<stop  offset="0.668" style="stop-color:#E4C877"/>
					<stop  offset="0.6719" style="stop-color:#E3C775"/>
					<stop  offset="0.6758" style="stop-color:#E3C573"/>
					<stop  offset="0.6797" style="stop-color:#E2C472"/>
					<stop  offset="0.6836" style="stop-color:#E1C370"/>
					<stop  offset="0.6875" style="stop-color:#E0C16E"/>
					<stop  offset="0.6914" style="stop-color:#DFC06C"/>
					<stop  offset="0.6953" style="stop-color:#DEBF6B"/>
					<stop  offset="0.6992" style="stop-color:#DDBE69"/>
					<stop  offset="0.7031" style="stop-color:#DCBC67"/>
					<stop  offset="0.707" style="stop-color:#DBBB66"/>
					<stop  offset="0.7109" style="stop-color:#DBBA64"/>
					<stop  offset="0.7148" style="stop-color:#DAB862"/>
					<stop  offset="0.7188" style="stop-color:#D9B760"/>
					<stop  offset="0.7227" style="stop-color:#D8B65F"/>
					<stop  offset="0.7266" style="stop-color:#D7B45D"/>
					<stop  offset="0.7305" style="stop-color:#D6B35B"/>
					<stop  offset="0.7344" style="stop-color:#D5B259"/>
					<stop  offset="0.7383" style="stop-color:#D4B058"/>
					<stop  offset="0.7422" style="stop-color:#D3AF56"/>
					<stop  offset="0.7461" style="stop-color:#D2AE54"/>
					<stop  offset="0.75" style="stop-color:#D1AC52"/>
					<stop  offset="0.7539" style="stop-color:#D0AA50"/>
					<stop  offset="0.7578" style="stop-color:#CFA94E"/>
					<stop  offset="0.7617" style="stop-color:#CEA74B"/>
					<stop  offset="0.7656" style="stop-color:#CDA649"/>
					<stop  offset="0.7695" style="stop-color:#CCA447"/>
					<stop  offset="0.7734" style="stop-color:#CAA345"/>
					<stop  offset="0.7773" style="stop-color:#C9A143"/>
					<stop  offset="0.7812" style="stop-color:#C8A041"/>
					<stop  offset="0.7852" style="stop-color:#C79E3F"/>
					<stop  offset="0.7891" style="stop-color:#C69C3D"/>
					<stop  offset="0.793" style="stop-color:#C59B3B"/>
					<stop  offset="0.7969" style="stop-color:#C49939"/>
					<stop  offset="0.8008" style="stop-color:#C39837"/>
					<stop  offset="0.8047" style="stop-color:#C29635"/>
					<stop  offset="0.8086" style="stop-color:#C19533"/>
					<stop  offset="0.8125" style="stop-color:#BF9331"/>
					<stop  offset="0.8164" style="stop-color:#BE922F"/>
					<stop  offset="0.8203" style="stop-color:#BD902D"/>
					<stop  offset="0.8242" style="stop-color:#BB8F2E"/>
					<stop  offset="0.8281" style="stop-color:#BA8E2E"/>
					<stop  offset="0.832" style="stop-color:#B88C2F"/>
					<stop  offset="0.8359" style="stop-color:#B68B2F"/>
					<stop  offset="0.8398" style="stop-color:#B58A2F"/>
					<stop  offset="0.8438" style="stop-color:#B38830"/>
					<stop  offset="0.8477" style="stop-color:#B18730"/>
					<stop  offset="0.8516" style="stop-color:#AF8531"/>
					<stop  offset="0.8555" style="stop-color:#AE8431"/>
					<stop  offset="0.8594" style="stop-color:#AC8332"/>
					<stop  offset="0.8633" style="stop-color:#AA8132"/>
					<stop  offset="0.8672" style="stop-color:#A98033"/>
					<stop  offset="0.8711" style="stop-color:#A77F33"/>
					<stop  offset="0.875" style="stop-color:#A57D34"/>
					<stop  offset="0.8789" style="stop-color:#A37C34"/>
					<stop  offset="0.8828" style="stop-color:#A27A35"/>
					<stop  offset="0.8867" style="stop-color:#A07935"/>
					<stop  offset="0.8906" style="stop-color:#9E7836"/>
					<stop  offset="0.8945" style="stop-color:#9D7636"/>
					<stop  offset="0.8984" style="stop-color:#9B7537"/>
					<stop  offset="0.9023" style="stop-color:#997437"/>
					<stop  offset="0.9062" style="stop-color:#977238"/>
					<stop  offset="0.9102" style="stop-color:#967138"/>
					<stop  offset="0.9141" style="stop-color:#946F39"/>
					<stop  offset="0.918" style="stop-color:#936F39"/>
					<stop  offset="0.9219" style="stop-color:#926E39"/>
					<stop  offset="0.9375" style="stop-color:#926E39"/>
					<stop  offset="1" style="stop-color:#926E39"/>
				</linearGradient>
				<path style="fill:url(#SVGID_00000111187763556379799550000000993715346381911684_);" d="M28.6,68.3v884h1023.1v-884H28.6z"/>
			</g>
		</g>
	</g>
</g>
<g>
	<defs>
		<rect id="SVGID_00000041281020604900878830000008911207982825804983_" x="242.7" y="809.3" width="594.7" height="125.3"/>
	</defs>
	<clipPath id="SVGID_00000078762459785257823650000007049443160837491876_">
		<use xlink:href="#SVGID_00000041281020604900878830000008911207982825804983_"  style="overflow:visible;"/>
	</clipPath>
	<g style="clip-path:url(#SVGID_00000078762459785257823650000007049443160837491876_);">
		<g>
			<defs>
				<path id="SVGID_00000116200398913605423930000012908465131382521753_" d="M836.2,843.5c0-11.6,0-23.3,0-32.9
					c-19.5,3.2-38.4,7-57.6,9.9c-8.4,1.2-16.9,2.3-25,2.9c-12.2,0.9-24.5,1.5-36.7,2.3c-10.8,0.6-21.5,1.2-32.3,1.8
					c-16.9,0.9-33.8,1.5-50.7,1.7c-13.4,0.3-26.8,0.6-39.9,0.6c-49.8,0.3-99.6-0.3-149.6-1.2c-16-0.3-32.3-0.9-48.3-1.2
					c-2,0-3.8,0-5.8-0.3c-8.7-0.3-17.5-0.6-26.2-1.2c-21-1.2-41.9-3.2-62.6-5.5c-4.4-0.6-8.7-0.9-13.1-1.5
					c-14.6-1.5-28.8-6.1-43.7-9.3c-0.3,1.7-0.6,3.8-0.6,5.5c0,28.2,0.3,56.5-0.3,84.4c0,7.3,2.9,10.5,9,11.9
					c14.3,3.5,28.2,7.9,42.8,9.6c36.4,4.1,73.1,8.2,109.8,9.6c63.2,2.3,126.6,4.1,190.1,2.9c54.7-0.9,109.8-5.2,164.5-9.9
					c22.4-1.7,44.5-8.4,66.7-12.8c7-1.5,10.2-4.9,9.9-12.8C835.6,879.9,836.2,861.5,836.2,843.5z M831.3,898.5c0,2.6-3.5,7-6.1,7.6
					c-18.1,4.4-36.1,9.9-54.7,11.6c-54.7,4.9-109.5,10.2-164.5,11.6c-61.7,1.8-123.4,0.3-185.2-1.7c-50.1-1.7-100.2-4.9-149.1-16
					c-6.7-1.5-13.1-3.8-19.2-6.1c-1.7-0.6-4.1-3.2-4.1-4.9c-0.3-28.2-0.3-56.2-0.3-85c20.7,4.9,41.3,8.4,62,11.1
					c21.8,2.6,44,4.4,65.8,5.2c11.4,0.6,22.7,0.9,34.1,1.2c17.2,0.3,34.1,0.6,51.2,0.6c1.2,0,2.6,0,3.8,0
					c50.1,0.3,100.2,0.6,150.5,0c16.9-0.3,33.8-0.6,50.7-0.9c1.7,0,3.5,0,5.2-0.3c11.6-0.3,23.6-0.9,35.2-1.7
					c21.8-1.5,43.7-3.5,65.2-5.5c6.4-0.6,12.5-1.2,18.9-1.8c13.4-1.2,26.5-4.9,39.9-7.9c0.3,1.5,0.9,2.9,0.9,4.1
					C831.6,845.8,831.9,872,831.3,898.5z"/>
			</defs>
			<clipPath id="SVGID_00000130640727570822640160000000267540785134686113_">
				<use xlink:href="#SVGID_00000116200398913605423930000012908465131382521753_"  style="overflow:visible;"/>
			</clipPath>
			<g style="clip-path:url(#SVGID_00000130640727570822640160000000267540785134686113_);">
				
					<linearGradient id="SVGID_00000103247781064266953330000007394303886596861117_" gradientUnits="userSpaceOnUse" x1="303.6654" y1="675.0374" x2="427.0159" y2="551.6879" gradientTransform="matrix(2.9114 0 0 -2.9098 -523.3541 2657.0574)">
					<stop  offset="0" style="stop-color:#FBE8A3"/>
					<stop  offset="0.1743" style="stop-color:#FBE8A3"/>
					<stop  offset="0.25" style="stop-color:#FBE8A3"/>
					<stop  offset="0.375" style="stop-color:#FBE8A3"/>
					<stop  offset="0.3906" style="stop-color:#FBE8A2"/>
					<stop  offset="0.3984" style="stop-color:#FAE7A2"/>
					<stop  offset="0.4062" style="stop-color:#FAE7A1"/>
					<stop  offset="0.4141" style="stop-color:#FAE6A1"/>
					<stop  offset="0.4219" style="stop-color:#F9E6A0"/>
					<stop  offset="0.4297" style="stop-color:#F9E5A0"/>
					<stop  offset="0.4375" style="stop-color:#F9E59F"/>
					<stop  offset="0.4453" style="stop-color:#F8E49F"/>
					<stop  offset="0.4531" style="stop-color:#F8E49E"/>
					<stop  offset="0.457" style="stop-color:#F8E39D"/>
					<stop  offset="0.4609" style="stop-color:#F7E39C"/>
					<stop  offset="0.4648" style="stop-color:#F7E29C"/>
					<stop  offset="0.4688" style="stop-color:#F7E29B"/>
					<stop  offset="0.4727" style="stop-color:#F6E19A"/>
					<stop  offset="0.4766" style="stop-color:#F6E19A"/>
					<stop  offset="0.4805" style="stop-color:#F6E199"/>
					<stop  offset="0.4844" style="stop-color:#F5E099"/>
					<stop  offset="0.4883" style="stop-color:#F5E098"/>
					<stop  offset="0.4922" style="stop-color:#F5DF97"/>
					<stop  offset="0.4961" style="stop-color:#F4DF97"/>
					<stop  offset="0.5" style="stop-color:#F4DE96"/>
					<stop  offset="0.5039" style="stop-color:#F4DE95"/>
					<stop  offset="0.5078" style="stop-color:#F3DD95"/>
					<stop  offset="0.5117" style="stop-color:#F3DD94"/>
					<stop  offset="0.5156" style="stop-color:#F3DC94"/>
					<stop  offset="0.5195" style="stop-color:#F2DC93"/>
					<stop  offset="0.5234" style="stop-color:#F2DC92"/>
					<stop  offset="0.5273" style="stop-color:#F2DB92"/>
					<stop  offset="0.5312" style="stop-color:#F1DB91"/>
					<stop  offset="0.5352" style="stop-color:#F1DA90"/>
					<stop  offset="0.5391" style="stop-color:#F1DA90"/>
					<stop  offset="0.543" style="stop-color:#F0D98F"/>
					<stop  offset="0.5469" style="stop-color:#F0D88E"/>
					<stop  offset="0.5508" style="stop-color:#EFD88D"/>
					<stop  offset="0.5547" style="stop-color:#EFD78C"/>
					<stop  offset="0.5586" style="stop-color:#EED68B"/>
					<stop  offset="0.5625" style="stop-color:#EED58A"/>
					<stop  offset="0.5664" style="stop-color:#EDD589"/>
					<stop  offset="0.5703" style="stop-color:#EDD488"/>
					<stop  offset="0.5742" style="stop-color:#ECD387"/>
					<stop  offset="0.5781" style="stop-color:#ECD286"/>
					<stop  offset="0.582" style="stop-color:#EBD285"/>
					<stop  offset="0.5859" style="stop-color:#EBD183"/>
					<stop  offset="0.5898" style="stop-color:#EAD082"/>
					<stop  offset="0.5938" style="stop-color:#EAD081"/>
					<stop  offset="0.5977" style="stop-color:#E9CF80"/>
					<stop  offset="0.6016" style="stop-color:#E9CE7F"/>
					<stop  offset="0.6055" style="stop-color:#E8CD7E"/>
					<stop  offset="0.6094" style="stop-color:#E8CD7D"/>
					<stop  offset="0.6133" style="stop-color:#E7CC7C"/>
					<stop  offset="0.6172" style="stop-color:#E7CB7B"/>
					<stop  offset="0.6211" style="stop-color:#E6CB7A"/>
					<stop  offset="0.625" style="stop-color:#E6CA79"/>
					<stop  offset="0.6289" style="stop-color:#E5C978"/>
					<stop  offset="0.6328" style="stop-color:#E5C877"/>
					<stop  offset="0.6367" style="stop-color:#E4C776"/>
					<stop  offset="0.6406" style="stop-color:#E3C674"/>
					<stop  offset="0.6445" style="stop-color:#E2C573"/>
					<stop  offset="0.6484" style="stop-color:#E2C472"/>
					<stop  offset="0.6523" style="stop-color:#E1C370"/>
					<stop  offset="0.6562" style="stop-color:#E0C26F"/>
					<stop  offset="0.6602" style="stop-color:#E0C16E"/>
					<stop  offset="0.6641" style="stop-color:#DFC06C"/>
					<stop  offset="0.668" style="stop-color:#DEBF6B"/>
					<stop  offset="0.6719" style="stop-color:#DEBE6A"/>
					<stop  offset="0.6758" style="stop-color:#DDBD68"/>
					<stop  offset="0.6797" style="stop-color:#DCBC67"/>
					<stop  offset="0.6836" style="stop-color:#DCBB66"/>
					<stop  offset="0.6875" style="stop-color:#DBBA64"/>
					<stop  offset="0.6914" style="stop-color:#DAB963"/>
					<stop  offset="0.6953" style="stop-color:#D9B862"/>
					<stop  offset="0.6992" style="stop-color:#D9B760"/>
					<stop  offset="0.7031" style="stop-color:#D8B65F"/>
					<stop  offset="0.707" style="stop-color:#D7B55E"/>
					<stop  offset="0.7109" style="stop-color:#D7B45C"/>
					<stop  offset="0.7148" style="stop-color:#D6B35B"/>
					<stop  offset="0.7188" style="stop-color:#D5B25A"/>
					<stop  offset="0.7227" style="stop-color:#D5B158"/>
					<stop  offset="0.7266" style="stop-color:#D4B057"/>
					<stop  offset="0.7305" style="stop-color:#D3AF55"/>
					<stop  offset="0.7344" style="stop-color:#D2AE54"/>
					<stop  offset="0.7383" style="stop-color:#D1AC52"/>
					<stop  offset="0.7422" style="stop-color:#D1AB51"/>
					<stop  offset="0.7461" style="stop-color:#D0AA4F"/>
					<stop  offset="0.75" style="stop-color:#CFA94D"/>
					<stop  offset="0.7539" style="stop-color:#CEA84C"/>
					<stop  offset="0.7578" style="stop-color:#CDA64A"/>
					<stop  offset="0.7617" style="stop-color:#CCA549"/>
					<stop  offset="0.7656" style="stop-color:#CBA447"/>
					<stop  offset="0.7695" style="stop-color:#CBA345"/>
					<stop  offset="0.7734" style="stop-color:#CAA244"/>
					<stop  offset="0.7773" style="stop-color:#C9A042"/>
					<stop  offset="0.7812" style="stop-color:#C89F41"/>
					<stop  offset="0.7852" style="stop-color:#C79E3F"/>
					<stop  offset="0.7891" style="stop-color:#C69D3D"/>
					<stop  offset="0.793" style="stop-color:#C59C3C"/>
					<stop  offset="0.7969" style="stop-color:#C59A3A"/>
					<stop  offset="0.8008" style="stop-color:#C49939"/>
					<stop  offset="0.8047" style="stop-color:#C39837"/>
					<stop  offset="0.8086" style="stop-color:#C29735"/>
					<stop  offset="0.8125" style="stop-color:#C19634"/>
					<stop  offset="0.8164" style="stop-color:#C09432"/>
					<stop  offset="0.8203" style="stop-color:#BF9331"/>
					<stop  offset="0.8242" style="stop-color:#BF922F"/>
					<stop  offset="0.8281" style="stop-color:#BE912D"/>
					<stop  offset="0.832" style="stop-color:#BD902D"/>
					<stop  offset="0.8359" style="stop-color:#BB8F2E"/>
					<stop  offset="0.8398" style="stop-color:#BA8E2E"/>
					<stop  offset="0.8438" style="stop-color:#B98D2E"/>
					<stop  offset="0.8477" style="stop-color:#B78C2F"/>
					<stop  offset="0.8516" style="stop-color:#B68B2F"/>
					<stop  offset="0.8555" style="stop-color:#B58A2F"/>
					<stop  offset="0.8594" style="stop-color:#B38930"/>
					<stop  offset="0.8633" style="stop-color:#B28830"/>
					<stop  offset="0.8672" style="stop-color:#B18631"/>
					<stop  offset="0.8711" style="stop-color:#AF8531"/>
					<stop  offset="0.875" style="stop-color:#AE8431"/>
					<stop  offset="0.8789" style="stop-color:#AD8332"/>
					<stop  offset="0.8828" style="stop-color:#AB8232"/>
					<stop  offset="0.8867" style="stop-color:#AA8132"/>
					<stop  offset="0.8906" style="stop-color:#A98033"/>
					<stop  offset="0.8945" style="stop-color:#A77F33"/>
					<stop  offset="0.8984" style="stop-color:#A67E34"/>
					<stop  offset="0.9023" style="stop-color:#A57D34"/>
					<stop  offset="0.9062" style="stop-color:#A37C34"/>
					<stop  offset="0.9102" style="stop-color:#A27B35"/>
					<stop  offset="0.9141" style="stop-color:#A17A35"/>
					<stop  offset="0.918" style="stop-color:#9F7935"/>
					<stop  offset="0.9219" style="stop-color:#9E7836"/>
					<stop  offset="0.9258" style="stop-color:#9D7636"/>
					<stop  offset="0.9297" style="stop-color:#9B7536"/>
					<stop  offset="0.9336" style="stop-color:#9A7437"/>
					<stop  offset="0.9375" style="stop-color:#997337"/>
					<stop  offset="0.9414" style="stop-color:#987238"/>
					<stop  offset="0.9453" style="stop-color:#967138"/>
					<stop  offset="0.9492" style="stop-color:#957038"/>
					<stop  offset="0.9531" style="stop-color:#946F39"/>
					<stop  offset="0.957" style="stop-color:#936E39"/>
					<stop  offset="0.9609" style="stop-color:#926E39"/>
					<stop  offset="0.9688" style="stop-color:#926E39"/>
					<stop  offset="1" style="stop-color:#926E39"/>
				</linearGradient>
				<path style="fill:url(#SVGID_00000103247781064266953330000007394303886596861117_);" d="M243.8,809.7v125.1h593V809.7H243.8z"
					/>
			</g>
		</g>
	</g>
</g>
<g>
	<g transform="translate(225.71198, 520.319348)">
	</g>
</g>
<g>
	<g transform="translate(249.711979, 520.319348)">
		<g>
			<path class="st6" d="M86.1,174.9h11.5c1.6,0,2.5-0.7,2.5-2c0-0.6,0-1.1-0.1-1.5L84.3,73.3h22.8l4.5,48.8l2.2,24.9l2.6-24.9
				l5.3-48.8h23l-18.6,105.3c-0.6,3.9-1.9,6.8-3.9,8.7c-2,1.9-5,2.8-9.2,2.8H86.1V174.9z"/>
		</g>
	</g>
</g>
<g>
	<g transform="translate(296.993287, 520.319348)">
		<g>
			<path class="st6" d="M131.8,174.5c-10.3,0-17.7-2.8-22.1-8.5c-4.5-5.7-6.7-14.1-6.7-25.3v-40.2c0-9.2,2.6-16.2,7.9-21
				c5.3-4.8,12.7-7.2,22.1-7.2c19.2,0,28.9,9.4,28.9,28.3v7.2c0,7.3-0.1,13.2-0.3,17.8h-34.7V145c0,3.5,0.4,6.2,1.1,8.1
				c0.7,2,2.3,2.9,4.7,2.9c1.8,0,3.1-0.5,3.9-1.6c0.8-1.1,1.2-2.4,1.4-3.8c0.1-1.4,0.2-3.5,0.2-6.2v-9.7h23.8v5.8
				c0,11.7-2.3,20.3-6.8,25.8C150.6,171.8,142.9,174.5,131.8,174.5z M138.1,113.7v-12.9c0-7.2-1.8-10.8-5.3-10.8c-4,0-6,3.6-6,10.8
				v12.9H138.1z"/>
		</g>
	</g>
</g>
<g>
	<g transform="translate(347.04378, 520.319348)">
		<g>
			<path class="st6" d="M138.7,174.5c-7.8,0-13.1-2.6-15.9-7.7c-2.9-5.2-4.3-12.5-4.3-22.1c0-7.8,1-13.9,3.1-18.1
				c2.1-4.2,4.9-7.3,8.5-9.2c3.7-2,9.2-4.1,16.7-6.5l6.6-2.2V98.5c0-2.6-0.5-4.7-1.6-6.1c-1-1.4-2.3-2.1-3.8-2.1
				c-1.3,0-2.4,0.6-3.4,1.8c-1,1.2-1.4,2.8-1.4,4.8v6h-23.2v-3.3c0-9.8,2.3-16.8,6.9-21c4.6-4.2,12.1-6.3,22.5-6.3
				c8.3,0,15,2.2,20.2,6.5c5.2,4.3,7.8,10.4,7.8,18.4v76.3h-23.8v-11.9c-1.2,4.1-3.1,7.3-5.7,9.6
				C145.3,173.4,142.2,174.5,138.7,174.5z M148.1,155.9c1.8,0,3.1-0.8,3.9-2.2c0.8-1.5,1.2-3.4,1.2-5.5v-27.9
				c-3.6,1.4-6.2,3.1-7.9,5.2c-1.7,2.1-2.5,5-2.5,8.8V147C142.8,153,144.5,155.9,148.1,155.9z"/>
		</g>
	</g>
</g>
<g>
	<g transform="translate(396.581463, 520.319348)">
		<g>
			<path class="st6" d="M137,73.3h23.9v11.1c1.2-3.9,3.3-6.9,6.2-9.1c3-2.2,6.6-3.2,11-3.2v20c-3.4,0-7.1,0.5-11.2,1.4
				c-4.1,1-6.1,2.1-6.1,3.4v76.6H137V73.3z"/>
		</g>
	</g>
</g>
<g>
	<g transform="translate(431.862955, 520.319348)">
		<g>
			<path class="st6" d="M176.2,174.5c-19.8,0-29.7-10-29.7-30.1l0.1-7.9h23.9l0.1,11.8c0,2.4,0.4,4.2,1.4,5.4
				c0.9,1.2,2.4,1.8,4.5,1.8c3.2,0,4.8-2.6,4.8-7.8c0-3.8-0.8-6.8-2.3-9c-1.5-2.2-3.9-4.5-7.2-7l-12.7-9.9
				c-4.4-3.4-7.5-6.8-9.4-10.4c-1.9-3.6-2.9-8.7-2.9-15.3c0-5.1,1.3-9.4,4-13c2.7-3.6,6.3-6.3,10.7-8.1c4.5-1.8,9.4-2.7,14.9-2.7
				c19.4,0,29.1,9.7,29.1,29v1.9H181v-3.8c0-2.4-0.4-4.4-1.2-6.1c-0.8-1.7-2.1-2.5-3.9-2.5c-1.6,0-2.9,0.5-3.8,1.4
				c-0.9,1-1.3,2.3-1.3,3.9c0,3.6,1.4,6.5,4.2,8.5l14.8,10.8c5.3,3.9,9.3,8.2,12.1,12.8c2.8,4.6,4.2,10.4,4.2,17.4
				c0,9.3-2.6,16.5-7.9,21.5C193.1,172,185.7,174.5,176.2,174.5z"/>
		</g>
	</g>
</g>
<g>
	<g transform="translate(480.580131, 520.319348)">
	</g>
</g>
<g>
	<g transform="translate(504.579764, 520.319348)">
		<g>
			<path class="st6" d="M202.1,174.5c-20,0-30-10.4-30-31.1v-40.2c0-9.5,2.7-17,8-22.6c5.3-5.6,12.7-8.4,22-8.4
				c9.3,0,16.6,2.8,21.9,8.4c5.3,5.6,8,13.1,8,22.6v40.2C232,164.2,222.1,174.5,202.1,174.5z M202.1,156.1c1.9,0,3.3-0.7,4.2-2
				c0.9-1.4,1.4-3.2,1.4-5.6v-49c0-5.8-1.9-8.8-5.6-8.8c-3.7,0-5.6,2.9-5.6,8.8v49c0,2.4,0.4,4.2,1.4,5.6
				C198.8,155.4,200.2,156.1,202.1,156.1z"/>
		</g>
	</g>
</g>
<g>
	<g transform="translate(555.553303, 520.319348)">
		<g>
			<path class="st6" d="M192.2,95.9h-4.2l0.1-18.2h4.1v-6.8c0-10.8,5.4-16.1,16.1-16.1c5.1,0,9.2,0.6,12.3,1.9v14.8
				c-0.9-0.3-1.6-0.4-2.2-0.4c-1.3,0-2.1,0.5-2.5,1.4c-0.4,0.9-0.5,2.3-0.5,4.1v1.2h5.2v18.5H216v77.3h-23.8V95.9z"/>
		</g>
	</g>
</g>
<g>
	<g transform="translate(584.282275, 520.319348)">
	</g>
</g>
<g>
	<g transform="translate(276.641428, 412.713072)">
		<g>
			<path class="st6" d="M102.6,123.4c0-13.6,2.1-26.2,6.4-37.8c4.3-11.6,9.5-21.9,15.8-31.2c6.2-9.2,14.4-20.1,24.6-32.6
				C159.8,8.9,168-2,174.1-11c6.1-9,11.3-19.3,15.6-31c4.3-11.7,6.4-24.3,6.4-37.9c0-8.1-1.2-14.4-3.5-18.9
				c-2.3-4.5-6.5-6.8-12.5-6.8c-9.9,0-14.9,8.9-14.9,26.7v36.4h-62.7l-0.7-18.4c0-22.6,2.3-41.2,6.9-55.8
				c4.6-14.6,12.7-25.6,24.2-33.2c11.6-7.6,27.5-11.4,47.8-11.4c24.9,0,44.2,7,57.9,21c13.6,14,20.4,33.8,20.4,59.4
				c0,16.4-2.3,31.2-6.8,44.5c-4.5,13.3-10,24.9-16.6,34.8c-6.6,9.9-15.3,21.6-26.1,35c-7.8,9.5-14.4,17.9-19.6,25.3
				c-5.2,7.4-9.9,15-14,22.9h81.1v56.1H102.6V123.4z"/>
		</g>
	</g>
</g>
<g>
	<g transform="translate(404.980468, 412.713072)">
		<g>
			<path class="st6" d="M213.6,140.3c-25.2,0-44.6-7.1-58.2-21.3C141.8,104.8,135,84.6,135,58.2V-76.2c0-28.2,6.6-49.7,19.7-64.4
				c13.2-14.8,32.8-22.2,58.9-22.2c26.3,0,46.1,7.4,59.2,22.2c13.2,14.8,19.8,36.3,19.8,64.4V58.2c0,26.6-6.8,46.9-20.4,61
				C258.6,133.3,239,140.3,213.6,140.3z M213.6,85.6c4.4,0,8-2,10.7-6.1c2.8-4,4.2-8.8,4.2-14.4V-81.7c0-8.5-1-15.1-3-19.6
				c-2-4.5-5.9-6.8-11.9-6.8s-9.9,2.2-11.8,6.8c-1.8,4.5-2.8,11-2.8,19.6V65.2c0,5.5,1.3,10.3,4,14.4
				C205.7,83.6,209.3,85.6,213.6,85.6z"/>
		</g>
	</g>
</g>
<g>
	<g transform="translate(315.332625, 685.757266)">
		<g>
			<path class="st6" d="M113.7,228.6v-53.3h-7.8v-12.7h28.9v12.7h-7.9v53.3H113.7z"/>
		</g>
	</g>
</g>
<g>
	<g transform="translate(355.783872, 685.757266)">
		<g>
			<path class="st6" d="M121.5,162.6h20.3c3.2,0,5.7,0.7,7.5,2.2c1.8,1.5,3,3.5,3.6,6.1c0.6,2.6,0.9,6,0.9,10.1
				c0,3.7-0.5,6.7-1.5,8.8c-1,2.1-2.7,3.6-5.1,4.4c2,0.4,3.4,1.4,4.3,3c0.9,1.6,1.4,3.7,1.4,6.4l-0.2,25h-12.9v-25.8
				c0-1.8-0.4-3-1.1-3.5c-0.7-0.5-2-0.8-3.9-0.8v30.1h-13.4V162.6z M138.1,187c1.8,0,2.8-2,2.8-6c0-1.7-0.1-3-0.2-3.9
				c-0.2-0.9-0.4-1.5-0.9-1.8c-0.4-0.3-1-0.5-1.8-0.5H135V187H138.1z"/>
		</g>
	</g>
</g>
<g>
	<g transform="translate(400.90243, 685.757266)">
		<g>
			<path class="st6" d="M151.8,229.2c-5.4,0-9.5-1.5-12.1-4.6c-2.6-3.1-4-7.6-4-13.7v-48.3h12.8v47.8c0,2.1,0.2,3.7,0.6,4.9
				c0.4,1.2,1.3,1.8,2.6,1.8c1.3,0,2.2-0.6,2.6-1.7c0.4-1.2,0.6-2.8,0.6-5v-47.8h12.8v48.3c0,6-1.3,10.6-4,13.7
				C161.3,227.7,157.3,229.2,151.8,229.2z"/>
		</g>
	</g>
</g>
<g>
	<g transform="translate(445.848126, 685.757266)">
		<g>
			<path class="st6" d="M167.2,229.2c-6,0-10.3-1.5-13-4.5c-2.7-3-4-7.8-4-14.4v-6.5h13v8.2c0,3.3,1,4.9,3.1,4.9c1.2,0,2-0.3,2.5-1
				c0.5-0.7,0.7-1.9,0.7-3.5c0-2.2-0.3-3.9-0.8-5.3c-0.5-1.4-1.2-2.6-2-3.5c-0.8-0.9-2.2-2.4-4.2-4.4l-5.7-5.7
				c-4.4-4.3-6.6-9.1-6.6-14.3c0-5.6,1.3-9.9,3.9-12.9c2.6-2.9,6.4-4.4,11.4-4.4c5.9,0,10.2,1.6,12.8,4.7c2.6,3.1,3.9,8.1,3.9,14.8
				h-13.5l-0.1-4.5c0-0.9-0.2-1.6-0.8-2.1c-0.5-0.5-1.2-0.8-2-0.8c-1,0-1.8,0.3-2.3,0.9c-0.5,0.6-0.8,1.3-0.8,2.3
				c0,2.2,1.2,4.4,3.7,6.7l7.7,7.4c1.8,1.8,3.3,3.4,4.5,5c1.2,1.6,2.1,3.4,2.8,5.5c0.7,2.1,1.1,4.6,1.1,7.6c0,6.5-1.2,11.4-3.6,14.8
				C176.6,227.5,172.7,229.2,167.2,229.2z"/>
		</g>
	</g>
</g>
<g>
	<g transform="translate(490.044748, 685.757266)">
		<g>
			<path class="st6" d="M172,228.6v-53.3h-7.8v-12.7H193v12.7h-7.9v53.3H172z"/>
		</g>
	</g>
</g>
</svg>
