<?xml version="1.0" encoding="utf-8"?>
<!-- Generator: Adobe Illustrator 27.2.0, SVG Export Plug-In . SVG Version: 6.00 Build 0)  -->
<svg version="1.1" id="Layer_1" xmlns="http://www.w3.org/2000/svg" xmlns:xlink="http://www.w3.org/1999/xlink" x="0px" y="0px"
	 viewBox="0 0 500 500" style="enable-background:new 0 0 500 500;" xml:space="preserve">
<style type="text/css">
	.st0{fill:none;stroke:#000000;stroke-width:5;stroke-miterlimit:10;}
</style>
<g>
	<path class="st0" d="M58.4,272.4c6.9-0.9,13.8-1.6,20.7-2.7c1.2-0.2,2.6-1.4,3.1-2.5c3-5.8,5.7-11.8,8.9-18.4
		c3,6.2,5.9,11.9,8.4,17.7c1.1,2.4,2.6,3.3,5,3.6c6.2,0.7,12.3,1.5,19.4,2.4c-5.1,4.8-9.6,9.2-14.2,13.4c-1.9,1.7-2.5,3.3-1.9,5.8
		c1.3,6.1,2.3,12.2,3.6,19.2c-5.7-3.1-10.9-5.6-15.8-8.6c-3.2-2-5.6-1.9-8.8,0c-4.9,3-10,5.5-15.8,8.6c0.9-5.2,1.2-9.9,2.6-14.2
		c2.1-6.2,0.5-10.5-4.7-14.3c-3.8-2.7-7-6.2-10.5-9.3C58.4,272.9,58.4,272.7,58.4,272.4z"/>
	<path class="st0" d="M441.6,272.5c-5.3,5.1-10.1,9.4-14.6,14.1c-1.1,1.1-1.7,3.3-1.5,4.8c0.9,6.3,2.2,12.6,3.5,19.6
		c-6.2-3.4-11.9-6.2-17.3-9.4c-2.1-1.3-3.7-1.1-5.8,0.1c-5.5,3.1-11.1,6-17.3,9.4c1.3-7.1,2.3-13.5,3.6-19.8
		c0.4-2.1-0.1-3.4-1.6-4.9c-4.7-4.3-9.4-8.8-14.5-13.7c6.5-0.9,12.2-1.9,18-2.3c3.6-0.3,5.5-1.8,6.9-5c2.3-5.4,5-10.5,7.8-16.4
		c2.9,6.1,5.7,11.4,8,17c1.3,3.1,3.3,4.1,6.4,4.4C429.2,270.7,435,271.6,441.6,272.5z"/>
	<path class="st0" d="M270.2,251.1c-6.3-3.4-11.9-6.3-17.4-9.5c-2-1.1-3.4-1.2-5.4,0c-5.6,3.2-11.3,6.2-17.6,9.5
		c1.2-6.7,2.2-12.7,3.5-18.6c0.6-2.9,0-4.9-2.2-6.8c-4.5-3.9-8.7-8.2-13.7-12.9c6.4-0.9,12.2-1.9,18-2.4c3.3-0.3,5.3-1.5,6.7-4.7
		c2.2-5.4,5-10.6,7.9-16.6c2.4,4.9,4.8,9,6.4,13.5c1.9,5.4,4.9,8.2,11,8.2c4.8,0,9.6,1.2,15.3,2c-4.8,4.6-9.1,8.9-13.6,12.9
		c-2.4,2.1-3,4.1-2.3,7.1C268.1,238.5,269,244.4,270.2,251.1z"/>
	<path class="st0" d="M190.8,266c-6.3-3.4-12-6.4-17.6-9.5c-1.8-1-3.2-1.1-5.1,0c-5.6,3.2-11.3,6.2-17.7,9.6
		c1.2-6.7,2.2-12.7,3.5-18.7c0.6-2.7,0.2-4.6-2-6.5c-4.6-4-8.9-8.4-13.9-13.1c6.4-0.9,12.2-1.9,18.1-2.4c3.4-0.3,5.3-1.5,6.6-4.7
		c2.2-5.4,5-10.6,7.9-16.6c2.1,4.4,4.5,8,5.7,12c2.1,7.1,6.7,9.9,13.8,10c4.1,0,8.3,1,13.2,1.6c-5.1,4.9-9.6,9.3-14.3,13.5
		c-1.8,1.6-2.3,3.2-1.8,5.5C188.4,252.9,189.5,259.1,190.8,266z"/>
	<path class="st0" d="M296.8,227.7c6.6-0.9,12.5-1.8,18.4-2.4c3-0.3,4.9-1.2,6.2-4.3c2.3-5.6,5.2-10.9,8.1-17.1
		c3,6.3,5.8,11.8,8.2,17.4c1.2,2.7,2.9,3.6,5.6,3.9c6,0.6,12,1.5,18.8,2.4c-4.9,4.7-9.2,9-13.7,13c-2.2,2-2.9,3.8-2.3,6.8
		c1.4,5.9,2.3,11.9,3.5,18.6c-6.3-3.4-12-6.6-17.8-9.5c-1.3-0.6-3.4-0.6-4.6,0c-5.8,2.9-11.4,6-17.9,9.5c1.1-6.3,1.9-12,3.2-17.6
		c0.8-3.5,0.4-6-2.6-8.4C305.5,236.4,301.5,232.1,296.8,227.7z"/>
</g>
</svg>
