<?xml version="1.0" encoding="UTF-8"?>
<svg id="Layer_1" data-name="Layer 1" xmlns="http://www.w3.org/2000/svg" viewBox="0 0 480 496">
  <path d="m480,71v17c-.27.78-.67,1.53-.79,2.33-5.07,31.68-22.61,53.27-52.41,65.07-1.29.51-2.62,2.78-2.68,4.28-.28,7.15.13,14.34-.22,21.49-.19,3.99,1.11,5.6,4.89,7.08,22.68,8.88,37.52,33.22,34.77,56.34-3.19,26.84-21.61,46.79-46.94,50.53-5.67.84-11.46.92-17.18,1.35-.15,1-.29,1.65-.34,2.3-3.97,50.31-21.47,95.41-51.89,135.64-20.02,26.47-44.42,46.85-76.91,55.97-8.92,2.5-18.18,3.78-27.29,5.62h-22c-1.11-.28-2.21-.71-3.34-.83-30.27-3.35-57.03-14.93-78.8-36.19-38.17-37.3-61.27-82.82-70.8-135.25-1.65-9.1-2.57-18.33-3.86-27.76-3.19,0-6.18.06-9.17,0-24.62-.57-46.01-17.11-52.68-40.8-.94-3.34-1.57-6.78-2.35-10.17,0-3.33,0-6.67,0-10,.28-.93.67-1.85.83-2.8,3.63-21.71,15.77-36.59,36.16-44.66,2.56-1.01,3.04-2.34,3.07-4.78.15-12.48-.19-25.02.85-37.44C46.37,80,92.95,23.85,156.28,6.23,166.63,3.35,177.42,2.04,188,0c29.33,0,58.67,0,88,0,5.24.81,10.5,1.52,15.72,2.44,18.83,3.33,36.49,9.89,52.69,19.3,5.76-3.98,10.92-8.26,16.73-11.37,5.96-3.18,12.47-5.38,18.86-7.67,3.54-1.26,7.32-1.83,11-2.7,6,0,12,0,18,0,.92.31,1.81.75,2.75.92,32.31,5.8,53.86,24.22,64.51,55.25,1.65,4.8,2.51,9.88,3.73,14.83Zm-248.14,25c-18.83,0-37.66-.12-56.48.02-52.49.41-94.98,42.74-95.33,95.13-.2,29.99-.37,59.99.05,89.97.85,61.15,21.92,114.53,63.14,159.71,46.65,51.13,126.71,52.73,174.68,2.82,43.57-45.34,65.14-100.2,66-163.03.41-29.65.36-59.32-.09-88.97-.13-8.72-2.29-17.42-3.69-26.1-.99-6.14-3.69-10.84-10.65-11.82-1.74-.25-3.28-1.79-5.03-2.1-2.75-.48-5.82-1.19-8.38-.46-8.47,2.41-16.68,5.76-25.19,8-2.55.67-6.56-.26-8.42-2.03-1.68-1.59-2.24-5.51-1.7-8.06,1.17-5.5,2.99-10.95,5.25-16.1,3.65-8.32,5.02-16.33-.53-24.35-.46-.66-.38-1.73-.89-2.3-1.55-1.71-3.06-4.3-4.97-4.7-10.37-2.19-20.8-4.93-31.31-5.41-18.79-.86-37.64-.24-56.47-.24Zm-167.55,87.87c.39-3.18.62-5.99,1.09-8.75,9.69-56.54,55.25-95.05,112.53-95.11,36.32-.04,72.64-.03,108.97.03,4.49,0,9,.22,13.45.81,6.5.86,12.94,2.14,19.71,3.29-.71-18.24,4.2-34.67,14.23-49.73-20.54-11.43-41.99-17.67-64.81-18.18-23.98-.53-47.98-.35-71.97-.12-22.16.21-43.32,5.25-62.85,15.76-47.9,25.78-74.01,66.08-78.38,120.24-.85,10.52-.12,21.17-.12,31.78h8.15Zm272.88-111.87c6.62,0,13.27.22,19.9-.07,5.05-.22,8.34,1.72,11.18,5.88,16.63,24.35,46.76,24.39,63.42.06,2.99-4.36,6.46-6.19,11.65-5.95,6.54.3,13.11.07,19.71.07-2.45-27.97-28.31-57.21-65.75-55.94-30.67,1.04-60.6,28.66-60.1,55.94Zm3.5,67.26c5.33-1.74,9.84-2.87,14.06-4.67,5.24-2.24,9.59-1.48,14.56,1.32,25.26,14.23,56.94,9.28,76.92-11.77,9.5-10.02,15.34-21.83,17.08-36.14-5.99,0-11.47-.16-16.93.12-1.33.07-2.93,1.3-3.84,2.44-22.79,28.69-62.32,28.68-85.11-.04-.9-1.14-2.51-2.34-3.85-2.41-5.46-.27-10.93-.11-16.77-.11.77,8.88,3.54,16.66,7.92,23.76,2.54,4.11,2.78,7.94,1.13,12.3-1.76,4.65-3.21,9.42-5.15,15.19ZM63.65,279.7v-79.4c-30-3.38-47.53,18.51-47.66,39.44-.14,21.06,17.36,43.31,47.66,39.96Zm336.55.11c18.09,1.43,32.82-3.81,42.11-19.59,8.46-14.36,7.86-29.09-1.51-42.84-9.66-14.18-23.82-18.68-40.6-17.12v79.55Zm-4.46-119.75c1.48,8.2,2.85,15.86,4.25,23.62h7.7v-23.62h-11.95Z"/>
  <path d="m216.29,215.17c5.19.58,10.1,1.14,15.54,1.75-1.03,9.8-2,19.33-3.06,28.85-1.53,13.73-2.95,27.47-4.83,41.15-.39,2.88-1.94,6.09-3.96,8.16-7.8,7.97-15.94,15.61-24.08,23.23-3.38,3.17-4.93,6.68-3.19,11.14,1.78,4.58,5.35,6.56,10.16,6.55,17.47-.01,34.94,0,52.76,0v16c-4.77,0-9.54,0-14.31,0-13.32,0-26.65.22-39.96-.11-10.33-.25-18.12-5.31-22.68-14.62-4.39-8.95-3.78-17.96,2.11-25.96,3.21-4.37,7.57-7.92,11.55-11.7,16.73-15.91,16.6-15.9,18.71-39.1,1.28-14.08,3.11-28.12,4.7-42.17.11-.96.32-1.9.54-3.17Z"/>
  <path d="m300.49,398.02c-38.24,34.25-97.87,34.77-136.96.04,2.94-3.95,5.91-7.93,9.08-12.18,39.44,29.6,78.9,29.79,118.77.01,1.55,2.05,3.13,4.13,4.69,6.21,1.49,1.98,2.96,3.96,4.42,5.91Z"/>
  <path d="m180.9,237.9c-18.79,24.21-56.34,24.11-74.08-.5,3.52-3.47,7.05-6.95,10.97-10.82,7.04,7.58,15.08,13.4,26.06,13.42,11.02.02,19.19-5.55,26.35-13.51,3.74,3.99,7.21,7.69,10.69,11.41Z"/>
  <path d="m346.19,226.37c3.91,3.94,7.4,7.47,10.89,10.99-16.46,22.74-52.98,26.58-74.25.28,3.72-3.39,7.48-6.81,11.53-10.49,6.52,7.2,14.65,12.9,25.67,12.86,10.98-.05,19.21-5.53,26.17-13.63Z"/>
  <path d="m160.27,112.22h15.38v15.47h-15.38v-15.47Z"/>
  <path d="m207.89,112.42v15.2h-15.55v-15.2h15.55Z"/>
  <path d="m224.4,112.18h15.29v15.55h-15.29v-15.55Z"/>
  <path d="m271.76,112.28v15.35h-15.44v-15.35h15.44Z"/>
  <path d="m288.24,127.72v-15.35h15.43v15.35h-15.43Z"/>
  <path d="m112.27,144.22h15.38v15.47h-15.38v-15.47Z"/>
  <path d="m144.2,159.76v-15.43h15.52v15.43h-15.52Z"/>
  <path d="m191.73,159.78h-15.38v-15.47h15.38v15.47Z"/>
  <path d="m223.76,144.28v15.35h-15.43v-15.35h15.43Z"/>
  <path d="m240.35,144.23h15.39v15.38h-15.39v-15.38Z"/>
  <path d="m287.8,144.37v15.34h-15.55v-15.34h15.55Z"/>
  <path d="m410.26,26.44c3.68,3.93,7.06,7.54,10.87,11.61-10.72,11.33-14.44,25.56-12.91,41.62h-15.97c-1.68-20.31,3.61-38.06,18.01-53.23Z"/>
</svg>