<?xml version="1.0" encoding="UTF-8"?>
<svg id="Layer_1" data-name="Layer 1" xmlns="http://www.w3.org/2000/svg" viewBox="0 0 435.25 438.13">
  <path d="m34.86,436.71c-4.49-.79-8.75-1.53-13.57-2.38,1.57-8.76,3.09-17.32,4.64-25.87,2.74-15.09,5.62-30.15,8.15-45.27.4-2.37-.07-5.3-1.18-7.43-14.83-28.48-25.25-58.43-29.77-90.25-3.57-25.13-5.49-50.25,2.05-75.18,14.9-49.25,60.78-84.07,112.26-84.59,14.87-.15,29.89-1.42,44.5,2.54,6.99,1.89,13.8,4.48,20.91,6.82,6.06-46.08,28.97-80.98,71.01-101.91,32.07-15.97,65.53-17.22,99.11-4.83,67.28,24.84,100.25,101.45,72.31,167.46-30.41,71.84-119.62,100.82-186.59,56.37,0,3.28-.25,6.29.06,9.25.55,5.25-1.25,9.15-5.13,12.76-7.12,6.62-6.95,6.81-1.63,14.78,5.35,8.03,10.77,16,16.04,24.08,10.22,15.67,3,33.28-15.29,36.92-2.78.55-2.96,2.13-3.58,4.02-4.21,12.66-4.73,25.69-4.63,38.91.12,15.69-10.62,29.23-25.66,33.23-3.35.89-6.91,1.26-10.38,1.31-10.96.16-21.93.15-32.89,0-2.63-.04-3.8.86-4.72,3.25-3.49,9.1-7.21,18.11-10.95,27.44-4.37-1.73-8.4-3.33-12.83-5.09.53-1.52.94-2.86,1.45-4.16,3.72-9.36,7.46-18.71,11.2-28.07,2.61-6.53,3.79-7.34,10.69-7.35,12.57,0,25.15.03,37.72,0,13.68-.04,23.1-8.86,22.29-22.54-1-16.86,3.04-32.73,7.23-48.68,1.02-3.88,3.45-5.98,7.54-5.99.73,0,1.46-.04,2.19,0,4.25.27,7.87-.88,10.08-4.78,2.37-4.16.84-7.8-1.59-11.41-7.36-10.9-14.61-21.87-21.91-32.81-4.85-7.27-4.69-8.77,1.5-14.97,10.04-10.05,9.78-10.04,8.95-24.38-.33-5.61-1.96-9.81-6.23-13.59-3.9-3.45-7.03-7.8-10.29-11.92-1.5-1.9-2.76-2.76-5.43-2.29-8.05,1.43-16.18,2.36-24.27,3.58-3.43.52-6.47.12-8.53-2.99-2.08-3.14-1.15-6.06.8-8.95,5.4-7.99,10.79-15.99,16-24.1.91-1.41,1.49-3.49,1.23-5.11-1.45-9.21-3.07-18.41-4.95-27.54-.37-1.81-1.78-3.95-3.34-4.88-10.46-6.27-21.95-9.84-34.06-10.19-12.69-.37-25.41.36-38.11.57-3.88.06-6.78,1.46-9.24,4.73-4.29,5.73-9.16,11.01-13.65,16.59-14.13,17.59-6.3,42.52,15.39,48.83,10.65,3.1,21.39,5.89,32.09,8.79,12.36,3.35,20.11,11.27,22.15,23.87,1.93,11.9-2.75,21.49-12.46,28.51-12.55,9.08-25.21,18.01-37.8,27.04-2.64,1.89-5.32,3.13-8.52,1.48-3.32-1.71-4.05-4.67-3.97-8.12.1-4.09.12-8.19,0-12.28-.25-7.88-6.42-13.91-14.05-13.89-7.66.02-13.8,6.05-13.96,13.97-.14,7.16-.15,14.33,0,21.49.23,10.96,8.51,19.64,19.47,20.64,7.29.66,9.56,3.68,7.85,10.71-5.33,21.87-18.04,38.03-38.01,48.31-3.26,1.68-4.57,3.76-5.17,7.18-3.78,21.58-7.73,43.13-11.64,64.68-.2,1.13-.55,2.23-.91,3.67ZM246.37,147.45c-.78,0-1.19-.04-1.6,0-9.18.95-16-2.66-18.93-10.01-2.95-7.41-.5-14.7,6.86-20.26,5.83-4.41,11.54-8.99,17.58-13.09,5.47-3.71,9.73-8.02,11.76-14.55,1.02-3.29,3.03-6.31,4.82-9.32,8.97-15.06,18.01-30.07,27.03-45.1,3.75-6.25,6.76-7.91,10.87-5.99,4.09,1.91,4.76,5.09,2.65,12.17-2.43,8.13-4.82,16.28-7.33,24.76,6.77-3.33,10.66-7.75,11.87-15.06,1.48-8.9,4.28-17.57,6.47-26.35.76-3.05,1.4-6.12,2.4-10.49-9.85.46-18.94.14-27.8,1.41-68.79,9.82-112.01,78.83-90.99,145.08,1.43,4.5,1.09,8.08-1.71,11.85-3.41,4.6-6.4,9.52-10.16,15.18,5.95-.83,10.74-1.32,15.45-2.21,4.97-.94,8.12.95,11.07,4.97,27.71,37.66,64.91,53.96,111.14,46.77,83.59-13,122.21-114.64,68.89-180.26-.87-1.07-1.8-2.07-2.96-3.4-9.59,17.99-18.77,35.43-28.23,52.72-1.46,2.67-3.85,5.2-6.42,6.83-14.31,9.07-28.8,17.85-43.23,26.73-6.7,4.12-13.39,8.26-21.28,13.12,2.56,2.06,4.35,3.98,6.54,5.17,14.32,7.8,19.13,25.86,10.43,39.67-8.68,13.78-27.16,17.31-40.26,7.68-9.52-6.99-13.59-18.67-10.37-30.35.88-3.21.99-5.67-2.75-6.97-9.83-3.42-13.65-10.03-11.8-20.72Zm-140.78,112.84c9.21-6.57,17.92-12.91,26.78-19.06,5.64-3.91,9.01-8.91,7.8-15.91-1.24-7.14-6.07-10.9-12.93-12.66-10.32-2.65-20.61-5.43-30.84-8.42-32.02-9.35-43.43-45.32-22.77-71.54.71-.9,1.33-1.88,2-2.82-38.05,19.11-59.74,49.37-61.33,92.05-1.29,34.73,5.73,68.3,18.79,100.52,3.65,8.99,7.95,17.72,12.1,26.91,14.95-7.77,24.79-18.78,30.14-34.14-1.27-.45-2.09-.72-2.88-1.03-12.87-5.12-21.16-14.42-22.72-28.17-1.11-9.81-1.11-19.93-.1-29.76,1.49-14.52,14.18-24.64,28.62-24.22,14.62.42,25.33,11.22,27.34,28.25ZM359.24,25.76c-.64,1.91-1.02,2.83-1.26,3.79-4.4,17.55-8.89,35.07-13.1,52.67-1.08,4.53-3.22,7.76-6.99,10.55-24.87,18.45-49.59,37.09-74.36,55.68-.93.7-2.02,1.3-2.7,2.2-.53.7-.98,1.99-.67,2.66.32.7,1.71,1.5,2.41,1.33,2.08-.5,4.23-1.17,6.04-2.28,27.14-16.62,54.23-33.32,81.31-50.04,1.32-.82,2.81-1.82,3.51-3.12,10.04-18.62,19.96-37.3,30.33-56.75-8.09-5.5-16.08-10.94-24.51-16.68Zm-70.37,79.05c.3.19.6.38.9.57,12.65-7.79,25.36-15.48,37.88-23.46,1.82-1.16,3.38-3.52,4-5.64,2.21-7.55,3.99-15.23,5.89-22.86,2.7-10.83,5.37-21.67,8.12-32.8-3.86-1.09-7.28-2.07-10.99-3.12-3.95,15.67-7.62,30.81-11.68,45.85-.69,2.58-2.55,5.27-4.64,6.96-7.38,5.95-15.12,11.45-22.66,17.21-1.22.93-2.65,2.12-3.09,3.47-1.47,4.54-2.53,9.21-3.74,13.83Zm-5.38,54.95c-2.7,1.67-5.02,2.89-7.07,4.47-.79.61-1.68,2.38-1.35,2.97,2.18,3.92,1.17,7.41-.36,11.27-2.7,6.8.94,14.51,7.73,17.35,6.75,2.82,14.54-.08,17.89-6.67,3.26-6.42,1.38-14.78-5.07-17.88-5.33-2.56-9.92-5.27-11.76-11.51Zm-30.42-39.81c-.42.14-.88.18-1.2.42-3.73,2.75-7.51,5.43-11.09,8.36-.94.77-1.23,2.32-1.82,3.52,1.41.41,2.93,1.39,4.2,1.14,7.15-1.44,10.1-5.58,9.91-13.44Zm24.36-29.98c-4.88,9.05-8.19,18.2-8.86,28.43,2.14-1.46,4.74-3.07,5.17-5.14,1.59-7.52,2.47-15.19,3.68-23.29Z"/>
</svg>